/* XPM */
static char *item[] = {
/* columns rows colors chars-per-pixel */
"50 50 188 2 ",
"   c #1B203D",
".  c #222744",
"X  c #2B304D",
"o  c #343957",
"O  c #313A70",
"+  c #2C356A",
"@  c #3E4360",
"#  c #3C457B",
"$  c #494E6B",
"%  c #525460",
"&  c #606060",
"*  c gray44",
"=  c #474F85",
"-  c #4F588D",
";  c #586197",
":  c #616A9F",
">  c #747DB3",
",  c #6A73A9",
"<  c #1102D6",
"1  c #1B0DD8",
"2  c #160BD9",
"3  c #1612DC",
"4  c #191CDF",
"5  c #1718DD",
"6  c #251CDD",
"7  c #2416D9",
"8  c #2D24DE",
"9  c #2625DE",
"0  c #3429DD",
"q  c #1C25E1",
"w  c #1E2BE3",
"e  c #1F30E4",
"r  c #2926E2",
"t  c #212CE2",
"y  c #2E2CE4",
"u  c #2236E6",
"i  c #2C35E4",
"p  c #233AE7",
"a  c #243EE9",
"s  c #3233E5",
"d  c #393EEA",
"f  c #3638E5",
"g  c #443ADF",
"h  c #493EE0",
"j  c #5933FF",
"k  c #5A3AFF",
"l  c #2643EA",
"z  c #2944EA",
"x  c #294CED",
"c  c #2748EC",
"v  c #3245EA",
"b  c #3944E6",
"n  c #2C52EE",
"m  c #3352ED",
"M  c #3C53ED",
"N  c #3A5EEF",
"B  c #2C56F0",
"V  c #2E5BF1",
"C  c #335EF1",
"Z  c #2F60F3",
"A  c #3164F4",
"S  c #336BF6",
"D  c #3572F9",
"F  c #4F61CC",
"G  c #586BDE",
"H  c #6473C9",
"J  c #4549E9",
"K  c #534EE4",
"L  c #4757EC",
"P  c #535CEB",
"I  c #5956E5",
"U  c #5B44FE",
"Y  c #5C4BFD",
"T  c #4B5CF3",
"R  c #4558F1",
"E  c #5D53FE",
"W  c #5E5BFD",
"Q  c #515FF4",
"!  c #6745E0",
"~  c #6456EE",
"^  c #655AEB",
"/  c #625EF6",
"(  c #5A6EE4",
")  c #5969EC",
"_  c #5E72EB",
"`  c #5E71E5",
"'  c #4C6CF6",
"]  c #4A6FF8",
"[  c #5364F6",
"{  c #536BF6",
"}  c #5C6CF4",
"|  c #5F61FD",
" . c #5A6CF8",
".. c #5A66F1",
"X. c #4B74F9",
"o. c #5F73F5",
"O. c #5477FB",
"+. c #5D73F9",
"@. c #5B7AF9",
"#. c #5571F6",
"$. c #6365EB",
"%. c #636CEE",
"&. c #6A65E7",
"*. c #756FE8",
"=. c #6376EB",
"-. c #6679EA",
";. c #767DEE",
":. c #6364F5",
">. c #626EF2",
",. c #6166FC",
"<. c #626AFD",
"1. c #6371F7",
"2. c #6975F7",
"3. c #6C7DF4",
"4. c #6274FA",
"5. c #6579FB",
"6. c #6A7BFA",
"7. c #6678F8",
"8. c #727EF2",
"9. c #717FF9",
"0. c #7D86BB",
"q. c #7682CD",
"w. c #7D89D4",
"e. c #7484ED",
"r. c #7982ED",
"t. c #7081E7",
"y. c #6E82F6",
"u. c #7481F5",
"i. c #7385F9",
"p. c #7A8BF6",
"a. c #7F91F9",
"s. c #FBD08E",
"d. c #FAD295",
"f. c #F9D59C",
"g. c #D4C4BF",
"h. c #F7D7A2",
"j. c #F6D9A7",
"k. c #F5DBAD",
"l. c #E4CDB1",
"z. c #F4DDB2",
"x. c #F3DFB8",
"c. c #EACCA5",
"v. c #F2E1BD",
"b. c #868FC5",
"n. c #8F98CE",
"m. c #8390DA",
"M. c #A29FD3",
"N. c #98A1D7",
"B. c #A5A4D5",
"V. c #A0A9DF",
"C. c #8E8CEE",
"Z. c #8887E6",
"A. c #938CEC",
"S. c #8C99E8",
"D. c #909CE7",
"F. c #838DF0",
"G. c #8294F8",
"H. c #A19CEF",
"J. c #96A3ED",
"K. c #9EABEE",
"L. c #8FA0F9",
"P. c #9CA4F2",
"I. c #91A0F8",
"U. c #AFBAEE",
"Y. c #A8B1E7",
"T. c #B4B9E1",
"R. c #A3A6F2",
"E. c #A6B4F6",
"W. c #ACBAF8",
"Q. c #B8B6F3",
"!. c #A3AAE5",
"~. c #B8C4F6",
"^. c #D1CDD4",
"/. c #DEDED8",
"(. c #EFE8CE",
"). c #F1E3C3",
"_. c #F0E5C9",
"`. c #EDEAD4",
"'. c #ECEDDC",
"]. c #C7D5F3",
"[. c #DDE8ED",
"{. c #D5E2F2",
"}. c #EAEFE3",
"|. c #E7EFE8",
" X c #E9F2EA",
".X c #E7F6F4",
"XX c #E6F7F8",
"oX c None",
/* pixels */
"oXoXoXoXoXoXoXoXoXoXoXoXoXoXoXoXoXoXoXoXoXoXoXoXoXoXoXoXoXoXoXoXoXoXoXoXoXoXoXoXoXoXoXoXoXoXoXoXoXoX",
"oXoXoXoXoXoXoXoXoXoXoXoXoXoXoXoXoXoXoXoXoXoXoXoXoXoXoXoXoXoXoXoXoXoXoXoXoXoXoXoXoXoXoXoXoXoXoXoXoXoX",
"oXoXoXoXoXoXoXoXoXoXoXoXoXoXoXoXoXoXoXoXoXoXoXj j j j oXoXoXoXoXoXoXoXoXoXoXoXoXoXoXoXoXoXoXoXoXoXoX",
"oXoXoXoXoXoXoXoXoXoXoXoXoXoXoXoXoXoXoXoXj j j j j j j j j j oXoXoXoXoXoXoXoXoXoXoXoXoXoXoXoXoXoXoXoX",
"oXoXoXoXoXoXoXoXoXoXoXoXoXoXoXoXoXoXj j j j U W ,.4. .Y k j j j oXoXoXoXoXoXoXoXoXoXoXoXoXoXoXoXoXoX",
"oXoXoXoXoXoXoXoXoXoXoXoXoXoXoXoXj j j j j W +...P ....4.4.U j j j j oXoXoXoXoXoXoXoXoXoXoXoXoXoXoXoX",
"oXoXoXoXoXoXoXoXoXoXoXoXoXoXoXj j j j j W 4.r < < 2 < < J 5.Y j j j j oXoXoXoXoXoXoXoXoXoXoXoXoXoXoX",
"oXoXoXoXoXoXoXoXoXoXoXoXoXoXj j j U E :.4.9 < < 2 1 2 < < r 1.W k j j j oXoXoXoXoXoXoXoXoXoXoXoXoXoX",
"oXoXoXoXoXoXoXoXoXoXoXoXoXoXj j W 1.1.K y < < < < < < < < < f +.4.4.U j j oXoXoXoXoXoXoXoXoXoXoXoXoX",
"oXoXoXoXoXoXoXoXoXoXoXoXoXj j | 4.s 7 7 < 2 d [  .4. .[ d 2 3 5 5 T 4.Y j j oXoXoXoXoXoXoXoXoXoXoXoX",
"oXoXoXoXoXoXoXoXoXoXoXoXj j Y 4.8 g 0 6 1  .} $.~ Y ~ $.} [ 5 4 q q P +.j j oXoXoXoXoXoXoXoXoXoXoXoX",
"oXoXoXoXoXoXoXoXoXoXoXoXj j ,.Q K *.g 0 6 4.! j j j j j ^ 4.q w w u u 4.E j oXoXoXoXoXoXoXoXoXoXoXoX",
"oXoXoXoXoXoXoXoXoXoXoXoXj j >.s A.Z.~ g 0 ..} >./ / :.>.+.R w u p a l { | j j oXoXoXoXoXoXoXoXoXoXoX",
"oXoXoXoXoXoXoXoXoXoXoXoXj j 4.r Q.H.*.K f 9 f T [ { [ T v p a l c c n { ,.j j oXoXoXoXoXoXoXoXoXoXoX",
"oXoXoXoXoXoXoXoXoXoXoXoXj j 1.s R.Q.C.&.J s t t t t u p a c c x n B B #.,.j j oXoXoXoXoXoXoXoXoXoXoX",
"oXoXoXoXoXoXoXoXoXoXoXoXj j >.J A.].H.;.P b i p p a a c c x B B V Z A @.W j j oXoXoXoXoXoXoXoXoXoXoX",
"oXoXoXoXoXoXoXoXoXoXoXoXj j /  .J H.R.F._ L z z z z x n n V Z Z A S D 4.U j j oXoXoXoXoXoXoXoXoXoXoX",
"oXoXoXoXoXoXoXoXoXoXoXoXj j k 4.b P F.F.-.L m m m n V C Z A S S D D O.4.j j oXoXoXoXoXoXoXoXoXoXoXoX",
"oXoXoXoXoXoXoXoXoXoXoXoXoXj j E 4.M M _ o.' N C A A A S S S D D D @.4.U j j oXoXoXoXoXoXoXoXoXoXoXoX",
"oXoXoXoXoXoXoXoXoXoXoXoXoXj j j E 4.+.' ' ' ' ] ] ] ] X.X.X.O.@.4.4.k j j j oXoXoXoXoXoXoXoXoXoXoXoX",
"oXoXoXoXoXoXoXoXoXoXoXoXoXoXj j j k W 2.e.Z.e.3.7.7.7.5.y.5.5.| Y j j j j oXoXoXoXoXoXoXoXoXoXoXoXoX",
"oXoXoXoXoXoXoXoXoXoXoXoXoXoXj j j j j W r.s.s.s.( ( F _ s.;.W j j j j j j oXoXoXoXoXoXoXoXoXoXoXoXoX",
"oXoXoXoXoXoXoXoXoXoXoXoXoXoXoXj j j j W r.d.d.d.G +   ( d.;.W j j j j j oXoXoXoXoXoXoXoXoXoXoXoXoXoX",
"oXoXoXoXoXoXoXoXoXoXoXoXoXoXoXj j j j W r.d.d.d.G O . ( d.r.7.3.2.k j j oXoXoXoXoXoXoXoXoXoXoXoXoXoX",
"oXoXoXoXoXoXoXoXoXoXoXoXoXoXoXj j j j W r.f.f.f.( # X ( f.c.B.M.2.W j j oXoXoXoXoXoXoXoXoXoXoXoXoXoX",
"oXoXoXoXoXoXoXoXoXoXoXoXoXoXoXoXj j j W r.h.h.h.G # o ` j.h.h.h.8.W j j oXoXoXoXoXoXoXoXoXoXoXoXoXoX",
"oXoXoXoXoXoXoXoXoXoXoXoXoXoXoXoXj j j W r.j.j.j.` = @ _ j.l.3.3.4./ j oXoXoXoXoXoXoXoXoXoXoXoXoXoXoX",
"oXoXoXoXoXoXoXoXoXoXoXoXoXoXoXoXj j j W u.k.k.k.` - $ _ g.B.4.W W j j oXoXoXoXoXoXoXoXoXoXoXoXoXoXoX",
"oXoXoXoXoXoXoXoXoXoXoXoXoXoXoXoXj j j W r.z.z.z.=.; % _ u.6.5.j j j j oXoXoXoXoXoXoXoXoXoXoXoXoXoXoX",
"oXoXoXoXoXoXoXoXoXoXoXoXoXoXoXoXj j j W r.v.x.x.=.: & & & H 5.j j j j oXoXoXoXoXoXoXoXoXoXoXoXoXoXoX",
"oXoXoXoXoXoXoXoXoXoXoXoXoXoXoXoXj j j W u.v.v.v.=., * * * H @.j j j j oXoXoXoXoXoXoXoXoXoXoXoXoXoXoX",
"oXoXoXoXoXoXoXoXoXoXoXoXoXoXoXoXj j j W u.).).).-.> > 7.y.6.5.j j j j oXoXoXoXoXoXoXoXoXoXoXoXoXoXoX",
"oXoXoXoXoXoXoXoXoXoXoXoXoXoXoXoXj j j W u._._._.-.0.q.-.^.!.6.j j j j j oXoXoXoXoXoXoXoXoXoXoXoXoXoX",
"oXoXoXoXoXoXoXoXoXoXoXoXoXoXoXoXj j j W u.(.(.(.3.b.m.t.(.T.6.,.| E j j oXoXoXoXoXoXoXoXoXoXoXoXoXoX",
"oXoXoXoXoXoXoXoXoXoXoXoXoXoXoXoXj j j W 9.`.`.`.u.n.m.t.`./.J.D.i.<.j j oXoXoXoXoXoXoXoXoXoXoXoXoXoX",
"oXoXoXoXoXoXoXoXoXoXoXoXoXoXoXoXoXj j W i.'.`.'.y.N.m.e.'.'.'.`.K.2.j j oXoXoXoXoXoXoXoXoXoXoXoXoXoX",
"oXoXoXoXoXoXoXoXoXoXoXoXoXoXoXoXoXj j W i.'.'.}.u.V.D.p.'.'.}.}.K.u.j j oXoXoXoXoXoXoXoXoXoXoXoXoXoX",
"oXoXoXoXoXoXoXoXoXoXoXoXoXoXoXoXoXj j W 9.}.}.}.u.Y.J.a.}.}.U.U.G.6.j oXoXoXoXoXoXoXoXoXoXoXoXoXoXoX",
"oXoXoXoXoXoXoXoXoXoXoXoXoXoXoXoXoXj j W 9. X X Xi.U.P.a.|.|.y.5.5.E j oXoXoXoXoXoXoXoXoXoXoXoXoXoXoX",
"oXoXoXoXoXoXoXoXoXoXoXoXoXoXoXoXoXj j W 9. X X Xi.E.L.a. X[.@.j j j j oXoXoXoXoXoXoXoXoXoXoXoXoXoXoX",
"oXoXoXoXoXoXoXoXoXoXoXoXoXoXoXoXoXoXj W 6.E.W.{.a.6.5.W.].~.5.j j j oXoXoXoXoXoXoXoXoXoXoXoXoXoXoXoX",
"oXoXoXoXoXoXoXoXoXoXoXoXoXoXoXoXoXoXj Y 4.6.6.L.XXXXXX5.5.5.4.j j j oXoXoXoXoXoXoXoXoXoXoXoXoXoXoXoX",
"oXoXoXoXoXoXoXoXoXoXoXoXoXoXoXoXoXoXoXj j j E 6.XXXX~.5.j j j j j oXoXoXoXoXoXoXoXoXoXoXoXoXoXoXoXoX",
"oXoXoXoXoXoXoXoXoXoXoXoXoXoXoXoXoXoXoXoXj j j 4.6.p.5.<.j j j j oXoXoXoXoXoXoXoXoXoXoXoXoXoXoXoXoXoX",
"oXoXoXoXoXoXoXoXoXoXoXoXoXoXoXoXoXoXoXoXoXj j U | <.W j j j oXoXoXoXoXoXoXoXoXoXoXoXoXoXoXoXoXoXoXoX",
"oXoXoXoXoXoXoXoXoXoXoXoXoXoXoXoXoXoXoXoXoXoXoXoXj j j oXoXoXoXoXoXoXoXoXoXoXoXoXoXoXoXoXoXoXoXoXoXoX",
"oXoXoXoXoXoXoXoXoXoXoXoXoXoXoXoXoXoXoXoXoXoXoXoXoXoXoXoXoXoXoXoXoXoXoXoXoXoXoXoXoXoXoXoXoXoXoXoXoXoX",
"oXoXoXoXoXoXoXoXoXoXoXoXoXoXoXoXoXoXoXoXoXoXoXoXoXoXoXoXoXoXoXoXoXoXoXoXoXoXoXoXoXoXoXoXoXoXoXoXoXoX",
"oXoXoXoXoXoXoXoXoXoXoXoXoXoXoXoXoXoXoXoXoXoXoXoXoXoXoXoXoXoXoXoXoXoXoXoXoXoXoXoXoXoXoXoXoXoXoXoXoXoX",
"oXoXoXoXoXoXoXoXoXoXoXoXoXoXoXoXoXoXoXoXoXoXoXoXoXoXoXoXoXoXoXoXoXoXoXoXoXoXoXoXoXoXoXoXoXoXoXoXoXoX"
};
