/* XPM */
static char *enemy_down1[] = {
/* columns rows colors chars-per-pixel */
"50 50 99 2 ",
"   c #535353",
".  c #68636D",
"X  c gray43",
"o  c #9566BE",
"O  c #8A0ED5",
"+  c #8A0CDB",
"@  c #8C14D7",
"#  c #8D15D9",
"$  c #9019D7",
"%  c #931FDA",
"&  c #9627DB",
"*  c #9B2FDE",
"=  c #9C33DB",
"-  c #890AE4",
";  c #870AEE",
":  c #890AEC",
">  c #8C16E1",
",  c #8F1FE7",
"<  c #8E10EE",
"1  c #860AF3",
"2  c #880AF3",
"3  c #860AFE",
"4  c #880BFF",
"5  c #8B18F5",
"6  c #8714FF",
"7  c #8815FF",
"8  c #891CFF",
"9  c #8C24FF",
"0  c #8E2BFF",
"q  c #9126F1",
"w  c #932DF8",
"e  c #9433FE",
"r  c #953BFF",
"t  c #A038E1",
"y  c #A647DF",
"u  c #A74ADF",
"i  c #9540FF",
"p  c #9944FF",
"a  c #994BFF",
"s  c #9D52FF",
"d  c #9E59FF",
"f  c #A846E5",
"g  c #AC4EE5",
"h  c #A647EE",
"j  c #AF52E8",
"k  c #B055E7",
"l  c #B45BEB",
"z  c #A547F2",
"x  c #A057FF",
"c  c #A05AFF",
"v  c #B566E4",
"b  c #BA71E6",
"n  c #BF7CE8",
"m  c #A264FF",
"M  c #A56AFF",
"N  c #A774FF",
"B  c #AB71FF",
"V  c #AD7BFF",
"C  c #BE79F5",
"Z  c #BD79F8",
"A  c #C474F1",
"S  c #C57AF2",
"D  c #AE84FF",
"F  c #B385FF",
"G  c #B289FF",
"H  c #B493FF",
"J  c #BA96FF",
"K  c #BB9BFF",
"L  c #BFA3FF",
"P  c #C282E9",
"I  c #C78AED",
"U  c #C88FEB",
"Y  c #CA82F5",
"T  c #C78DF5",
"R  c #C88DF2",
"E  c #D597FA",
"W  c #C0A4FF",
"Q  c #C4ACFF",
"!  c #C8AFFF",
"~  c #D7ACF1",
"^  c #D3AAFF",
"/  c #C6B0FF",
"(  c #C9B3FF",
")  c #CDBBFF",
"_  c #D2B3FF",
"`  c #D2BCFF",
"'  c #E7B5FF",
"]  c #E5B9FF",
"[  c #CACACA",
"{  c #D2C0FF",
"}  c #E3C6F5",
"|  c #E4C6F9",
" . c #F2CAFF",
".. c #EAD4F8",
"X. c #FAD9FF",
"o. c #F3E7FC",
"O. c #F9F0FD",
"+. c #FFFFFF",
"@. c None",
/* pixels */
"@.@.@.@.@.@.@.@.@.@.@.@.@.@.@.@.@.@.@.@.@.@.@.@.@.@.@.@.@.@.@.@.@.@.@.@.@.@.@.@.@.@.@.@.@.@.@.@.@.@.",
"@.@.@.@.@.@.@.@.@.@.@.@.@.@.@.@.@.@.@.@.@.@.@.@.@.@.@.@.@.@.@.@.@.@.@.@.@.@.@.@.@.@.@.@.@.@.@.@.@.@.",
"@.@.@.@.@.@.@.@.@.@.@.@.@.@.@.@.@.@.@.@.@.@.@.@.@.@.@.@.@.@.@.@.@.@.@.@.@.@.@.@.@.@.@.@.@.@.@.@.@.@.",
"@.@.@.@.@.@.@.@.@.@.@.@.@.@.@.@.@.@.@.@.@.@.@.@.@.@.@.@.@.@.@.@.@.@.@.@.@.@.@.@.@.@.@.@.@.@.@.@.@.@.",
"@.@.@.@.@.@.@.@.@.@.@.@.@.@.@.@.@.@.@.@.@.@.@.@.@.@.@.@.@.@.@.@.@.@.@.@.@.@.@.@.@.@.@.@.@.@.@.@.@.@.",
"@.@.@.@.@.@.@.@.@.@.@.@.@.@.@.@.@.@.@.@.@.@.@.@.@.@.@.@.@.@.@.@.@.@.@.@.@.@.@.@.@.@.@.@.@.@.@.@.@.@.",
"@.@.@.@.@.@.@.@.@.@.@.@.@.@.@.@.@.@.@.@.@.@.@.@.@.@.@.@.@.@.@.@.@.@.@.@.@.@.@.@.@.@.@.@.@.@.@.@.@.@.",
"@.@.@.@.@.@.@.@.@.@.@.@.@.@.@.@.@.@.@.@.@.@.@.@.@.@.@.@.@.@.@.@.@.@.@.@.@.@.@.@.@.@.@.@.@.@.@.@.@.@.",
"@.@.@.@.@.@.@.@.@.@.@.@.@.@.@.@.@.@.@.^ _ _ ` ` ` ` ` ` _ ^ ^ @.@.@.@.@.@.@.@.@.@.@.@.@.@.@.@.@.@.@.",
"@.@.@.@.@.@.@.@.@.@.@.@.@.@.@.@.^ _ ` { L H V m s d B G W Q ` ` ^ @.@.@.@.@.@.@.@.@.@.@.@.@.@.@.@.@.",
"@.@.@.@.@.@.@.@.@.@.@.@.@.@.@.^ ` W G i > O O O O @ O O O q m / L _ ^ @.@.@.@.@.@.@.@.@.@.@.@.@.@.@.",
"@.@.@.@.@.@.@.@.@.@.@.@.@.^ ^ { Q e O O f Y ] X.O.X.' Y f O O O N ( ` ^ @.@.@.@.@.@.@.@.@.@.@.@.@.@.",
"@.@.@.@.@.@.@.@.@.@.@.@.^ _ Q G # O & S  .X.X.X.X.X.X.X. .S & O O w L ` ^ @.@.@.@.@.@.@.@.@.@.@.@.@.",
"@.@.@.@.@.@.@.@.@.@.@.@.^ L M O O % A ] ] ] ] ] ] ] ] ] ] ] A % O O q ( ` ^ @.@.@.@.@.@.@.@.@.@.@.@.",
"@.@.@.@.@.@.@.@.@.@.@.^ ` G O O O g E E E E E E E E E E E E E g O O O w W _ @.@.@.@.@.@.@.@.@.@.@.@.",
"@.@.@.@.@.@.@.@.@.@.^ ` / , O O O l A A A A A A A A A A A A A l O O O O a { ^ @.@.@.@.@.@.@.@.@.@.@.",
"@.@.@.@.@.@.@.@.@.@._ / e O O O O j k k k k k k k k k k k k k j O O O O @ J ` ^ @.@.@.@.@.@.@.@.@.@.",
"@.@.@.@.@.@.@.@.@.^ ` J O O O O O * t t t t t t t t t t t t t * O O O O @ w ) ^ @.@.@.@.@.@.@.@.@.@.",
"@.@.@.@.@.@.@.@.@.^ L e O O O O O # % % % % $ & % % % % % % % # O O O O O O H ` ^ @.@.@.@.@.@.@.@.@.",
"@.@.@.@.@.@.@.@.@.` J O O O O O O O O O O O O O O O O O O O O O O O O O O O r Q ^ @.@.@.@.@.@.@.@.@.",
"@.@.@.@.@.@.@.@.^ ` a @ O O b y O O O O O O O O O O O O O O O O O @ ~ n O O O Q _ @.@.@.@.@.@.@.@.@.",
"@.@.@.@.@.@.@.@.^ Q , O @ f o.+.P O O O O O O O O O O O O O O O = ..+.o.u O O N ` ^ @.@.@.@.@.@.@.@.",
"@.@.@.@.@.@.@.@.` H O O O U +.+.+.} = O O O O O O O O O O @ O v O.+.+.+.U @ O r ` ^ @.@.@.@.@.@.@.@.",
"@.@.@.@.@.@.@.^ ` m + O O } +.+.+.+.O.U $ O O O O O O O O = } +.+.+.+.+.} O O # Q _ @.@.@.@.@.@.@.@.",
"@.@.@.@.@.@.@.^ { e + + - O.+.+.+.+.+.+.O.I O + O O O + ~ +.+.+.+.+.+.+.O.O O O K _ @.@.@.@.@.@.@.@.",
"@.@.@.@.@.@.@.^ ( < - - - O.+.+.+.+.+.+.+.O.+ + + + + + O.+.+.+.+.+.+.+.O.O O O V ` @.@.@.@.@.@.@.@.",
"@.@.@.@.@.@.@._ Q : - - - | +.[ X   X [ +.| - - - - - - } +.[ X   X [ +.} + + + s ` ^ @.@.@.@.@.@.@.",
"@.@.@.@.@.@.@.` J : ; : : T +.X       X +.T : - - - - - R +.X       X +.R - - - e ` ^ @.@.@.@.@.@.@.",
"@.@.@.@.@.@.@.` D 2 2 1 2 z o.          o.z : : : : : : z o.          o.h - - - 5 { ^ @.@.@.@.@.@.@.",
"@.@.@.@.@.@.@.` M 1 1 1 2 2 Z X       X C 2 1 : ; : : 2 ; C X       X S - : : : : / ^ @.@.@.@.@.@.@.",
"@.@.@.@.@.@.@.` c 1 3 3 3 1 1 o .   . o 1 1 1 1 2 1 2 2 1 1 o .   . o 1 : 2 : ; ; Q _ @.@.@.@.@.@.@.",
"@.@.@.@.@.@.@.{ p 3 3 3 3 3 3 3 3 3 3 3 3 3 3 1 3 1 3 1 1 1 1 1 1 1 2 2 2 2 2 1 1 W _ @.@.@.@.@.@.@.",
"@.@.@.@.@.@.@.{ r 3 3 3 3 3 3 3 3 3 3 3 3 3 3 3 3 3 3 3 3 3 3 3 3 1 3 1 1 4 1 3 1 K _ @.@.@.@.@.@.@.",
"@.@.@.@.@.@.@.{ r 3 3 3 3 3 3 3 3 3 3 3 3 3 3 3 3 3 3 3 3 3 3 3 3 3 3 3 3 3 3 3 3 K _ @.@.@.@.@.@.@.",
"@.@.@.@.@.@.@.{ e 3 3 3 3 3 3 3 4 3 3 3 3 3 3 3 3 3 3 3 3 3 3 3 3 3 3 3 3 3 3 3 3 K ` @.@.@.@.@.@.@.",
"@.@.@.@.@.@.@.{ p 3 3 3 3 3 3 3 3 3 3 3 3 3 3 3 3 3 3 3 3 3 3 3 3 3 3 3 3 3 3 3 3 K ` @.@.@.@.@.@.@.",
"@.@.@.@.@.@.@.` a 3 6 3 3 3 3 3 3 3 3 4 3 3 3 4 3 3 3 3 3 3 3 3 3 3 3 3 3 3 3 3 4 W _ @.@.@.@.@.@.@.",
"@.@.@.@.@.@.@.{ x 8 6 7 6 6 6 7 6 6 3 6 3 6 3 3 3 3 3 3 3 3 4 3 3 3 3 3 3 3 3 3 3 Q _ @.@.@.@.@.@.@.",
"@.@.@.@.@.@.@.{ M 8 8 9 9 8 8 8 9 J K c 8 6 7 7 3 6 6 6 6 8 s F a 3 3 3 3 3 3 3 4 Q _ @.@.@.@.@.@.@.",
"@.@.@.@.@.@.@.` W 9 9 9 9 9 9 N { ` ` ( J 0 9 8 8 8 8 8 r ) { ` Q ( d 8 6 7 6 6 6 ! _ @.@.@.@.@.@.@.",
"@.@.@.@.@.@.@.` / J e w 0 r J ! _ ^ ^ ^ ` ! a 9 9 9 9 B / ` ^ ^ ^ _ / F 9 7 8 8 J ` @.@.@.@.@.@.@.@.",
"@.@.@.@.@.@.@.@._ ` ! m V / { ^ ^ ^ ^ ^ ^ ` ` F r r J / _ ^ ^ ^ ^ ^ _ ` ( V x W { ^ @.@.@.@.@.@.@.@.",
"@.@.@.@.@.@.@.@.@.@.` { ` ` ^ @.@.@.@.@.@.^ _ ` { { ` _ ^ @.@.@.@.@.@.^ ` ` { { @.@.@.@.@.@.@.@.@.@.",
"@.@.@.@.@.@.@.@.@.@.@.@.@.@.@.@.@.@.@.@.@.@.@.@.@.@.@.@.@.@.@.@.@.@.@.@.@.@.@.@.@.@.@.@.@.@.@.@.@.@.",
"@.@.@.@.@.@.@.@.@.@.@.@.@.@.@.@.@.@.@.@.@.@.@.@.@.@.@.@.@.@.@.@.@.@.@.@.@.@.@.@.@.@.@.@.@.@.@.@.@.@.",
"@.@.@.@.@.@.@.@.@.@.@.@.@.@.@.@.@.@.@.@.@.@.@.@.@.@.@.@.@.@.@.@.@.@.@.@.@.@.@.@.@.@.@.@.@.@.@.@.@.@.",
"@.@.@.@.@.@.@.@.@.@.@.@.@.@.@.@.@.@.@.@.@.@.@.@.@.@.@.@.@.@.@.@.@.@.@.@.@.@.@.@.@.@.@.@.@.@.@.@.@.@.",
"@.@.@.@.@.@.@.@.@.@.@.@.@.@.@.@.@.@.@.@.@.@.@.@.@.@.@.@.@.@.@.@.@.@.@.@.@.@.@.@.@.@.@.@.@.@.@.@.@.@.",
"@.@.@.@.@.@.@.@.@.@.@.@.@.@.@.@.@.@.@.@.@.@.@.@.@.@.@.@.@.@.@.@.@.@.@.@.@.@.@.@.@.@.@.@.@.@.@.@.@.@.",
"@.@.@.@.@.@.@.@.@.@.@.@.@.@.@.@.@.@.@.@.@.@.@.@.@.@.@.@.@.@.@.@.@.@.@.@.@.@.@.@.@.@.@.@.@.@.@.@.@.@."
};
