/* XPM */
static char *enemy_down[] = {
/* columns rows colors chars-per-pixel */
"50 50 99 2 ",
"   c #535353",
".  c #68636D",
"X  c gray43",
"o  c #9566BE",
"O  c #8A0ED5",
"+  c #8A0CDB",
"@  c #8C14D7",
"#  c #8D15D9",
"$  c #9019D7",
"%  c #931FDA",
"&  c #9627DB",
"*  c #9B2FDE",
"=  c #9C33DB",
"-  c #890AE4",
";  c #870AEE",
":  c #890AEC",
">  c #8C16E1",
",  c #8F1FE7",
"<  c #8E10EE",
"1  c #860AF3",
"2  c #880AF3",
"3  c #860AFE",
"4  c #880BFF",
"5  c #8B18F5",
"6  c #8713FF",
"7  c #8816FF",
"8  c #891AFF",
"9  c #8B23FF",
"0  c #8F2EFF",
"q  c #9126F1",
"w  c #922DFA",
"e  c #9433FE",
"r  c #963BFF",
"t  c #A038E1",
"y  c #A647DF",
"u  c #A74ADF",
"i  c #9641FF",
"p  c #9A4BFF",
"a  c #9D52FF",
"s  c #9E59FF",
"d  c #A846E5",
"f  c #AC4EE5",
"g  c #A647EE",
"h  c #AF52E8",
"j  c #B055E7",
"k  c #B45BEB",
"l  c #A547F2",
"z  c #A05AFF",
"x  c #B566E4",
"c  c #BA71E6",
"v  c #BF7CE8",
"b  c #A265FF",
"n  c #A56BFF",
"m  c #A96EFF",
"M  c #A774FF",
"N  c #AD75FF",
"B  c #AA7BFF",
"V  c #BE79F5",
"C  c #BD79F8",
"Z  c #C474F1",
"A  c #C57AF2",
"S  c #AE84FF",
"D  c #B282FF",
"F  c #B289FF",
"G  c #B98FFF",
"H  c #B493FF",
"J  c #B995FF",
"K  c #BB9CFF",
"L  c #BEA4FF",
"P  c #C282E9",
"I  c #C78AED",
"U  c #C88FEB",
"Y  c #CA82F5",
"T  c #C78DF5",
"R  c #C88DF2",
"E  c #D597FA",
"W  c #C1A5FF",
"Q  c #C4ACFF",
"!  c #C8AFFF",
"~  c #D7ACF1",
"^  c #D3AAFF",
"/  c #C6B1FF",
"(  c #C9B4FF",
")  c #CCBBFF",
"_  c #D3B3FF",
"`  c #D2BCFF",
"'  c #E7B5FF",
"]  c #E5B9FF",
"[  c #CACACA",
"{  c #D2C0FF",
"}  c #E3C6F5",
"|  c #E4C6F9",
" . c #F2CAFF",
".. c #EAD4F8",
"X. c #FAD9FF",
"o. c #F3E7FC",
"O. c #F9F0FD",
"+. c #FFFFFF",
"@. c None",
/* pixels */
"@.@.@.@.@.@.@.@.@.@.@.@.@.@.@.@.@.@.@.@.@.@.@.@.@.@.@.@.@.@.@.@.@.@.@.@.@.@.@.@.@.@.@.@.@.@.@.@.@.@.",
"@.@.@.@.@.@.@.@.@.@.@.@.@.@.@.@.@.@.@.@.@.@.@.@.@.@.@.@.@.@.@.@.@.@.@.@.@.@.@.@.@.@.@.@.@.@.@.@.@.@.",
"@.@.@.@.@.@.@.@.@.@.@.@.@.@.@.@.@.@.@.@.@.@.@.@.@.@.@.@.@.@.@.@.@.@.@.@.@.@.@.@.@.@.@.@.@.@.@.@.@.@.",
"@.@.@.@.@.@.@.@.@.@.@.@.@.@.@.@.@.@.@.@.@.@.@.@.@.@.@.@.@.@.@.@.@.@.@.@.@.@.@.@.@.@.@.@.@.@.@.@.@.@.",
"@.@.@.@.@.@.@.@.@.@.@.@.@.@.@.@.@.@.@.@.@.@.@.@.@.@.@.@.@.@.@.@.@.@.@.@.@.@.@.@.@.@.@.@.@.@.@.@.@.@.",
"@.@.@.@.@.@.@.@.@.@.@.@.@.@.@.@.@.@.@.@.@.@.@.@.@.@.@.@.@.@.@.@.@.@.@.@.@.@.@.@.@.@.@.@.@.@.@.@.@.@.",
"@.@.@.@.@.@.@.@.@.@.@.@.@.@.@.@.@.@.@.@.@.@.@.@.@.@.@.@.@.@.@.@.@.@.@.@.@.@.@.@.@.@.@.@.@.@.@.@.@.@.",
"@.@.@.@.@.@.@.@.@.@.@.@.@.@.@.@.@.@.@.@.@.@.@.@.@.@.@.@.@.@.@.@.@.@.@.@.@.@.@.@.@.@.@.@.@.@.@.@.@.@.",
"@.@.@.@.@.@.@.@.@.@.@.@.@.@.@.@.@.@.@.^ _ ` ` ` ` ` ` ` _ ^ ^ @.@.@.@.@.@.@.@.@.@.@.@.@.@.@.@.@.@.@.",
"@.@.@.@.@.@.@.@.@.@.@.@.@.@.@.@.^ _ ` { L H B b a s M F W Q ` ` ^ @.@.@.@.@.@.@.@.@.@.@.@.@.@.@.@.@.",
"@.@.@.@.@.@.@.@.@.@.@.@.@.@.@.^ ` L F r > O O O @ O O O O q b ( L _ ^ @.@.@.@.@.@.@.@.@.@.@.@.@.@.@.",
"@.@.@.@.@.@.@.@.@.@.@.@.@.^ ^ ` Q r O O d Y ] X.O.X.' Y d O O O M ( ` ^ @.@.@.@.@.@.@.@.@.@.@.@.@.@.",
"@.@.@.@.@.@.@.@.@.@.@.@.^ _ Q F + O & A  .X.X.X.X.X.X.X. .A & O O w L ` ^ @.@.@.@.@.@.@.@.@.@.@.@.@.",
"@.@.@.@.@.@.@.@.@.@.@.@.^ L n O O % Z ] ] ] ' ' ] ] ] ] ] ] Z % O O q ( ` ^ @.@.@.@.@.@.@.@.@.@.@.@.",
"@.@.@.@.@.@.@.@.@.@.@.^ ` F O O O f E E E E E E E E E E E E E f O O O w W _ @.@.@.@.@.@.@.@.@.@.@.@.",
"@.@.@.@.@.@.@.@.@.@.^ ` / , O O O k Z Z Z Z Z Z Z Z Z Z Z Z Z k O O O O p { ^ @.@.@.@.@.@.@.@.@.@.@.",
"@.@.@.@.@.@.@.@.@.@.^ ( e O O O O h j j j j j j j j j j j j j j O O O O @ J ` ^ @.@.@.@.@.@.@.@.@.@.",
"@.@.@.@.@.@.@.@.@.^ ` J O O O O O * t t t t t t t t t = t t t * O O O O @ w { ^ @.@.@.@.@.@.@.@.@.@.",
"@.@.@.@.@.@.@.@.@.^ W e O O O O O # % % % % % % % % % % % % % # O O O O O O J ` ^ @.@.@.@.@.@.@.@.@.",
"@.@.@.@.@.@.@.@.@.` J O O O O O O O O O O O O O O O O O O O O O O O O O O O r W ^ @.@.@.@.@.@.@.@.@.",
"@.@.@.@.@.@.@.@.^ ` p @ O O c y O O O O O O O O O O O O O O O O O @ ~ v O O O Q _ @.@.@.@.@.@.@.@.@.",
"@.@.@.@.@.@.@.@.^ Q , O O y o.+.P O O O O O O O O O O O O O O O = ..+.o.u O O M ` ^ @.@.@.@.@.@.@.@.",
"@.@.@.@.@.@.@.@.` H O O O U +.+.+.} = @ O O O O O O O O O @ O x O.+.+.+.U O O r ` ^ @.@.@.@.@.@.@.@.",
"@.@.@.@.@.@.@.^ ` b + O + } +.+.+.+.O.U $ O O O O O O O O = } +.+.+.+.+.} O O # Q _ @.@.@.@.@.@.@.@.",
"@.@.@.@.@.@.@.^ { r + + - O.+.+.+.+.+.+.O.I + + O O + O ~ +.+.+.+.+.+.+.O.O O O J ` @.@.@.@.@.@.@.@.",
"@.@.@.@.@.@.@.^ ( : - - - O.+.+.+.+.+.+.+.O.+ + + + + + O.+.+.+.+.+.+.+.O.O O + B ` @.@.@.@.@.@.@.@.",
"@.@.@.@.@.@.@._ Q : - - - | +.[ X   X [ +.| - - - - - - } +.[ X   X [ +.| + + + a ` ^ @.@.@.@.@.@.@.",
"@.@.@.@.@.@.@.` J ; ; : : T +.X       X +.T - - - - - - T +.X       X +.R - - + r ` ^ @.@.@.@.@.@.@.",
"@.@.@.@.@.@.@.` S 2 2 1 2 l o.          o.l ; : : : : : g o.          o.g - - - 5 ` ^ @.@.@.@.@.@.@.",
"@.@.@.@.@.@.@.` n 1 1 1 2 1 C X       X V 2 ; 2 ; ; : ; ; V X       X V - : : : : Q ^ @.@.@.@.@.@.@.",
"@.@.@.@.@.@.@.` z 1 3 1 3 1 1 o .   . o 3 2 1 2 2 2 ; 2 1 ; o .   . o 2 ; ; : : ; Q _ @.@.@.@.@.@.@.",
"@.@.@.@.@.@.@.{ p 3 3 3 3 3 3 1 3 3 3 3 1 3 1 3 3 1 3 1 3 3 1 1 1 2 2 2 2 2 1 1 1 W _ @.@.@.@.@.@.@.",
"@.@.@.@.@.@.@.` i 3 3 3 3 3 3 3 3 3 3 3 3 3 3 3 3 3 3 3 3 3 3 3 3 1 3 3 1 4 1 1 1 K _ @.@.@.@.@.@.@.",
"@.@.@.@.@.@.@.{ r 3 3 3 3 3 3 3 3 3 3 3 3 3 3 3 3 3 3 3 3 3 3 3 1 3 3 3 3 4 3 3 3 K _ @.@.@.@.@.@.@.",
"@.@.@.@.@.@.@.{ r 3 3 3 3 3 3 3 3 3 3 3 3 3 3 3 3 3 3 3 3 3 3 3 3 3 3 3 3 3 3 3 3 K _ @.@.@.@.@.@.@.",
"@.@.@.@.@.@.@.{ r 3 3 3 3 3 3 3 3 3 3 3 3 3 3 3 3 3 3 3 3 4 3 3 3 3 3 3 3 3 3 3 3 K ` @.@.@.@.@.@.@.",
"@.@.@.@.@.@.@.{ i 6 6 4 3 3 3 3 3 3 3 3 3 3 3 3 3 3 3 3 3 3 3 3 3 3 3 3 3 3 3 3 4 W ` @.@.@.@.@.@.@.",
"@.@.@.@.@.@.@.{ p 8 6 7 6 6 6 6 6 7 6 4 4 6 4 4 3 3 3 3 3 3 3 3 3 3 3 3 3 3 3 3 4 W _ @.@.@.@.@.@.@.",
"@.@.@.@.@.@.@.{ p 9 8 F ) ( m 8 8 8 8 6 8 8 p Q ) ) Q w 6 4 6 6 3 3 3 B Q ) H 3 3 ` ` @.@.@.@.@.@.@.",
"@.@.@.@.@.@.@.{ n a ( Q _ _ ( J 9 9 9 9 9 F ) ` ^ ^ ` ( z 7 8 7 6 6 ) / ` _ W ( r ` ` @.@.@.@.@.@.@.",
"@.@.@.@.@.@.@.{ G ( ` ^ ^ ^ ^ ` G w 0 r W ! ^ ^ ^ ^ ^ ` ( D 9 8 9 J ` ^ ^ ^ _ ` ) ` ` @.@.@.@.@.@.@.",
"@.@.@.@.@.@.@.` { ` @.^ ^ ^ ^ _ { G N ( ` ^ ^ ^ @.@.^ ^ _ ( ( W ) { ^ ^ ^ @.@.@.{ { ` @.@.@.@.@.@.@.",
"@.@.@.@.@.@.@.@.{ ` @.@.@.@.@.@.` ` ` ` ^ @.@.@.@.@.@.@.@.^ ` ` ` ^ @.@.@.@.@.@.{ { @.@.@.@.@.@.@.@.",
"@.@.@.@.@.@.@.@.@.@.@.@.@.@.@.@.@.@.@.@.@.@.@.@.@.@.@.@.@.@.@.@.@.@.@.@.@.@.@.@.@.@.@.@.@.@.@.@.@.@.",
"@.@.@.@.@.@.@.@.@.@.@.@.@.@.@.@.@.@.@.@.@.@.@.@.@.@.@.@.@.@.@.@.@.@.@.@.@.@.@.@.@.@.@.@.@.@.@.@.@.@.",
"@.@.@.@.@.@.@.@.@.@.@.@.@.@.@.@.@.@.@.@.@.@.@.@.@.@.@.@.@.@.@.@.@.@.@.@.@.@.@.@.@.@.@.@.@.@.@.@.@.@.",
"@.@.@.@.@.@.@.@.@.@.@.@.@.@.@.@.@.@.@.@.@.@.@.@.@.@.@.@.@.@.@.@.@.@.@.@.@.@.@.@.@.@.@.@.@.@.@.@.@.@.",
"@.@.@.@.@.@.@.@.@.@.@.@.@.@.@.@.@.@.@.@.@.@.@.@.@.@.@.@.@.@.@.@.@.@.@.@.@.@.@.@.@.@.@.@.@.@.@.@.@.@.",
"@.@.@.@.@.@.@.@.@.@.@.@.@.@.@.@.@.@.@.@.@.@.@.@.@.@.@.@.@.@.@.@.@.@.@.@.@.@.@.@.@.@.@.@.@.@.@.@.@.@.",
"@.@.@.@.@.@.@.@.@.@.@.@.@.@.@.@.@.@.@.@.@.@.@.@.@.@.@.@.@.@.@.@.@.@.@.@.@.@.@.@.@.@.@.@.@.@.@.@.@.@."
};
