/* XPM */
static char *enemy_left1[] = {
/* columns rows colors chars-per-pixel */
"50 50 107 2 ",
"   c #554E5A",
".  c #535353",
"X  c #726977",
"o  c #747474",
"O  c #79777C",
"+  c #7C7C7C",
"@  c #6D3391",
"#  c #8047A3",
"$  c #8A0ED5",
"%  c #8B0CDB",
"&  c #8C14D5",
"*  c #8D15DA",
"=  c #931FDA",
"-  c #9627DB",
";  c #9A2DDC",
":  c #9C33DC",
">  c #890AE4",
",  c #870AEC",
"<  c #890AEC",
"1  c #8C16E1",
"2  c #8F1FE7",
"3  c #8E10EE",
"4  c #860AF3",
"5  c #880AF2",
"6  c #860AFE",
"7  c #880BFF",
"8  c #8B18F5",
"9  c #8714FF",
"0  c #8815FF",
"q  c #891CFF",
"w  c #992AE4",
"e  c #8C24FF",
"r  c #8E2BFF",
"t  c #9126F1",
"y  c #932DF8",
"u  c #9334FE",
"i  c #953BFF",
"p  c #A038E1",
"a  c #A444DE",
"s  c #B376DA",
"d  c #9540FF",
"f  c #9944FF",
"g  c #9A4BFF",
"h  c #9D52FF",
"j  c #9E59FF",
"k  c #A441E0",
"l  c #A846E5",
"z  c #AC4EE5",
"x  c #A849EC",
"c  c #AF5AE2",
"v  c #AE55EB",
"b  c #B055E7",
"n  c #B057ED",
"m  c #B35AEA",
"M  c #A749F0",
"N  c #A057FF",
"B  c #A05AFF",
"V  c #B566E4",
"C  c #BC74E7",
"Z  c #BC73EA",
"A  c #A264FF",
"S  c #A56AFF",
"D  c #A774FF",
"F  c #AB71FF",
"G  c #AD7BFF",
"H  c #C27BED",
"J  c #C474F1",
"K  c #C57AF2",
"L  c #AE84FF",
"P  c #B385FF",
"I  c #B289FF",
"U  c #B493FF",
"Y  c #BA95FF",
"T  c #BB9CFF",
"R  c #BFA3FF",
"E  c #CE98EF",
"W  c #CA82F5",
"Q  c #D19FF6",
"!  c #D597FA",
"~  c #C1A4FF",
"^  c #CFA3FF",
"/  c #C4ACFF",
"(  c #C8AFFF",
")  c #D3AAFF",
"_  c #C6B0FF",
"`  c #C9B3FF",
"'  c #CDBBFF",
"]  c #DAB3F1",
"[  c #D2B3FF",
"{  c #D2BDFF",
"}  c #E7B5FF",
"|  c #E5B9FF",
" . c #D2C0FF",
".. c #D9C5FF",
"X. c #DACBFF",
"o. c #DED6F1",
"O. c #E2C3F5",
"+. c #E1C2F8",
"@. c #F2CAFF",
"#. c #EBD5FA",
"$. c #FAD9FF",
"%. c #EDE5FF",
"&. c #F1E1FB",
"*. c #F6F6F6",
"=. c #FCF2FE",
"-. c #FFFFFF",
";. c None",
/* pixels */
";.;.;.;.;.;.;.;.;.;.;.;.;.;.;.;.;.;.;.;.;.;.;.;.;.;.;.;.;.;.;.;.;.;.;.;.;.;.;.;.;.;.;.;.;.;.;.;.;.;.",
";.;.;.;.;.;.;.;.;.;.;.;.;.;.;.;.;.;.;.;.;.;.;.;.;.;.;.;.;.;.;.;.;.;.;.;.;.;.;.;.;.;.;.;.;.;.;.;.;.;.",
";.;.;.;.;.;.;.;.;.;.;.;.;.;.;.;.;.;.;.;.;.;.;.;.;.;.;.;.;.;.;.;.;.;.;.;.;.;.;.;.;.;.;.;.;.;.;.;.;.;.",
";.;.;.;.;.;.;.;.;.;.;.;.;.;.;.;.;.;.;.;.;.;.;.;.;.;.;.;.;.;.;.;.;.;.;.;.;.;.;.;.;.;.;.;.;.;.;.;.;.;.",
";.;.;.;.;.;.;.;.;.;.;.;.;.;.;.;.;.;.;.;.;.;.;.;.;.;.;.;.;.;.;.;.;.;.;.;.;.;.;.;.;.;.;.;.;.;.;.;.;.;.",
";.;.;.;.;.;.;.;.;.;.;.;.;.;.;.;.;.;.;.;.;.;.;.;.;.;.;.;.;.;.;.;.;.;.;.;.;.;.;.;.;.;.;.;.;.;.;.;.;.;.",
";.;.;.;.;.;.;.;.;.;.;.;.;.;.;.;.;.;.;.;.;.;.;.;.;.;.;.;.;.;.;.;.;.;.;.;.;.;.;.;.;.;.;.;.;.;.;.;.;.;.",
";.;.;.;.;.;.;.;.;.;.;.;.;.;.;.;.;.;.;.;.;.;.;.;.;.;.;.;.;.;.;.;.;.;.;.;.;.;.;.;.;.;.;.;.;.;.;.;.;.;.",
";.;.;.;.;.;.;.;.;.;.;.;.;.;.;.;.;.;.;.) ) { { { { { { { [ ) ) ;.;.;.;.;.;.;.;.;.;.;.;.;.;.;.;.;.;.;.",
";.;.;.;.;.;.;.;.;.;.;.;.;.;.;.;.) ) {  .R U G A h j D I ~ /  .[ ) ;.;.;.;.;.;.;.;.;.;.;.;.;.;.;.;.;.",
";.;.;.;.;.;.;.;.;.;.;.;.;.;.;.) { R I d 1 & $ $ $ & $ $ $ t A ` R ) ) ;.;.;.;.;.;.;.;.;.;.;.;.;.;.;.",
";.;.;.;.;.;.;.;.;.;.;.;.;.) )  ./ i $ $ l W } $.=.$.} W l $ $ $ D ` { ) ;.;.;.;.;.;.;.;.;.;.;.;.;.;.",
";.;.;.;.;.;.;.;.;.;.;.;.) [ / I % $ - J @.$.$.$.$.$.$.$.@.K - $ $ u R { ) ;.;.;.;.;.;.;.;.;.;.;.;.;.",
";.;.;.;.;.;.;.;.;.;.;.;.) R S $ $ - J | | | | | | | | | | | J = $ $ t ` { ) ;.;.;.;.;.;.;.;.;.;.;.;.",
";.;.;.;.;.;.;.;.;.;.;.) { I $ $ $ z ! ! ! ! ! ! ! ! ! ! ! ! ! z $ $ $ y ~ [ ;.;.;.;.;.;.;.;.;.;.;.;.",
";.;.;.;.;.;.;.;.;.;.) { _ 2 $ $ $ m J J J J J J J J J J J J J m & $ $ $ g  .) ;.;.;.;.;.;.;.;.;.;.;.",
";.;.;.;.;.;.;.;.;.;.) X.^ & $ $ $ v b b b b b b b b b b b b b H O.c $ $ & Y { ) ;.;.;.;.;.;.;.;.;.;.",
";.;.;.;.;.;.;.;.;.) ..%.-.#.: $ $ : p p p : p p p p p : p p E -.-.O.- $ $ y  .) ;.;.;.;.;.;.;.;.;.;.",
";.;.;.;.;.;.;.;.;.) X.-.-.-.=.V $ * = = = = = = - = = = k O.-.-.-.-.C $ $ $ Y { ) ;.;.;.;.;.;.;.;.;.",
";.;.;.;.;.;.;.;.;.{ o.o . o *.-.O.: $ $ $ $ $ $ $ $ & @ o *.-.-.-.-.] $ $ $ i ~ ) ;.;.;.;.;.;.;.;.;.",
";.;.;.;.;.;.;.;.) { O . . . O -.-.-.] a $ $ $ $ $ #   . . + -.-.-.-.&.$ $ $ & / [ ;.;.;.;.;.;.;.;.;.",
";.;.;.;.;.;.;.;.[ ~ . . . . . -.-.-.-.-.$ $ $ $ $ . . . . . -.-.-.-.-.$ $ $ $ D { ) ;.;.;.;.;.;.;.;.",
";.;.;.;.;.;.;.;.{ Y . . . . . -.-.-.-.&.$ $ $ $ $ . . . . . -.-.-.-.#.$ $ $ $ i  .) ;.;.;.;.;.;.;.;.",
";.;.;.;.;.;.;.) { S X . . . + -.-.-.-.] $ $ $ $ $ X . . . + -.-.-.-.] $ $ $ $ * / [ ;.;.;.;.;.;.;.;.",
";.;.;.;.;.;.;.)  .u s o . o *.-.-.-.-.Z % % % $ $ s o . o *.-.-.-.-.C $ $ $ $ $ Y { ;.;.;.;.;.;.;.;.",
";.;.;.;.;.;.;.) ` 3 w ..-.-.-.-.-.-.+.w > % % % % w O.-.-.-.-.-.-.O.; % % $ % $ G { ;.;.;.;.;.;.;.;.",
";.;.;.;.;.;.;.[ / > , n #.-.-.-.-.#.v > > > > > > > v #.-.-.-.-.#.c > % % % % % g ..) ;.;.;.;.;.;.;.",
";.;.;.;.;.;.;.{ Y < , < M Q &.&.Q M > < > > , > > > > x Q &.&.Q x > > > > % > > u { ) ;.;.;.;.;.;.;.",
";.;.;.;.;.;.;.{ L 5 5 , 5 , 5 < < , , , < < < < < < < < < > , > > , > > > > > > 8  .) ;.;.;.;.;.;.;.",
";.;.;.;.;.;.;.{ S 4 4 4 5 5 4 5 4 5 4 4 4 5 , 5 4 < < < , , , < < < , > < < < > < / ) ;.;.;.;.;.;.;.",
";.;.;.;.;.;.;.{ B 6 6 4 6 6 6 4 4 4 4 6 4 4 4 5 5 4 5 5 4 4 4 4 5 4 5 5 5 < < , , ~ [ ;.;.;.;.;.;.;.",
";.;.;.;.;.;.;. .f 6 6 6 6 6 6 6 6 6 6 6 6 4 6 6 4 6 6 4 4 6 4 4 4 4 5 5 5 5 4 4 4 ~ [ ;.;.;.;.;.;.;.",
";.;.;.;.;.;.;. .i 6 6 6 6 6 6 6 6 6 6 6 6 6 6 6 6 6 6 6 6 6 6 6 6 4 6 4 6 5 6 4 4 T [ ;.;.;.;.;.;.;.",
";.;.;.;.;.;.;. .i 6 6 6 6 6 6 6 6 6 6 6 6 6 6 6 6 6 6 6 6 6 6 6 6 6 6 6 6 6 6 6 6 T { ;.;.;.;.;.;.;.",
";.;.;.;.;.;.;. .u 6 7 6 6 6 6 6 7 6 6 6 6 6 6 6 6 6 6 6 6 6 6 6 6 6 6 6 6 6 6 6 6 T { ;.;.;.;.;.;.;.",
";.;.;.;.;.;.;. .f 6 6 6 6 6 6 6 6 6 6 6 6 6 6 6 6 6 6 6 6 6 6 6 6 6 6 6 6 6 6 6 6 T [ ;.;.;.;.;.;.;.",
";.;.;.;.;.;.;.{ g 6 9 6 6 6 6 6 6 6 6 7 6 6 6 7 6 6 6 6 6 6 6 6 6 6 6 6 6 6 6 6 7 ~ { ;.;.;.;.;.;.;.",
";.;.;.;.;.;.;. .j q 0 9 9 9 9 9 9 9 6 9 6 9 6 6 6 6 6 6 6 6 6 6 6 6 6 6 6 6 6 6 6 ~ [ ;.;.;.;.;.;.;.",
";.;.;.;.;.;.;. .S q q e e q q q e Y T B q 9 0 0 6 9 9 9 9 q j P g 6 6 9 6 6 6 6 7 / [ ;.;.;.;.;.;.;.",
";.;.;.;.;.;.;.{ ~ e e e e e e D {  .{ ` Y r e q q q q q i ' { { / ` j 0 9 9 9 9 9 ` ) ;.;.;.;.;.;.;.",
";.;.;.;.;.;.;.{ ` Y u r r i Y ( [ ) ) ) { / g e e e e F ` { ) ) ) [ ` P e q q q Y { ;.;.;.;.;.;.;.;.",
";.;.;.;.;.;.;.;.[ { ( A G `  .) ) ) ) ) ) { ' P i u Y ` [ ) ) ) ) ) [ { ( G N ~  .) ;.;.;.;.;.;.;.;.",
";.;.;.;.;.;.;.;.;.;.{  .{ { ) ;.;.;.;.;.;.) [ { .. .{ [ ) ;.;.;.;.;.;.) { {  .{ ;.;.;.;.;.;.;.;.;.;.",
";.;.;.;.;.;.;.;.;.;.;.;.;.;.;.;.;.;.;.;.;.;.;.;.;.;.;.;.;.;.;.;.;.;.;.;.;.;.;.;.;.;.;.;.;.;.;.;.;.;.",
";.;.;.;.;.;.;.;.;.;.;.;.;.;.;.;.;.;.;.;.;.;.;.;.;.;.;.;.;.;.;.;.;.;.;.;.;.;.;.;.;.;.;.;.;.;.;.;.;.;.",
";.;.;.;.;.;.;.;.;.;.;.;.;.;.;.;.;.;.;.;.;.;.;.;.;.;.;.;.;.;.;.;.;.;.;.;.;.;.;.;.;.;.;.;.;.;.;.;.;.;.",
";.;.;.;.;.;.;.;.;.;.;.;.;.;.;.;.;.;.;.;.;.;.;.;.;.;.;.;.;.;.;.;.;.;.;.;.;.;.;.;.;.;.;.;.;.;.;.;.;.;.",
";.;.;.;.;.;.;.;.;.;.;.;.;.;.;.;.;.;.;.;.;.;.;.;.;.;.;.;.;.;.;.;.;.;.;.;.;.;.;.;.;.;.;.;.;.;.;.;.;.;.",
";.;.;.;.;.;.;.;.;.;.;.;.;.;.;.;.;.;.;.;.;.;.;.;.;.;.;.;.;.;.;.;.;.;.;.;.;.;.;.;.;.;.;.;.;.;.;.;.;.;.",
";.;.;.;.;.;.;.;.;.;.;.;.;.;.;.;.;.;.;.;.;.;.;.;.;.;.;.;.;.;.;.;.;.;.;.;.;.;.;.;.;.;.;.;.;.;.;.;.;.;."
};
