/* XPM */
static char *enemy_left[] = {
/* columns rows colors chars-per-pixel */
"50 50 107 2 ",
"   c #554E5A",
".  c #535353",
"X  c #726977",
"o  c #747474",
"O  c #79777C",
"+  c #7C7C7C",
"@  c #6D3391",
"#  c #8047A3",
"$  c #8A0ED5",
"%  c #8B0CDB",
"&  c #8C14D5",
"*  c #8D15DA",
"=  c #931FDA",
"-  c #9627DB",
";  c #9A2DDC",
":  c #9C33DC",
">  c #890AE4",
",  c #870AEC",
"<  c #890AEC",
"1  c #8C16E1",
"2  c #8F1FE7",
"3  c #8E10EE",
"4  c #860AF3",
"5  c #880AF2",
"6  c #860AFE",
"7  c #880BFF",
"8  c #8B18F5",
"9  c #8713FF",
"0  c #8816FF",
"q  c #891AFF",
"w  c #992AE4",
"e  c #8B23FF",
"r  c #8F2EFF",
"t  c #9126F1",
"y  c #922DFA",
"u  c #9433FE",
"i  c #963BFF",
"p  c #A038E1",
"a  c #A444DE",
"s  c #B376DA",
"d  c #9641FF",
"f  c #9A4AFF",
"g  c #9D52FF",
"h  c #9E59FF",
"j  c #A441E0",
"k  c #A846E5",
"l  c #AC4EE5",
"z  c #A849EC",
"x  c #AF5AE2",
"c  c #AE55EB",
"v  c #B055E7",
"b  c #B057ED",
"n  c #B35AEA",
"m  c #A749F0",
"M  c #A05AFF",
"N  c #B566E4",
"B  c #BC74E7",
"V  c #BC73EA",
"C  c #A265FF",
"Z  c #A56BFF",
"A  c #A96EFF",
"S  c #A774FF",
"D  c #AD75FF",
"F  c #AA7BFF",
"G  c #C27BED",
"H  c #C474F1",
"J  c #C57AF2",
"K  c #AE84FF",
"L  c #B282FF",
"P  c #B289FF",
"I  c #B98FFF",
"U  c #B493FF",
"Y  c #B995FF",
"T  c #BC9DFF",
"R  c #BEA4FF",
"E  c #CE98EF",
"W  c #CA82F5",
"Q  c #D19FF6",
"!  c #D597FA",
"~  c #C1A5FF",
"^  c #CFA3FF",
"/  c #C4ACFF",
"(  c #C8AFFF",
")  c #D3AAFF",
"_  c #C6B1FF",
"`  c #C9B4FF",
"'  c #CCBBFF",
"]  c #DAB3F1",
"[  c #D3B3FF",
"{  c #D2BCFF",
"}  c #E7B5FF",
"|  c #E5B9FF",
" . c #D2C0FF",
".. c #D9C5FF",
"X. c #DACBFF",
"o. c #DED6F1",
"O. c #E2C3F5",
"+. c #E1C2F8",
"@. c #F2CAFF",
"#. c #EBD5FA",
"$. c #FAD9FF",
"%. c #EDE5FF",
"&. c #F1E1FB",
"*. c #F6F6F6",
"=. c #FCF2FE",
"-. c #FFFFFF",
";. c None",
/* pixels */
";.;.;.;.;.;.;.;.;.;.;.;.;.;.;.;.;.;.;.;.;.;.;.;.;.;.;.;.;.;.;.;.;.;.;.;.;.;.;.;.;.;.;.;.;.;.;.;.;.;.",
";.;.;.;.;.;.;.;.;.;.;.;.;.;.;.;.;.;.;.;.;.;.;.;.;.;.;.;.;.;.;.;.;.;.;.;.;.;.;.;.;.;.;.;.;.;.;.;.;.;.",
";.;.;.;.;.;.;.;.;.;.;.;.;.;.;.;.;.;.;.;.;.;.;.;.;.;.;.;.;.;.;.;.;.;.;.;.;.;.;.;.;.;.;.;.;.;.;.;.;.;.",
";.;.;.;.;.;.;.;.;.;.;.;.;.;.;.;.;.;.;.;.;.;.;.;.;.;.;.;.;.;.;.;.;.;.;.;.;.;.;.;.;.;.;.;.;.;.;.;.;.;.",
";.;.;.;.;.;.;.;.;.;.;.;.;.;.;.;.;.;.;.;.;.;.;.;.;.;.;.;.;.;.;.;.;.;.;.;.;.;.;.;.;.;.;.;.;.;.;.;.;.;.",
";.;.;.;.;.;.;.;.;.;.;.;.;.;.;.;.;.;.;.;.;.;.;.;.;.;.;.;.;.;.;.;.;.;.;.;.;.;.;.;.;.;.;.;.;.;.;.;.;.;.",
";.;.;.;.;.;.;.;.;.;.;.;.;.;.;.;.;.;.;.;.;.;.;.;.;.;.;.;.;.;.;.;.;.;.;.;.;.;.;.;.;.;.;.;.;.;.;.;.;.;.",
";.;.;.;.;.;.;.;.;.;.;.;.;.;.;.;.;.;.;.;.;.;.;.;.;.;.;.;.;.;.;.;.;.;.;.;.;.;.;.;.;.;.;.;.;.;.;.;.;.;.",
";.;.;.;.;.;.;.;.;.;.;.;.;.;.;.;.;.;.;.) ) { { { { { { { [ ) ) ;.;.;.;.;.;.;.;.;.;.;.;.;.;.;.;.;.;.;.",
";.;.;.;.;.;.;.;.;.;.;.;.;.;.;.;.) [ { { R U F C g h S P ~ / { { ) ;.;.;.;.;.;.;.;.;.;.;.;.;.;.;.;.;.",
";.;.;.;.;.;.;.;.;.;.;.;.;.;.;.) { R P d 1 & $ $ & $ $ $ $ t C _ R ) ) ;.;.;.;.;.;.;.;.;.;.;.;.;.;.;.",
";.;.;.;.;.;.;.;.;.;.;.;.;.) ) { / i $ $ k W } $.=.$.} W k $ $ $ S ` { ) ;.;.;.;.;.;.;.;.;.;.;.;.;.;.",
";.;.;.;.;.;.;.;.;.;.;.;.) [ / P % $ - J @.$.$.$.$.$.$.$.@.J - $ $ u R { ) ;.;.;.;.;.;.;.;.;.;.;.;.;.",
";.;.;.;.;.;.;.;.;.;.;.;.) R Z $ $ = H | | | | | | | | | | | H = $ $ t ` { ) ;.;.;.;.;.;.;.;.;.;.;.;.",
";.;.;.;.;.;.;.;.;.;.;.) { P $ $ $ l ! ! ! ! ! ! ! ! ! ! ! ! ! l $ $ $ y ~ [ ;.;.;.;.;.;.;.;.;.;.;.;.",
";.;.;.;.;.;.;.;.;.;.) { _ 2 $ $ $ n H H H H H H H H H H H H H n & $ $ $ f  .) ;.;.;.;.;.;.;.;.;.;.;.",
";.;.;.;.;.;.;.;.;.;.) X.^ & $ $ $ v v v v v v v v v v v v v v G O.x $ $ & Y { ) ;.;.;.;.;.;.;.;.;.;.",
";.;.;.;.;.;.;.;.;.) ..%.-.#.; $ $ ; p p p p p p p p p : p p E -.-.O.; $ $ y ' ) ;.;.;.;.;.;.;.;.;.;.",
";.;.;.;.;.;.;.;.;.) X.-.-.-.*.N $ * = = = = = = = = = = a O.-.-.-.-.B $ $ $ Y { ) ;.;.;.;.;.;.;.;.;.",
";.;.;.;.;.;.;.;.;.{ o.o . o *.-.O.: $ $ $ $ $ $ $ $ & @ o *.-.-.-.-.] $ $ $ i / ) ;.;.;.;.;.;.;.;.;.",
";.;.;.;.;.;.;.;.) { O . . . O -.-.-.] a $ $ $ $ $ #   . . + -.-.-.-.#.$ $ $ $ / [ ;.;.;.;.;.;.;.;.;.",
";.;.;.;.;.;.;.;.[ / . . . . . -.-.-.-.-.$ $ $ $ $ . . . . . -.-.-.-.-.$ $ $ $ S { ) ;.;.;.;.;.;.;.;.",
";.;.;.;.;.;.;.;.{ Y . . . . . -.-.-.-.&.$ $ $ $ $ . . . . . -.-.-.-.%.$ $ $ $ i { ) ;.;.;.;.;.;.;.;.",
";.;.;.;.;.;.;.) { C X . . . + -.-.-.-.] $ $ $ $ $ X . . . + -.-.-.-.] $ $ $ $ * / [ ;.;.;.;.;.;.;.;.",
";.;.;.;.;.;.;.)  .i s o . o *.-.-.-.-.V $ % % % $ s o . o *.-.-.-.-.B $ $ $ $ $ Y { ;.;.;.;.;.;.;.;.",
";.;.;.;.;.;.;.) ` < w | -.-.-.-.-.-.O.w > > % % % w O.-.-.-.-.-.-.O.; $ % $ $ % F { ;.;.;.;.;.;.;.;.",
";.;.;.;.;.;.;.[ / > , c #.-.-.-.-.#.b > > > > > > > c #.-.-.-.-.#.v % % % % % % g { ) ;.;.;.;.;.;.;.",
";.;.;.;.;.;.;.{ Y < , < m ^ &.&.Q m > < > > > > > > > z Q &.&.Q z > > > > > > % i { ) ;.;.;.;.;.;.;.",
";.;.;.;.;.;.;.{ K 5 5 4 5 5 5 5 < , , , < , < < < < < < < > , > > < > > > > > > 8 { ) ;.;.;.;.;.;.;.",
";.;.;.;.;.;.;.{ Z 4 4 4 5 5 4 4 4 5 4 4 4 5 , 5 4 < < < , , , < < < < < < < < < < / ) ;.;.;.;.;.;.;.",
";.;.;.;.;.;.;.{ M 4 6 4 4 6 4 4 4 4 4 6 4 4 4 5 5 4 5 5 4 4 4 4 5 5 5 5 < < , , , / [ ;.;.;.;.;.;.;.",
";.;.;.;.;.;.;. .f 6 6 6 6 6 6 6 6 6 6 6 6 4 6 6 4 6 6 4 4 6 4 4 4 4 5 4 4 4 4 4 4 ~ [ ;.;.;.;.;.;.;.",
";.;.;.;.;.;.;.{ d 6 6 6 6 6 6 6 6 6 6 6 6 6 6 6 6 6 6 6 6 6 6 6 6 4 6 4 6 4 4 6 4 T [ ;.;.;.;.;.;.;.",
";.;.;.;.;.;.;. .i 6 6 6 6 6 6 6 6 6 6 6 6 6 6 6 6 6 6 6 6 6 6 6 6 6 6 6 6 6 6 6 7 T { ;.;.;.;.;.;.;.",
";.;.;.;.;.;.;. .i 6 6 6 6 6 6 6 6 6 6 6 6 6 6 6 6 6 6 6 6 6 6 6 6 6 6 6 6 6 6 6 6 T { ;.;.;.;.;.;.;.",
";.;.;.;.;.;.;. .i 6 6 6 6 6 6 6 7 6 6 6 6 6 6 6 6 6 6 6 6 6 6 6 6 6 6 6 6 6 6 6 6 T [ ;.;.;.;.;.;.;.",
";.;.;.;.;.;.;. .d 9 9 7 6 6 6 6 6 6 6 6 6 6 6 7 6 6 7 6 6 6 6 6 6 6 6 6 6 6 7 6 7 T { ;.;.;.;.;.;.;.",
";.;.;.;.;.;.;. .f q 9 0 9 9 9 9 9 0 7 9 9 7 6 6 6 6 7 7 6 6 7 6 6 6 6 6 6 6 6 6 7 ~ [ ;.;.;.;.;.;.;.",
";.;.;.;.;.;.;. .f e q P { _ A q q q q 0 9 q f / ' ' ~ y 9 9 7 7 6 9 6 F / ' Y 6 7 { { ;.;.;.;.;.;.;.",
";.;.;.;.;.;.;. .C M ( / [ { _ Y e e e e e P ' { ) ) { _ h q q q 9 9 ` ` ' [ R _ i { { ;.;.;.;.;.;.;.",
";.;.;.;.;.;.;. .I ' { ) ) ) ) { I y e d ~ / [ ) ) ) ) [ { F e q e Y { ) ) ) [ {  .{ { ;.;.;.;.;.;.;.",
";.;.;.;.;.;.;. .{ { ;.) ) ) ) )  .I D ' { ) ) ) ;.;.) ) [ ' _ ~ '  .) ) ) ;.;.;. . .{ ;.;.;.;.;.;.;.",
";.;.;.;.;.;.;.;. .{ ;.;.;.;.;.;.{ { { { ) ;.;.;.;.;.;.;.;.) { { { ) ;.;.;.;.;.;. . .;.;.;.;.;.;.;.;.",
";.;.;.;.;.;.;.;.;.;.;.;.;.;.;.;.;.;.;.;.;.;.;.;.;.;.;.;.;.;.;.;.;.;.;.;.;.;.;.;.;.;.;.;.;.;.;.;.;.;.",
";.;.;.;.;.;.;.;.;.;.;.;.;.;.;.;.;.;.;.;.;.;.;.;.;.;.;.;.;.;.;.;.;.;.;.;.;.;.;.;.;.;.;.;.;.;.;.;.;.;.",
";.;.;.;.;.;.;.;.;.;.;.;.;.;.;.;.;.;.;.;.;.;.;.;.;.;.;.;.;.;.;.;.;.;.;.;.;.;.;.;.;.;.;.;.;.;.;.;.;.;.",
";.;.;.;.;.;.;.;.;.;.;.;.;.;.;.;.;.;.;.;.;.;.;.;.;.;.;.;.;.;.;.;.;.;.;.;.;.;.;.;.;.;.;.;.;.;.;.;.;.;.",
";.;.;.;.;.;.;.;.;.;.;.;.;.;.;.;.;.;.;.;.;.;.;.;.;.;.;.;.;.;.;.;.;.;.;.;.;.;.;.;.;.;.;.;.;.;.;.;.;.;.",
";.;.;.;.;.;.;.;.;.;.;.;.;.;.;.;.;.;.;.;.;.;.;.;.;.;.;.;.;.;.;.;.;.;.;.;.;.;.;.;.;.;.;.;.;.;.;.;.;.;.",
";.;.;.;.;.;.;.;.;.;.;.;.;.;.;.;.;.;.;.;.;.;.;.;.;.;.;.;.;.;.;.;.;.;.;.;.;.;.;.;.;.;.;.;.;.;.;.;.;.;."
};
