/* XPM */
static char *enemy_right[] = {
/* columns rows colors chars-per-pixel */
"50 50 105 2 ",
"   c #554E5A",
".  c #535353",
"X  c #726977",
"o  c #747474",
"O  c #78757B",
"+  c #7C7C7C",
"@  c #6D3391",
"#  c #8047A3",
"$  c #8A0ED5",
"%  c #8A0CDB",
"&  c #8C15D4",
"*  c #8D15DA",
"=  c #931FDA",
"-  c #9627DB",
";  c #9A2EDC",
":  c #9C33DC",
">  c #890AE5",
",  c #870AED",
"<  c #890AEC",
"1  c #8C16E1",
"2  c #8F1FE7",
"3  c #8E10EE",
"4  c #860AF3",
"5  c #880AF2",
"6  c #860AFE",
"7  c #880BFF",
"8  c #8B18F5",
"9  c #8713FF",
"0  c #8816FF",
"q  c #891AFF",
"w  c #9A2BE3",
"e  c #8B23FF",
"r  c #8F2EFF",
"t  c #9126F1",
"y  c #922DFC",
"u  c #9433FE",
"i  c #953BFF",
"p  c #A038E1",
"a  c #A444DE",
"s  c #B277D7",
"d  c #B376D8",
"f  c #9641FF",
"g  c #9A4BFF",
"h  c #9D52FF",
"j  c #9E59FF",
"k  c #A441E0",
"l  c #A846E5",
"z  c #AC4EE5",
"x  c #A749ED",
"c  c #A849EC",
"v  c #AF59E5",
"b  c #AF56EB",
"n  c #B055E7",
"m  c #B45BEB",
"M  c #A05AFF",
"N  c #B566E4",
"B  c #BC74E7",
"V  c #BD74EA",
"C  c #A265FF",
"Z  c #A56BFF",
"A  c #A96EFF",
"S  c #A774FF",
"D  c #AD75FF",
"F  c #AA7BFF",
"G  c #C27BED",
"H  c #C474F1",
"J  c #C57AF2",
"K  c #AE84FF",
"L  c #B282FF",
"P  c #B289FF",
"I  c #B98FFF",
"U  c #B493FF",
"Y  c #B995FF",
"T  c #BB9CFF",
"R  c #BEA4FF",
"E  c #CA92ED",
"W  c #CE98EF",
"Q  c #CA82F5",
"!  c #D19FF5",
"~  c #D597FA",
"^  c #C1A5FF",
"/  c #C4ACFF",
"(  c #C8AFFF",
")  c #D3AAFF",
"_  c #C6B1FF",
"`  c #C9B4FF",
"'  c #CCBAFF",
"]  c #DAB3F2",
"[  c #D5BDF1",
"{  c #D3B3FF",
"}  c #D2BCFF",
"|  c #E7B5FF",
" . c #E5B9FF",
".. c #D2C1FF",
"X. c #E2C3F5",
"o. c #E2C2F8",
"O. c #E4CAFD",
"+. c #F2CAFF",
"@. c #EBD5FA",
"#. c #FAD9FF",
"$. c #F0E1FB",
"%. c #F6F6F6",
"&. c #FCF2FE",
"*. c #FFFFFF",
"=. c None",
/* pixels */
"=.=.=.=.=.=.=.=.=.=.=.=.=.=.=.=.=.=.=.=.=.=.=.=.=.=.=.=.=.=.=.=.=.=.=.=.=.=.=.=.=.=.=.=.=.=.=.=.=.=.",
"=.=.=.=.=.=.=.=.=.=.=.=.=.=.=.=.=.=.=.=.=.=.=.=.=.=.=.=.=.=.=.=.=.=.=.=.=.=.=.=.=.=.=.=.=.=.=.=.=.=.",
"=.=.=.=.=.=.=.=.=.=.=.=.=.=.=.=.=.=.=.=.=.=.=.=.=.=.=.=.=.=.=.=.=.=.=.=.=.=.=.=.=.=.=.=.=.=.=.=.=.=.",
"=.=.=.=.=.=.=.=.=.=.=.=.=.=.=.=.=.=.=.=.=.=.=.=.=.=.=.=.=.=.=.=.=.=.=.=.=.=.=.=.=.=.=.=.=.=.=.=.=.=.",
"=.=.=.=.=.=.=.=.=.=.=.=.=.=.=.=.=.=.=.=.=.=.=.=.=.=.=.=.=.=.=.=.=.=.=.=.=.=.=.=.=.=.=.=.=.=.=.=.=.=.",
"=.=.=.=.=.=.=.=.=.=.=.=.=.=.=.=.=.=.=.=.=.=.=.=.=.=.=.=.=.=.=.=.=.=.=.=.=.=.=.=.=.=.=.=.=.=.=.=.=.=.",
"=.=.=.=.=.=.=.=.=.=.=.=.=.=.=.=.=.=.=.=.=.=.=.=.=.=.=.=.=.=.=.=.=.=.=.=.=.=.=.=.=.=.=.=.=.=.=.=.=.=.",
"=.=.=.=.=.=.=.=.=.=.=.=.=.=.=.=.=.=.=.=.=.=.=.=.=.=.=.=.=.=.=.=.=.=.=.=.=.=.=.=.=.=.=.=.=.=.=.=.=.=.",
"=.=.=.=.=.=.=.=.=.=.=.=.=.=.=.=.=.=.=.) { } } } } } } } { ) ) =.=.=.=.=.=.=.=.=.=.=.=.=.=.=.=.=.=.=.",
"=.=.=.=.=.=.=.=.=.=.=.=.=.=.=.=.) { } } R U F C h j S P ^ / } } ) =.=.=.=.=.=.=.=.=.=.=.=.=.=.=.=.=.",
"=.=.=.=.=.=.=.=.=.=.=.=.=.=.=.) } R P f 1 $ $ $ & $ $ $ $ t C _ ^ ) ) =.=.=.=.=.=.=.=.=.=.=.=.=.=.=.",
"=.=.=.=.=.=.=.=.=.=.=.=.=.) ) } / i $ $ l Q | #.&.#.| Q l $ $ $ S ` } ) =.=.=.=.=.=.=.=.=.=.=.=.=.=.",
"=.=.=.=.=.=.=.=.=.=.=.=.) { / P % $ - J +.#.#.#.#.#.#.#.+.J - $ $ u R } ) =.=.=.=.=.=.=.=.=.=.=.=.=.",
"=.=.=.=.=.=.=.=.=.=.=.=.) R Z $ $ = H  . . . . .|  . . . . .H = $ $ t _ } ) =.=.=.=.=.=.=.=.=.=.=.=.",
"=.=.=.=.=.=.=.=.=.=.=.) } P $ $ $ z ~ ~ ~ ~ ~ ~ ~ ~ ~ ~ ~ ~ ~ z $ $ $ y ^ { =.=.=.=.=.=.=.=.=.=.=.=.",
"=.=.=.=.=.=.=.=.=.=.) } _ 2 $ $ & m H H H H H H H H H H H H H m $ $ $ $ g ..) =.=.=.=.=.=.=.=.=.=.=.",
"=.=.=.=.=.=.=.=.=.=.) _ u $ $ v X.G n n n n n n n n n n n n n n $ $ $ & E ' } ) =.=.=.=.=.=.=.=.=.=.",
"=.=.=.=.=.=.=.=.=.) } Y $ $ ; X.*.*.W p p : p p p p p p p p p ; $ $ ; @.*.O...) =.=.=.=.=.=.=.=.=.=.",
"=.=.=.=.=.=.=.=.=.) R u $ $ B *.*.*.*.X.a = = = = = = = = - = * $ N &.*.*.*...} ) =.=.=.=.=.=.=.=.=.",
"=.=.=.=.=.=.=.=.=.} T $ $ $ ] *.*.*.*.%.o @ $ $ $ $ $ $ $ $ $ : X.*.%.o . o [ / ) =.=.=.=.=.=.=.=.=.",
"=.=.=.=.=.=.=.=.) } g $ $ $ @.*.*.*.*.+ . .   # $ $ $ $ $ a ] *.*.*.+ . . . O _ { =.=.=.=.=.=.=.=.=.",
"=.=.=.=.=.=.=.=.{ / 2 $ $ $ *.*.*.*.*.. . . . . $ $ $ $ $ &.*.*.*.*.. . . . . S } ) =.=.=.=.=.=.=.=.",
"=.=.=.=.=.=.=.=.} U $ $ $ $ $.*.*.*.*.. . . . . $ $ $ $ $ $.*.*.*.*.. . . . . i ..) =.=.=.=.=.=.=.=.",
"=.=.=.=.=.=.=.) } C % $ $ % ] *.*.*.*.+ . . . X $ $ $ $ $ ] *.*.*.*.+ . . . X * / { =.=.=.=.=.=.=.=.",
"=.=.=.=.=.=.=.) } u % % > % V *.*.*.*.%.o . o d $ $ % $ $ B *.*.*.*.%.o . o s $ Y } =.=.=.=.=.=.=.=.",
"=.=.=.=.=.=.=.) ` 3 > > > > w o.*.*.*.*.*.*.o.w % % % % % w X.*.*.*.*.*.*.X.; $ F } =.=.=.=.=.=.=.=.",
"=.=.=.=.=.=.=.{ / < > > > > > b @.*.*.*.*.@.b > > > > > % > b @.*.*.*.*.@.v % % h } ) =.=.=.=.=.=.=.",
"=.=.=.=.=.=.=.} Y < , < > , , < x ! $.$.! x > > > > > > > > > c ! $.$.! c > > > i } ) =.=.=.=.=.=.=.",
"=.=.=.=.=.=.=.} K 5 5 4 5 4 < 5 5 , , , < , < < < < < < < < > < > , < > > > > > 8 } ) =.=.=.=.=.=.=.",
"=.=.=.=.=.=.=.} Z 4 4 4 5 5 4 5 4 5 4 4 5 5 , 5 , 5 < 5 < < , < > < > , < < < < < / ) =.=.=.=.=.=.=.",
"=.=.=.=.=.=.=.} M 4 6 4 4 6 4 6 4 4 4 4 4 4 4 4 5 4 5 5 4 4 4 4 5 4 5 5 < < , , , / { =.=.=.=.=.=.=.",
"=.=.=.=.=.=.=...g 6 6 6 6 6 6 6 6 6 6 6 6 6 7 4 6 4 4 6 4 4 4 4 4 4 5 5 5 5 4 4 4 ^ { =.=.=.=.=.=.=.",
"=.=.=.=.=.=.=...i 6 6 6 6 6 6 6 6 6 6 6 6 6 6 6 6 6 6 6 6 6 4 6 6 4 6 6 4 7 4 4 4 T { =.=.=.=.=.=.=.",
"=.=.=.=.=.=.=.} i 6 6 6 6 6 6 6 6 6 6 6 6 6 6 6 6 6 6 6 6 6 6 6 6 6 6 6 6 6 6 6 6 T } =.=.=.=.=.=.=.",
"=.=.=.=.=.=.=...u 6 6 6 6 6 6 6 6 6 6 6 6 6 6 6 6 6 6 6 6 6 6 6 6 6 6 6 6 6 6 6 6 T } =.=.=.=.=.=.=.",
"=.=.=.=.=.=.=...i 6 6 6 6 6 6 6 7 6 6 6 6 6 6 6 6 6 6 6 6 6 6 6 6 6 6 6 6 6 6 6 6 T { =.=.=.=.=.=.=.",
"=.=.=.=.=.=.=...f 9 9 7 6 6 6 6 6 6 6 7 6 6 6 7 6 6 7 6 6 6 6 7 6 6 6 6 6 6 6 6 7 ^ } =.=.=.=.=.=.=.",
"=.=.=.=.=.=.=...g 0 0 0 0 9 0 0 9 0 6 9 6 9 7 6 6 6 6 6 6 7 7 6 6 6 6 6 6 6 6 6 7 ^ { =.=.=.=.=.=.=.",
"=.=.=.=.=.=.=...g e q P } ` S 0 q q q q q 0 g / ` ../ y 9 6 9 6 6 9 6 F / ` Y 6 6 } } =.=.=.=.=.=.=.",
"=.=.=.=.=.=.=...C M ( / { } _ U e e e e e P ' } ) ) ' _ M q q 0 9 0 ` ` } { R ` i } } =.=.=.=.=.=.=.",
"=.=.=.=.=.=.=...I ` } ) ) ) ) } I y r i ^ ( ) ) ) ) ) } ` L e q e Y } ) ) ) { } } } } =.=.=.=.=.=.=.",
"=.=.=.=.=.=.=.} ..} =.) ) ) ) { ..I D ` } ) ) ) =.=.) ) { ` ` ^ ' ..) ) ) =.=.=.....} =.=.=.=.=.=.=.",
"=.=.=.=.=.=.=.=...} =.=.=.=.=.=.} } } } ) =.=.=.=.=.=.=.=.) } } } ) =.=.=.=.=.=.} ..=.=.=.=.=.=.=.=.",
"=.=.=.=.=.=.=.=.=.=.=.=.=.=.=.=.=.=.=.=.=.=.=.=.=.=.=.=.=.=.=.=.=.=.=.=.=.=.=.=.=.=.=.=.=.=.=.=.=.=.",
"=.=.=.=.=.=.=.=.=.=.=.=.=.=.=.=.=.=.=.=.=.=.=.=.=.=.=.=.=.=.=.=.=.=.=.=.=.=.=.=.=.=.=.=.=.=.=.=.=.=.",
"=.=.=.=.=.=.=.=.=.=.=.=.=.=.=.=.=.=.=.=.=.=.=.=.=.=.=.=.=.=.=.=.=.=.=.=.=.=.=.=.=.=.=.=.=.=.=.=.=.=.",
"=.=.=.=.=.=.=.=.=.=.=.=.=.=.=.=.=.=.=.=.=.=.=.=.=.=.=.=.=.=.=.=.=.=.=.=.=.=.=.=.=.=.=.=.=.=.=.=.=.=.",
"=.=.=.=.=.=.=.=.=.=.=.=.=.=.=.=.=.=.=.=.=.=.=.=.=.=.=.=.=.=.=.=.=.=.=.=.=.=.=.=.=.=.=.=.=.=.=.=.=.=.",
"=.=.=.=.=.=.=.=.=.=.=.=.=.=.=.=.=.=.=.=.=.=.=.=.=.=.=.=.=.=.=.=.=.=.=.=.=.=.=.=.=.=.=.=.=.=.=.=.=.=.",
"=.=.=.=.=.=.=.=.=.=.=.=.=.=.=.=.=.=.=.=.=.=.=.=.=.=.=.=.=.=.=.=.=.=.=.=.=.=.=.=.=.=.=.=.=.=.=.=.=.=."
};
