/* XPM */
static char *enemy_right1[] = {
/* columns rows colors chars-per-pixel */
"50 50 105 2 ",
"   c #554E5A",
".  c #535353",
"X  c #726977",
"o  c #747474",
"O  c #78757B",
"+  c #7C7C7C",
"@  c #6D3391",
"#  c #8047A3",
"$  c #8A0ED5",
"%  c #8A0CDB",
"&  c #8C15D4",
"*  c #8D15DA",
"=  c #931FDA",
"-  c #9627DB",
";  c #9A2EDC",
":  c #9C33DC",
">  c #890AE5",
",  c #870AED",
"<  c #890AEC",
"1  c #8C16E1",
"2  c #8F1FE7",
"3  c #8E10EE",
"4  c #860AF3",
"5  c #880AF2",
"6  c #860AFE",
"7  c #880BFF",
"8  c #8B18F5",
"9  c #8714FF",
"0  c #8815FF",
"q  c #891CFF",
"w  c #9A2BE3",
"e  c #8C24FF",
"r  c #8E2BFF",
"t  c #9126F1",
"y  c #932DF8",
"u  c #9433FE",
"i  c #953BFF",
"p  c #A038E1",
"a  c #A444DE",
"s  c #B277D7",
"d  c #B376D8",
"f  c #9540FF",
"g  c #9944FF",
"h  c #994BFF",
"j  c #9D52FF",
"k  c #9E59FF",
"l  c #A441E0",
"z  c #A846E5",
"x  c #AC4EE5",
"c  c #A749ED",
"v  c #A849EC",
"b  c #AF59E5",
"n  c #AF56EB",
"m  c #B055E7",
"M  c #B45BEB",
"N  c #A057FF",
"B  c #A05AFF",
"V  c #B566E4",
"C  c #BC74E7",
"Z  c #BD74EA",
"A  c #A264FF",
"S  c #A56AFF",
"D  c #A774FF",
"F  c #AB71FF",
"G  c #AD7BFF",
"H  c #C27BED",
"J  c #C474F1",
"K  c #C57AF2",
"L  c #AE84FF",
"P  c #B385FF",
"I  c #B289FF",
"U  c #B493FF",
"Y  c #BA95FF",
"T  c #BB9BFF",
"R  c #BFA3FF",
"E  c #CA92ED",
"W  c #CE98EF",
"Q  c #CA82F5",
"!  c #D19FF5",
"~  c #D597FA",
"^  c #C0A4FF",
"/  c #C4ACFF",
"(  c #C8AFFF",
")  c #D3AAFF",
"_  c #C6B0FF",
"`  c #C9B3FF",
"'  c #CCBBFF",
"]  c #DAB3F2",
"[  c #D5BDF1",
"{  c #D2B3FF",
"}  c #D2BCFF",
"|  c #E7B5FF",
" . c #E5B9FF",
".. c #D2C1FF",
"X. c #E2C3F5",
"o. c #E2C2F8",
"O. c #E4CAFD",
"+. c #F2CAFF",
"@. c #EBD5FA",
"#. c #FAD9FF",
"$. c #F0E1FB",
"%. c #F6F6F6",
"&. c #FCF2FE",
"*. c #FFFFFF",
"=. c None",
/* pixels */
"=.=.=.=.=.=.=.=.=.=.=.=.=.=.=.=.=.=.=.=.=.=.=.=.=.=.=.=.=.=.=.=.=.=.=.=.=.=.=.=.=.=.=.=.=.=.=.=.=.=.",
"=.=.=.=.=.=.=.=.=.=.=.=.=.=.=.=.=.=.=.=.=.=.=.=.=.=.=.=.=.=.=.=.=.=.=.=.=.=.=.=.=.=.=.=.=.=.=.=.=.=.",
"=.=.=.=.=.=.=.=.=.=.=.=.=.=.=.=.=.=.=.=.=.=.=.=.=.=.=.=.=.=.=.=.=.=.=.=.=.=.=.=.=.=.=.=.=.=.=.=.=.=.",
"=.=.=.=.=.=.=.=.=.=.=.=.=.=.=.=.=.=.=.=.=.=.=.=.=.=.=.=.=.=.=.=.=.=.=.=.=.=.=.=.=.=.=.=.=.=.=.=.=.=.",
"=.=.=.=.=.=.=.=.=.=.=.=.=.=.=.=.=.=.=.=.=.=.=.=.=.=.=.=.=.=.=.=.=.=.=.=.=.=.=.=.=.=.=.=.=.=.=.=.=.=.",
"=.=.=.=.=.=.=.=.=.=.=.=.=.=.=.=.=.=.=.=.=.=.=.=.=.=.=.=.=.=.=.=.=.=.=.=.=.=.=.=.=.=.=.=.=.=.=.=.=.=.",
"=.=.=.=.=.=.=.=.=.=.=.=.=.=.=.=.=.=.=.=.=.=.=.=.=.=.=.=.=.=.=.=.=.=.=.=.=.=.=.=.=.=.=.=.=.=.=.=.=.=.",
"=.=.=.=.=.=.=.=.=.=.=.=.=.=.=.=.=.=.=.=.=.=.=.=.=.=.=.=.=.=.=.=.=.=.=.=.=.=.=.=.=.=.=.=.=.=.=.=.=.=.",
"=.=.=.=.=.=.=.=.=.=.=.=.=.=.=.=.=.=.=.) ) } } } } } } } { ) ) =.=.=.=.=.=.=.=.=.=.=.=.=.=.=.=.=.=.=.",
"=.=.=.=.=.=.=.=.=.=.=.=.=.=.=.=.) { } ..R U G A j k D P ^ / } } ) =.=.=.=.=.=.=.=.=.=.=.=.=.=.=.=.=.",
"=.=.=.=.=.=.=.=.=.=.=.=.=.=.=.) } R I i 1 & $ $ $ & $ $ $ t A _ R ) ) =.=.=.=.=.=.=.=.=.=.=.=.=.=.=.",
"=.=.=.=.=.=.=.=.=.=.=.=.=.) ) ../ i $ $ z Q | #.&.#.| Q z $ $ $ D ' } ) =.=.=.=.=.=.=.=.=.=.=.=.=.=.",
"=.=.=.=.=.=.=.=.=.=.=.=.) { / I % $ - K +.#.#.#.#.#.#.#.+.K - $ $ u R } ) =.=.=.=.=.=.=.=.=.=.=.=.=.",
"=.=.=.=.=.=.=.=.=.=.=.=.) R S $ $ = J  . . . . . . . . . . .J = $ $ t _ } ) =.=.=.=.=.=.=.=.=.=.=.=.",
"=.=.=.=.=.=.=.=.=.=.=.) } I $ $ $ x ~ ~ ~ ~ ~ ~ ~ ~ ~ ~ ~ ~ ~ x $ $ $ y ^ { =.=.=.=.=.=.=.=.=.=.=.=.",
"=.=.=.=.=.=.=.=.=.=.) } _ 2 $ $ & M J J J J J J J J J J J J J M $ $ $ $ h ..) =.=.=.=.=.=.=.=.=.=.=.",
"=.=.=.=.=.=.=.=.=.=.) _ u $ $ b X.H m m m m m m m m m m m m m m $ $ $ & E ' ..) =.=.=.=.=.=.=.=.=.=.",
"=.=.=.=.=.=.=.=.=.) } T $ $ ; X.*.*.W p p : p p p p p p p p p ; $ $ : @.*.O...) =.=.=.=.=.=.=.=.=.=.",
"=.=.=.=.=.=.=.=.=.) R u $ $ C *.*.*.*.X.a = = = = = = = = - = * $ V &.*.*.*...} ) =.=.=.=.=.=.=.=.=.",
"=.=.=.=.=.=.=.=.=.} Y $ $ $ ] *.*.*.*.%.o @ $ $ $ $ $ $ $ $ $ : X.*.%.o . o [ ^ ) =.=.=.=.=.=.=.=.=.",
"=.=.=.=.=.=.=.=.) } h & $ $ @.*.*.*.*.+ . .   # $ $ $ $ $ a ] *.*.*.+ . . . O _ { =.=.=.=.=.=.=.=.=.",
"=.=.=.=.=.=.=.=.{ ^ 2 $ $ $ *.*.*.*.*.. . . . . $ $ $ $ $ &.*.*.*.*.. . . . . D } ) =.=.=.=.=.=.=.=.",
"=.=.=.=.=.=.=.=.} U $ $ $ $ $.*.*.*.*.. . . . . $ $ $ $ $ $.*.*.*.*.. . . . . i ..) =.=.=.=.=.=.=.=.",
"=.=.=.=.=.=.=.) } A % % $ % ] *.*.*.*.+ . . . X $ $ $ $ $ ] *.*.*.*.O . . . X * ( ) =.=.=.=.=.=.=.=.",
"=.=.=.=.=.=.=.) ..u % % > % Z *.*.*.*.%.o . o d $ $ % $ $ C *.*.*.*.%.o . o d $ Y } =.=.=.=.=.=.=.=.",
"=.=.=.=.=.=.=.) ` 3 > > > > w o.*.*.*.*.*.*.X.w % % % % % w X.*.*.*.*.*.*.X.; % G } =.=.=.=.=.=.=.=.",
"=.=.=.=.=.=.=.{ / < > > > > > n @.*.*.*.*.@.n > > > > > % > n @.*.*.*.*.@.b % % j } ) =.=.=.=.=.=.=.",
"=.=.=.=.=.=.=.} Y < , < > , , > c ! $.#.! c < > > > > > > > > v ) $.@.) z % > % u } ) =.=.=.=.=.=.=.",
"=.=.=.=.=.=.=.} L 5 5 4 < 4 , 4 4 > , 4 < < < , < < < < < < > < < > > > > > > > 8 } ) =.=.=.=.=.=.=.",
"=.=.=.=.=.=.=.} S 4 4 4 5 5 4 4 4 4 , 4 5 5 5 < , 5 < 5 < < , < , < < < < < < < < ( ) =.=.=.=.=.=.=.",
"=.=.=.=.=.=.=.} N 4 6 4 4 6 4 6 4 4 4 4 4 4 4 4 5 4 5 5 4 4 4 4 5 5 5 5 < < , , , ^ { =.=.=.=.=.=.=.",
"=.=.=.=.=.=.=...h 6 6 6 6 6 6 6 6 6 6 6 6 6 6 4 6 4 4 6 4 4 4 4 4 4 5 5 4 5 5 5 5 ^ { =.=.=.=.=.=.=.",
"=.=.=.=.=.=.=...i 6 6 6 6 6 6 6 6 6 6 6 6 6 6 6 6 6 6 6 6 6 4 6 6 6 4 6 4 6 4 4 4 T { =.=.=.=.=.=.=.",
"=.=.=.=.=.=.=.} i 6 6 6 6 6 6 6 6 6 6 6 6 6 6 6 6 6 6 6 6 6 6 6 6 6 6 6 6 6 6 6 7 T { =.=.=.=.=.=.=.",
"=.=.=.=.=.=.=...u 6 6 6 6 6 6 6 6 6 6 6 6 6 6 6 6 6 6 6 6 6 6 6 6 6 6 6 6 6 6 6 6 T } =.=.=.=.=.=.=.",
"=.=.=.=.=.=.=...g 6 6 6 6 6 6 6 6 6 6 6 6 6 6 6 6 6 6 6 6 6 6 6 6 6 6 6 6 6 6 6 6 T } =.=.=.=.=.=.=.",
"=.=.=.=.=.=.=...h 6 9 6 6 6 6 6 6 6 6 6 6 6 6 6 6 6 6 6 6 6 6 6 6 6 6 6 6 6 6 6 6 ^ { =.=.=.=.=.=.=.",
"=.=.=.=.=.=.=.} N q 9 0 9 9 9 9 9 9 7 9 6 9 6 6 6 6 6 6 6 6 6 6 6 6 6 6 6 6 6 6 6 / { =.=.=.=.=.=.=.",
"=.=.=.=.=.=.=...S e e q e q q q e Y T N q 9 0 0 9 9 9 6 9 0 N P h 6 6 6 6 6 6 6 6 ( { =.=.=.=.=.=.=.",
"=.=.=.=.=.=.=.} ^ e e e e e e D ' } } ' Y r e q q q q q f ' ..} ( _ B q 9 0 9 9 9 ( { =.=.=.=.=.=.=.",
"=.=.=.=.=.=.=.} ( Y u r r i Y ( { ) ) ) } ( h e e e e F _ } ) ) ) { _ P e q q q Y } =.=.=.=.=.=.=.=.",
"=.=.=.=.=.=.=.=.{ } ( A G _ ..) ) ) ) ) ) } } P i i Y _ { ) ) ) ) ) { } ( G N ^ ..) =.=.=.=.=.=.=.=.",
"=.=.=.=.=.=.=.=.=.=.} ..} } ) =.=.=.=.=.=.) { } ....} { ) =.=.=.=.=.=.) } } ..} =.=.=.=.=.=.=.=.=.=.",
"=.=.=.=.=.=.=.=.=.=.=.=.=.=.=.=.=.=.=.=.=.=.=.=.=.=.=.=.=.=.=.=.=.=.=.=.=.=.=.=.=.=.=.=.=.=.=.=.=.=.",
"=.=.=.=.=.=.=.=.=.=.=.=.=.=.=.=.=.=.=.=.=.=.=.=.=.=.=.=.=.=.=.=.=.=.=.=.=.=.=.=.=.=.=.=.=.=.=.=.=.=.",
"=.=.=.=.=.=.=.=.=.=.=.=.=.=.=.=.=.=.=.=.=.=.=.=.=.=.=.=.=.=.=.=.=.=.=.=.=.=.=.=.=.=.=.=.=.=.=.=.=.=.",
"=.=.=.=.=.=.=.=.=.=.=.=.=.=.=.=.=.=.=.=.=.=.=.=.=.=.=.=.=.=.=.=.=.=.=.=.=.=.=.=.=.=.=.=.=.=.=.=.=.=.",
"=.=.=.=.=.=.=.=.=.=.=.=.=.=.=.=.=.=.=.=.=.=.=.=.=.=.=.=.=.=.=.=.=.=.=.=.=.=.=.=.=.=.=.=.=.=.=.=.=.=.",
"=.=.=.=.=.=.=.=.=.=.=.=.=.=.=.=.=.=.=.=.=.=.=.=.=.=.=.=.=.=.=.=.=.=.=.=.=.=.=.=.=.=.=.=.=.=.=.=.=.=.",
"=.=.=.=.=.=.=.=.=.=.=.=.=.=.=.=.=.=.=.=.=.=.=.=.=.=.=.=.=.=.=.=.=.=.=.=.=.=.=.=.=.=.=.=.=.=.=.=.=.=."
};
