/* XPM */
static char *enemy_start[] = {
/* columns rows colors chars-per-pixel */
"50 50 252 2 ",
"   c #8A0ED5",
".  c #8A0ED7",
"X  c #8C0ED7",
"o  c #880DD8",
"O  c #8B0DD8",
"+  c #8B0CDA",
"@  c #8A0FDA",
"#  c #8A0BDF",
"$  c #8C0BDF",
"%  c #8A0CDC",
"&  c #8A10D7",
"*  c #8E15D8",
"=  c #8C14DC",
"-  c #931FDA",
";  c #9627DB",
":  c #9B2FDE",
">  c #8B0AE0",
",  c #880AE2",
"<  c #890AE3",
"1  c #8A0AE2",
"2  c #8B0AE4",
"3  c #8A0AE5",
"4  c #890AE6",
"5  c #880AE7",
"6  c #8B0AE6",
"7  c #8C0AE5",
"8  c #870AE8",
"9  c #870AEC",
"0  c #860AED",
"q  c #870AEF",
"w  c #8A0AE8",
"e  c #890AEA",
"r  c #880AEB",
"t  c #880AEC",
"y  c #890AEC",
"u  c #890AED",
"i  c #880AEE",
"p  c #890AEF",
"a  c #8C16E1",
"s  c #8F1FE7",
"d  c #8E10EE",
"f  c #860AF0",
"g  c #860AF1",
"h  c #870AF2",
"j  c #860AF3",
"k  c #850AF5",
"l  c #860AF4",
"z  c #860AF7",
"x  c #890AF0",
"c  c #880AF1",
"v  c #890AF3",
"b  c #880AF4",
"n  c #850AF9",
"m  c #860AF8",
"M  c #870AF9",
"N  c #870AFA",
"B  c #860AFB",
"V  c #820AFF",
"C  c #850AFC",
"Z  c #870AFD",
"A  c #840AFF",
"S  c #850AFF",
"D  c #860AFE",
"F  c #860AFF",
"G  c #870AFF",
"H  c #860BFF",
"J  c #850DFF",
"K  c #860CFF",
"L  c #870EFF",
"P  c #860FFF",
"I  c #880AFF",
"U  c #880CFF",
"Y  c #8B18F5",
"T  c #8710FF",
"R  c #8712FF",
"E  c #8613FF",
"W  c #8614FF",
"Q  c #8715FF",
"!  c #8717FF",
"~  c #8814FF",
"^  c #8916FF",
"/  c #8817FF",
"(  c #8818FF",
")  c #8919FF",
"_  c #881BFF",
"`  c #8A1AFF",
"'  c #8A1BFF",
"]  c #8A1FFF",
"[  c #8A20FF",
"{  c #8B21FF",
"}  c #8A22FF",
"|  c #8C21FF",
" . c #8C22FF",
".. c #8B25FF",
"X. c #8B26FF",
"o. c #8C27FF",
"O. c #8F2EFF",
"+. c #9125F0",
"@. c #9127F2",
"#. c #932DF8",
"$. c #912DFF",
"%. c #9230FB",
"&. c #9432FD",
"*. c #9433FF",
"=. c #9634FF",
"-. c #9536FF",
";. c #9438FF",
":. c #9539FF",
">. c #9638FF",
",. c #943AFF",
"<. c #963AFF",
"1. c #963CFF",
"2. c #973EFF",
"3. c #963FFF",
"4. c #A038E1",
"5. c #9740FF",
"6. c #9542FF",
"7. c #9848FF",
"8. c #9A49FF",
"9. c #994AFF",
"0. c #984CFF",
"q. c #9E4FFF",
"w. c #9B52FF",
"e. c #9C51FF",
"r. c #9F54FF",
"t. c #9E59FF",
"y. c #A846E5",
"u. c #AC4EE5",
"i. c #AF52E8",
"p. c #B055E7",
"a. c #B45BEB",
"s. c #A059FF",
"d. c #A05BFF",
"f. c #A062FF",
"g. c #A165FF",
"h. c #A166FF",
"j. c #A666FF",
"k. c #A468FF",
"l. c #A66EFF",
"z. c #A96EFF",
"x. c #A773FF",
"c. c #A775FF",
"v. c #AC73FF",
"b. c #AD76FF",
"n. c #AB79FF",
"m. c #A97CFF",
"M. c #C474F1",
"N. c #C476F3",
"B. c #C57AF2",
"V. c #AE84FF",
"C. c #B180FF",
"Z. c #B284FF",
"A. c #B088FF",
"S. c #B288FF",
"D. c #B48AFF",
"F. c #B38CFF",
"G. c #B98FFF",
"H. c #B493FF",
"J. c #B992FF",
"K. c #BA92FF",
"L. c #B896FF",
"P. c #B997FF",
"I. c #B899FF",
"U. c #BB9BFF",
"Y. c #BC9CFF",
"T. c #BC9EFF",
"R. c #BD9FFF",
"E. c #BE9EFF",
"W. c #BEA0FF",
"Q. c #BEA4FF",
"!. c #BFA6FF",
"~. c #CA82F5",
"^. c #D597FA",
"/. c #C1A4FF",
"(. c #C0A5FF",
"). c #C1A5FF",
"_. c #C2A5FF",
"`. c #C0A6FF",
"'. c #C2A7FF",
"]. c #C2A9FF",
"[. c #C2ABFF",
"{. c #C5ABFF",
"}. c #C2ADFF",
"|. c #C4ACFF",
" X c #C4ADFF",
".X c #C6ACFF",
"XX c #C5AEFF",
"oX c #C5AFFF",
"OX c #C8AFFF",
"+X c #D3A9FF",
"@X c #D2ABFF",
"#X c #D3ABFF",
"$X c #D4ABFF",
"%X c #D2ACFF",
"&X c #D3ACFF",
"*X c #D3ADFF",
"=X c #D3AEFF",
"-X c #D2AFFF",
";X c #D3AFFF",
":X c #C6B0FF",
">X c #C6B1FF",
",X c #C8B1FF",
"<X c #C9B1FF",
"1X c #C8B2FF",
"2X c #C9B2FF",
"3X c #C8B4FF",
"4X c #C9B4FF",
"5X c #C8B5FF",
"6X c #CAB5FF",
"7X c #CAB7FF",
"8X c #CBB7FF",
"9X c #CBB9FF",
"0X c #CBBAFF",
"qX c #CCB8FF",
"wX c #CCB9FF",
"eX c #CCBAFF",
"rX c #CDBBFF",
"tX c #CDBDFF",
"yX c #CEBEFF",
"uX c #CFBFFF",
"iX c #D3B0FF",
"pX c #D3B1FF",
"aX c #D1B2FF",
"sX c #D2B3FF",
"dX c #D2B4FF",
"fX c #D3B7FF",
"gX c #D2B8FF",
"hX c #D3B8FF",
"jX c #D2B9FF",
"kX c #D3B9FF",
"lX c #D2BAFF",
"zX c #D3BAFF",
"xX c #D2BBFF",
"cX c #D3BBFF",
"vX c #D1BCFF",
"bX c #D1BDFF",
"nX c #D2BCFF",
"mX c #D2BDFF",
"MX c #D1BEFF",
"NX c #D1BFFF",
"BX c #D2BEFF",
"VX c #D2BFFF",
"CX c #E7B5FF",
"ZX c #E5B9FF",
"AX c #D1C0FF",
"SX c #D2C0FF",
"DX c #D2C1FF",
"FX c #F2CAFF",
"GX c #F9D8FF",
"HX c #FCDBFF",
"JX c #FFF2FF",
"KX c None",
/* pixels */
"KXKXKXKXKXKXKXKXKXKXKXKXKXKXKXKXKXKXKXKXKXKXKXKXKXKXKXKXKXKXKXKXKXKXKXKXKXKXKXKXKXKXKXKXKXKXKXKXKXKX",
"KXKXKXKXKXKXKXKXKXKXKXKXKXKXKXKXKXKXKXKXKXKXKXKXKXKXKXKXKXKXKXKXKXKXKXKXKXKXKXKXKXKXKXKXKXKXKXKXKXKX",
"KXKXKXKXKXKXKXKXKXKXKXKXKXKXKXKXKXKXKXKXKXKXKXKXKXKXKXKXKXKXKXKXKXKXKXKXKXKXKXKXKXKXKXKXKXKXKXKXKXKX",
"KXKXKXKXKXKXKXKXKXKXKXKXKXKXKXKXKXKXKXKXKXKXKXKXKXKXKXKXKXKXKXKXKXKXKXKXKXKXKXKXKXKXKXKXKXKXKXKXKXKX",
"KXKXKXKXKXKXKXKXKXKXKXKXKXKXKXKXKXKXKXKXKXKXKXKXKXKXKXKXKXKXKXKXKXKXKXKXKXKXKXKXKXKXKXKXKXKXKXKXKXKX",
"KXKXKXKXKXKXKXKXKXKXKXKXKXKXKXKXKXKXKXKXKXKXKXKXKXKXKXKXKXKXKXKXKXKXKXKXKXKXKXKXKXKXKXKXKXKXKXKXKXKX",
"KXKXKXKXKXKXKXKXKXKXKXKXKXKXKXKXKXKXKXKXKXKXKXKXKXKXKXKXKXKXKXKXKXKXKXKXKXKXKXKXKXKXKXKXKXKXKXKXKXKX",
"KXKXKXKXKXKXKXKXKXKXKXKXKXKXKXKXKXKXKXKXKXKXKXKXKXKXKXKXKXKXKXKXKXKXKXKXKXKXKXKXKXKXKXKXKXKXKXKXKXKX",
"KXKXKXKXKXKXKXKXKXKXKXKXKXKXKXKXKXKXKX+XpXkXxXmXBXbXnXcXfX*X+XKXKXKXKXKXKXKXKXKXKXKXKXKXKXKXKXKXKXKX",
"KXKXKXKXKXKXKXKXKXKXKXKXKXKXKXKX+XiXxXVX!.H.m.h.w.t.x.S.(.[.BXfX#XKXKXKXKXKXKXKXKXKXKXKXKXKXKXKXKXKX",
"KXKXKXKXKXKXKXKXKXKXKXKXKXKXKX&XlX!.F.3.a                 @.f.1XQ.-X+XKXKXKXKXKXKXKXKXKXKXKXKXKXKXKX",
"KXKXKXKXKXKXKXKXKXKXKXKXKX+X+XNX|.>.    y.~.CXHXJXHXCX~.y.      x.9XlX+XKXKXKXKXKXKXKXKXKXKXKXKXKXKX",
"KXKXKXKXKXKXKXKXKXKXKXKX+XpXoXS.@   ; B.FXGXGXGXGXGXGXGXFXB.;     %.Q.xX$XKXKXKXKXKXKXKXKXKXKXKXKXKX",
"KXKXKXKXKXKXKXKXKXKXKXKX*XQ.k.    - N.ZXZXZXZXZXZXZXZXZXZXZXN.-     +.5XxX+XKXKXKXKXKXKXKXKXKXKXKXKX",
"KXKXKXKXKXKXKXKXKXKXKX+XBXA.      u.^.^.^.^.^.^.^.^.^.^.^.^.^.u.      #.(.dXKXKXKXKXKXKXKXKXKXKXKXKX",
"KXKXKXKXKXKXKXKXKXKX+XlX>Xs       a.M.M.M.M.M.M.M.M.M.M.M.M.M.a.        9.AX+XKXKXKXKXKXKXKXKXKXKXKX",
"KXKXKXKXKXKXKXKXKXKX=X1X=.        i.p.p.p.p.p.p.p.p.p.p.p.p.p.i.        & U.xX+XKXKXKXKXKXKXKXKXKXKX",
"KXKXKXKXKXKXKXKXKX+XxXL.          : 4.4.4.4.4.4.4.4.4.4.4.4.4.:           #.uX%XKXKXKXKXKXKXKXKXKXKX",
"KXKXKXKXKXKXKXKXKX=X`.&.          * - - - - - - - - - - - - - *             L.xX+XKXKXKXKXKXKXKXKXKX",
"KXKXKXKXKXKXKXKXKXkXI.                                                      <.].#XKXKXKXKXKXKXKXKXKX",
"KXKXKXKXKXKXKXKX+XMX0.                                                        :XsXKXKXKXKXKXKXKXKXKX",
"KXKXKXKXKXKXKXKX-X].s                                                         c.vX+XKXKXKXKXKXKXKXKX",
"KXKXKXKXKXKXKXKXkXL.                                                          :.NX+XKXKXKXKXKXKXKXKX",
"KXKXKXKXKXKXKX+XBXg.+ o O O O . . X X                                         = }.;XKXKXKXKXKXKXKXKX",
"KXKXKXKXKXKXKX+XNX*.# $ $ % % % % % % + + + o O O O . . X X                     I.hXKXKXKXKXKXKXKXKX",
"KXKXKXKXKXKXKX@X3Xd < < < , 1 1 1 1 > > > # $ $ % % % % % % + + + o O O O . . X n.nXKXKXKXKXKXKXKXKX",
"KXKXKXKXKXKXKXsX[.w 5 5 4 4 4 6 6 3 7 2 2 < < < , 1 1 1 1 > > > # $ $ % % % % % e.BX+XKXKXKXKXKXKXKX",
"KXKXKXKXKXKXKXjXP.u 9 y r r e e e e 8 8 w 5 5 4 4 4 6 6 3 7 2 2 < < < , 1 1 1 1 *.VX+XKXKXKXKXKXKXKX",
"KXKXKXKXKXKXKXnXV.c c f x q p i i 0 0 0 u 9 y r r e e e e 8 8 w 5 5 4 4 4 6 6 3 Y SX+XKXKXKXKXKXKXKX",
"KXKXKXKXKXKXKXBXl.k l l b b j v h h g g c c f x q p i i 0 0 0 u 9 y r r e e e e t XX%XKXKXKXKXKXKXKX",
"KXKXKXKXKXKXKXBXd.B B N n n M M m m z z k l l b b j v h h g g c c f x q p i i 0 0 [.iXKXKXKXKXKXKXKX",
"KXKXKXKXKXKXKXVX8.S F F F D D Z C C C C B B N n n M M m m z z k l l b b j v h h g ).aXKXKXKXKXKXKXKX",
"KXKXKXKXKXKXKXNX2.A S S S S S F F A A S S F F F D D Z C C C C B B N n n M M m m z W.dXKXKXKXKXKXKXKX",
"KXKXKXKXKXKXKXNX;.F F A F S G S F F F F A S S S S S F F A A S S F F F D D Z C C C R.fXKXKXKXKXKXKXKX",
"KXKXKXKXKXKXKXSX-.G G V A A F F G S G F F F A F S G S F F F F A S S S S S F F A A Y.hXKXKXKXKXKXKXKX",
"KXKXKXKXKXKXKXSX1.F S S G F F G G S F S G G V A A F F G S G F F F A F S G S F F F T.hXKXKXKXKXKXKXKX",
"KXKXKXKXKXKXKXSX6.P P L J K U H S S G I F S S G F F G G S F S G G V A A F F G S G T.hXKXKXKXKXKXKXKX",
"KXKXKXKXKXKXKXSX8.( ! / ^ Q W ~ E R T T P P L J K U H S S G I F S S G F F G G S G ).hXKXKXKXKXKXKXKX",
"KXKXKXKXKXKXKXAXq.| ] Z.rX6Xz._ ' ` ` ) ( ! 7. XtXyX'.$.R T T P P L J b.{.0XP.S H MXkXKXKXKXKXKXKXKX",
"KXKXKXKXKXKXKXAXj.r.OX{.dXkX<XJ...}  .{ [ D.eXxX=X%XmX,Xs.` ) ( ! ( 8X4XlXsX/.2X,.MXlXKXKXKXKXKXKXKX",
"KXKXKXKXKXKXKXAXG.qXnX&X+X+X*XBXG.O.o.5._..XiX+X+X+X+XgX7XC.{ [ X.K.BX*X+X+XiXMXAXBXxXKXKXKXKXKXKXKX",
"KXKXKXKXKXKXKXVXAXMXKX+X+X+X+X;XDXG.v.qXbX&X+X+XKXKX+X+XpXwX4XE.wXAX@X+X+XKXKXKXDXSXnXKXKXKXKXKXKXKX",
"KXKXKXKXKXKXKXKXDXnXKXKXKXKXKXKXfXNXNXxX+XKXKXKXKXKXKXKXKX@XhXnXzX#XKXKXKXKXKXKXBXAXKXKXKXKXKXKXKXKX",
"KXKXKXKXKXKXKXKXKXKXKXKXKXKXKXKXKXKXKXKXKXKXKXKXKXKXKXKXKXKXKXKXKXKXKXKXKXKXKXKXKXKXKXKXKXKXKXKXKXKX",
"KXKXKXKXKXKXKXKXKXKXKXKXKXKXKXKXKXKXKXKXKXKXKXKXKXKXKXKXKXKXKXKXKXKXKXKXKXKXKXKXKXKXKXKXKXKXKXKXKXKX",
"KXKXKXKXKXKXKXKXKXKXKXKXKXKXKXKXKXKXKXKXKXKXKXKXKXKXKXKXKXKXKXKXKXKXKXKXKXKXKXKXKXKXKXKXKXKXKXKXKXKX",
"KXKXKXKXKXKXKXKXKXKXKXKXKXKXKXKXKXKXKXKXKXKXKXKXKXKXKXKXKXKXKXKXKXKXKXKXKXKXKXKXKXKXKXKXKXKXKXKXKXKX",
"KXKXKXKXKXKXKXKXKXKXKXKXKXKXKXKXKXKXKXKXKXKXKXKXKXKXKXKXKXKXKXKXKXKXKXKXKXKXKXKXKXKXKXKXKXKXKXKXKXKX",
"KXKXKXKXKXKXKXKXKXKXKXKXKXKXKXKXKXKXKXKXKXKXKXKXKXKXKXKXKXKXKXKXKXKXKXKXKXKXKXKXKXKXKXKXKXKXKXKXKXKX",
"KXKXKXKXKXKXKXKXKXKXKXKXKXKXKXKXKXKXKXKXKXKXKXKXKXKXKXKXKXKXKXKXKXKXKXKXKXKXKXKXKXKXKXKXKXKXKXKXKXKX"
};
