/* XPM */
static char *enemy_up[] = {
/* columns rows colors chars-per-pixel */
"50 50 91 1 ",
"  c #4E4E4E",
". c #645F67",
"X c #646067",
"o c #646068",
"O c DimGray",
"+ c #976EB1",
"@ c #8A0ED5",
"# c #8A0CDB",
"$ c #8C14DC",
"% c #931FDA",
"& c #8A0AE4",
"* c #870AEC",
"= c #890AEC",
"- c #8C16E1",
"; c #8F1FE7",
": c #8E10EE",
"> c #860AF3",
", c #880AF2",
"< c #860AFE",
"1 c #880BFF",
"2 c #8B18F5",
"3 c #8713FF",
"4 c #8816FF",
"5 c #891AFF",
"6 c #8B23FF",
"7 c #8F2EFF",
"8 c #9127F2",
"9 c #922DFC",
"0 c #9534FF",
"q c #963BFF",
"w c #A038E1",
"e c #A74ADF",
"r c #9641FF",
"t c #9A4BFF",
"y c #9D52FF",
"u c #9E59FF",
"i c #A846E5",
"p c #B055E7",
"a c #A05AFF",
"s c #B76CE6",
"d c #BF7CE8",
"f c #A265FF",
"g c #A66EFF",
"h c #A96EFF",
"j c #A774FF",
"k c #AD75FF",
"l c #AA7BFF",
"z c #C474F1",
"x c #C57AF2",
"c c #A98DBA",
"v c #A292BE",
"b c #A69CBE",
"n c #AE84FF",
"m c #B282FF",
"M c #B38AFF",
"N c #B98FFF",
"B c #B493FF",
"V c #B995FF",
"C c #BB9CFF",
"Z c #BEA4FF",
"A c #C88FEB",
"S c #CA82F5",
"D c #CB96F4",
"F c #D597FA",
"G c #C1A5FF",
"H c #C4ACFF",
"J c #CCADFF",
"K c #D3AAFF",
"L c #C6B1FF",
"P c #C9B4FF",
"I c #CCBBFF",
"U c #DFBDF4",
"Y c #D3B3FF",
"T c #DFB1FB",
"R c #D2BCFF",
"E c #E7B5FF",
"W c #E5BAFE",
"Q c #C5C5C5",
"! c #D2C0FF",
"~ c #E4C7F5",
"^ c #E4C8F6",
"/ c #F2CAFF",
"( c #E1D7FF",
") c #EDD8F9",
"_ c #F1D9FF",
"` c #FAD9FF",
"' c #F4E7FB",
"] c #F4EAFE",
"[ c #F9F2FD",
"{ c #FFFFFF",
"} c None",
/* pixels */
"}}}}}}}}}}}}}}}}}}}}}}}}}}}}}}}}}}}}}}}}}}}}}}}}}}",
"}}}}}}}}}}}}}}}}}}}}}}}}}}}}}}}}}}}}}}}}}}}}}}}}}}",
"}}}}}}}}}}}}}}}}}}}}}}}}}}}}}}}}}}}}}}}}}}}}}}}}}}",
"}}}}}}}}}}}}}}}}}}}}}}}}}}}}}}}}}}}}}}}}}}}}}}}}}}",
"}}}}}}}}}}}}}}}}}}}}}}}}}}}}}}}}}}}}}}}}}}}}}}}}}}",
"}}}}}}}}}}}}}}}}}}}}}}}}}}}}}}}}}}}}}}}}}}}}}}}}}}",
"}}}}}}}}}}}}}}}}}}}}}}}}}}}}}}}}}}}}}}}}}}}}}}}}}}",
"}}}}}}}}}}}}}}}}}}}}}}}}}}}}}}}}}}}}}}}}}}}}}}}}}}",
"}}}}}}}}}}}}}}}}}}}KYRRRRRRRRKK}}}}}}}}}}}}}}}}}}}",
"}}}}}}}}}}}}}}}}KYR!ZBlfyukMGH!YK}}}}}}}}}}}}}}}}}",
"}}}}}}}}}}}}}}}KRZMr$@@@@@@@@8fLZKK}}}}}}}}}}}}}}}",
"}}}}}}}}}}}}}KKRH0@@iSE`[`ESi@@@jPRK}}}}}}}}}}}}}}",
"}}}}}}}}}}}}KYLvX Xc/``````_/x+. .bRK}}}}}}}}}}}}}",
"}}}}}}}}}}}}KZJO   O_WWWEWWWW_O   O(RK}}}}}}}}}}}}",
"}}}}}}}}}}}KRG'     [TFFFFFFE[     ]RY}}}}}}}}}}}}",
"}}}}}}}}}}KRLD{O   O{WzzzzzzW{O   O{J!K}}}}}}}}}}}",
"}}}}}}}}}}KL0~{QO OQ{)pppppp){QO OQ{~CRK}}}}}}}}}}",
"}}}}}}}}}KRV@[{{{{{{{[wwwwww[{{{{{{{[9!K}}}}}}}}}}",
"}}}}}}}}}KZ0@[{{{{{{{[%%%%%%[{{{{{{{]@VRK}}}}}}}}}",
"}}}}}}}}}RV@@~{{{{{{{~@@@@@@~{{{{{{{~@qHK}}}}}}}}}",
"}}}}}}}}KRt@@A{{{{{{{A@@@@@@A{{{{{{{A@@HY}}}}}}}}}",
"}}}}}}}}YH;@@e'{{{{{'e@@@@@@e'{{{{{'e@@jRK}}}}}}}}",
"}}}}}}}}IV@@@@d{{{{{d@@@@@@@@d{{{{{d@@@qRK}}}}}}}}",
"}}}}}}}KRf###@#sU[Us@@@@@@@@@@sU[Us@@@@$HY}}}}}}}}",
"}}}}}}}K!0##&###########@@#@@#@@@@@@@@@@VR}}}}}}}}",
"}}}}}}}KP=&&&&&&&&#&#&############@##@#@lR}}}}}}}}",
"}}}}}}}YH==&&&&&&&&&&&&&&&&&&##&##&#####yRK}}}}}}}",
"}}}}}}}RV*==*======&=&&&&&&&&&&&&&&&&#&&0RK}}}}}}}",
"}}}}}}}Rn=,>,,===***=*=========&=&&&&&&&2!K}}}}}}}",
"}}}}}}}Rh,>>,>>,,>>>,,>,*====**==========HK}}}}}}}",
"}}}}}}}Ra<<<<>><><><>>>,>>,,*>>>>,=,,==**HY}}}}}}}",
"}}}}}}}!r<<<<<<<<><<><<<><<><<>>>>>>>,>>>GY}}}}}}}",
"}}}}}}}Rr<<<<<<<<<<<<<<<<<<<<<<<<><><><,>CY}}}}}}}",
"}}}}}}}!q<<<<<<<<<<<<<<<<<<<<<<<<<<<<<<<1CR}}}}}}}",
"}}}}}}}!0<<<<<<<<<<<<<<<<<<<<<<<<<<<<<<<<CR}}}}}}}",
"}}}}}}}!q<<<<<<<1<<<<<<<<<<<<1<<<<<<<<<<<CY}}}}}}}",
"}}}}}}}!r<<3<<<<<<<1<<<1<<<<<<<<<<<<<<<<<DR}}}}}}}",
"}}}}}}}!t5533333343<<311<<<<<<1<<<<<<<<<<GY}}}}}}}",
"}}}}}}}!y65MRPj5555555tHIIH9313<<3<jHIV<<!R}}}}}}}",
"}}}}}}}!fyJHYRLV66665MPRKKRLa55434ILRYZLq!R}}}}}}}",
"}}}}}}}!NIRKKKKRN76rGHYKKKKYPn666VRKKKY!!!R}}}}}}}",
"}}}}}}}!!R}KKKKK!NkIRKKK}}KKYIPDI!KKK}}}!!R}}}}}}}",
"}}}}}}}}!R}}}}}}RRRRK}}}}}}}}KRRRK}}}}}}I!}}}}}}}}",
"}}}}}}}}}}}}}}}}}}}}}}}}}}}}}}}}}}}}}}}}}}}}}}}}}}",
"}}}}}}}}}}}}}}}}}}}}}}}}}}}}}}}}}}}}}}}}}}}}}}}}}}",
"}}}}}}}}}}}}}}}}}}}}}}}}}}}}}}}}}}}}}}}}}}}}}}}}}}",
"}}}}}}}}}}}}}}}}}}}}}}}}}}}}}}}}}}}}}}}}}}}}}}}}}}",
"}}}}}}}}}}}}}}}}}}}}}}}}}}}}}}}}}}}}}}}}}}}}}}}}}}",
"}}}}}}}}}}}}}}}}}}}}}}}}}}}}}}}}}}}}}}}}}}}}}}}}}}",
"}}}}}}}}}}}}}}}}}}}}}}}}}}}}}}}}}}}}}}}}}}}}}}}}}}"
};
