/* XPM */
static char *enemy_up1[] = {
/* columns rows colors chars-per-pixel */
"50 50 91 1 ",
"  c #4E4E4E",
". c #645F67",
"X c #646067",
"o c #646068",
"O c DimGray",
"+ c #976EB1",
"@ c #8A0ED5",
"# c #8A0CDB",
"$ c #8C14DC",
"% c #931FDA",
"& c #8A0AE4",
"* c #870AEC",
"= c #890AEC",
"- c #8C16E1",
"; c #8F1FE7",
": c #8E10EE",
"> c #860AF3",
", c #880AF2",
"< c #860AFE",
"1 c #880BFF",
"2 c #8B18F5",
"3 c #8714FF",
"4 c #8815FF",
"5 c #891CFF",
"6 c #8C24FF",
"7 c #8E2BFF",
"8 c #9127F2",
"9 c #932DF8",
"0 c #9434FF",
"q c #953BFF",
"w c #A038E1",
"e c #A74ADF",
"r c #9540FF",
"t c #9944FF",
"y c #994BFF",
"u c #9D52FF",
"i c #9E59FF",
"p c #A846E5",
"a c #B055E7",
"s c #A057FF",
"d c #A05AFF",
"f c #B76CE6",
"g c #BF7CE8",
"h c #A264FF",
"j c #A66BFF",
"k c #A774FF",
"l c #AB71FF",
"z c #AD7BFF",
"x c #C474F1",
"c c #C57AF2",
"v c #A98DBA",
"b c #A292BE",
"n c #A69CBE",
"m c #AE84FF",
"M c #B385FF",
"N c #B38AFF",
"B c #B493FF",
"V c #BA96FF",
"C c #BB9BFF",
"Z c #BFA3FF",
"A c #C88FEB",
"S c #CA82F5",
"D c #CB96F4",
"F c #D597FA",
"G c #C1A4FF",
"H c #C4ACFF",
"J c #CBAEFF",
"K c #D3AAFF",
"L c #C6B0FF",
"P c #C9B3FF",
"I c #CDBBFF",
"U c #DFBDF4",
"Y c #D2B3FF",
"T c #DFB1FB",
"R c #D2BCFF",
"E c #E7B5FF",
"W c #E5BAFE",
"Q c #C5C5C5",
"! c #D2C0FF",
"~ c #E4C7F5",
"^ c #E4C8F6",
"/ c #F2CAFF",
"( c #E1D7FF",
") c #EDD8F9",
"_ c #F1D9FF",
"` c #FAD9FF",
"' c #F4E7FB",
"] c #F4EAFE",
"[ c #F9F2FD",
"{ c #FFFFFF",
"} c None",
/* pixels */
"}}}}}}}}}}}}}}}}}}}}}}}}}}}}}}}}}}}}}}}}}}}}}}}}}}",
"}}}}}}}}}}}}}}}}}}}}}}}}}}}}}}}}}}}}}}}}}}}}}}}}}}",
"}}}}}}}}}}}}}}}}}}}}}}}}}}}}}}}}}}}}}}}}}}}}}}}}}}",
"}}}}}}}}}}}}}}}}}}}}}}}}}}}}}}}}}}}}}}}}}}}}}}}}}}",
"}}}}}}}}}}}}}}}}}}}}}}}}}}}}}}}}}}}}}}}}}}}}}}}}}}",
"}}}}}}}}}}}}}}}}}}}}}}}}}}}}}}}}}}}}}}}}}}}}}}}}}}",
"}}}}}}}}}}}}}}}}}}}}}}}}}}}}}}}}}}}}}}}}}}}}}}}}}}",
"}}}}}}}}}}}}}}}}}}}}}}}}}}}}}}}}}}}}}}}}}}}}}}}}}}",
"}}}}}}}}}}}}}}}}}}}KYRRRRRRRYKK}}}}}}}}}}}}}}}}}}}",
"}}}}}}}}}}}}}}}}KYR!ZBzhuikNHH!YK}}}}}}}}}}}}}}}}}",
"}}}}}}}}}}}}}}}KRZNq-@@@@@@@@8hLZKK}}}}}}}}}}}}}}}",
"}}}}}}}}}}}}}KKRHq@@pSE`[`ESp@@@kPRK}}}}}}}}}}}}}}",
"}}}}}}}}}}}}KYLb. .v/```````/c+X .nRK}}}}}}}}}}}}}",
"}}}}}}}}}}}}KZJO   O_WWWWWWWE_O   O(RK}}}}}}}}}}}}",
"}}}}}}}}}}}KRG'     [TFFFFFFE[     ]RY}}}}}}}}}}}}",
"}}}}}}}}}}KRLD{O   O{UxxxxxxW{O   O{JRK}}}}}}}}}}}",
"}}}}}}}}}}KP0~{QO OQ{)aaaaaa){QO OQ{^CRK}}}}}}}}}}",
"}}}}}}}}}KRB@[{{{{{{{[wwwwww[{{{{{{{[9IK}}}}}}}}}}",
"}}}}}}}}}KZ0@[{{{{{{{[%%%%%%[{{{{{{{]@CRK}}}}}}}}}",
"}}}}}}}}}RV@@~{{{{{{{~@@@@@@~{{{{{{{~@qHK}}}}}}}}}",
"}}}}}}}}KRy@@A{{{{{{{A@@@@@@A{{{{{{{A@@LY}}}}}}}}}",
"}}}}}}}}KH;@@e'{{{{{'e@@@@@@e'{{{{{'e@@kRK}}}}}}}}",
"}}}}}}}}RV@@@@g{{{{{g@@@@@@@@g{{{{{g@@@0RK}}}}}}}}",
"}}}}}}}KIh#@#@#fU[Uf@@@@@@@@@@fU[Uf@@@@$HY}}}}}}}}",
"}}}}}}}K!q#&############@@#@@#@@@@@@@@@@VR}}}}}}}}",
"}}}}}}}KP=&&&&&&&&#&#&###########@#@#@@#zR}}}}}}}}",
"}}}}}}}YH&*&&&&&&&&&&&&&&&&&&##&#&######yRK}}}}}}}",
"}}}}}}}RV=*=*======&=&&&&&&&&&&&&&&&&&&#q!K}}}}}}}",
"}}}}}}}Rm=,,,,===***=*=========&&=&&&&&&2RK}}}}}}}",
"}}}}}}}Rj>>>,>>,,>>>,,>,*,===**===*====*=HK}}}}}}}",
"}}}}}}}Rs<<<<>><><><>>>,>>,=>*>>,,,,,=***HY}}}}}}}",
"}}}}}}}!t<<<<<<<<><<><<<><<><<>>>>,>>>,,,GY}}}}}}}",
"}}}}}}}!q<<<<<<<<<<<<<<<<<<<<<<<<><><><>>CY}}}}}}}",
"}}}}}}}!q<<<<<<<<<<<<<<<<<<<<<<<<<<<<<<<1CY}}}}}}}",
"}}}}}}}!q1<<<<<<1<<<<<<<<<<<<<<<<<<<<<<<<CR}}}}}}}",
"}}}}}}}!q<<<<<<<<<<<<<<<<<<<<<<<<<<<<<<<<CR}}}}}}}",
"}}}}}}}Ry<3<<<<<<<<1<<<1<<<<<<<<<<<<<<<<<GY}}}}}}}",
"}}}}}}}!i544333333<3<31<<<<<<<1<<<<<<<<<<HY}}}}}}}",
"}}}}}}}!j56565556VCd5344<33335uMy<<3<<<<<JY}}}}}}}",
"}}}}}}}RG666666k!RRPV7655555qI!RHPi433333JY}}}}}}}",
"}}}}}}}RLV077qVJYKKKRJy6666lLRKKKYLM6555VR}}}}}}}}",
"}}}}}}}}YRJhzLRYKKKKKRIMqqVLYKKKKKYRJzsZRY}}}}}}}}",
"}}}}}}}}}}R!RRK}}}}}}KYR!!RYK}}}}}}KRR!R}}}}}}}}}}",
"}}}}}}}}}}}}}}}}}}}}}}}}}}}}}}}}}}}}}}}}}}}}}}}}}}",
"}}}}}}}}}}}}}}}}}}}}}}}}}}}}}}}}}}}}}}}}}}}}}}}}}}",
"}}}}}}}}}}}}}}}}}}}}}}}}}}}}}}}}}}}}}}}}}}}}}}}}}}",
"}}}}}}}}}}}}}}}}}}}}}}}}}}}}}}}}}}}}}}}}}}}}}}}}}}",
"}}}}}}}}}}}}}}}}}}}}}}}}}}}}}}}}}}}}}}}}}}}}}}}}}}",
"}}}}}}}}}}}}}}}}}}}}}}}}}}}}}}}}}}}}}}}}}}}}}}}}}}",
"}}}}}}}}}}}}}}}}}}}}}}}}}}}}}}}}}}}}}}}}}}}}}}}}}}"
};
