/* XPM */
static char *opened_door[] = {
/* columns rows colors chars-per-pixel */
"50 50 8 1 ",
"  c black",
". c #430C0C",
"X c #732209",
"o c #A84E00",
"O c #EBAA03",
"+ c #FFEC65",
"@ c #FFFFD0",
"# c None",
/* pixels */
"##################################################",
"##################################################",
"##################################################",
"########################..########################",
"######################..@@..######################",
"####################..@@@@oo..####################",
"###################.@@@@OOoooo.###################",
"###################.+@@OOOOooo.###################",
"##############......++OOOOOOoo......##############",
"############..oOOOO.++OOOOOOoo.OOOOO..############",
"###########.+++OOOO.++OOOOOOoo.OOOOOOO.###########",
"##########.++++Oooo.++oOOOOXXo.oooOOOoo.##########",
"##########.++++o....+oooOOXXXX....ooooo.##########",
"#########.O+++..    ..oooXXX..    ..Oooo.#########",
"#########.OOOo.       ..oX..       .Oooo.#########",
"#########.OOo.          ..          .Ooo.#########",
"#########.OOo.                      .Ooo.#########",
"#########.OOo.                      .Ooo.#########",
"#########.OOo.                      .Ooo.#########",
"#########.OOo.                      .Ooo.#########",
"#########.OOo.                      .Ooo.#########",
"#########.OOo.                      .Ooo.#########",
"#########.OOo.                      .Ooo.#########",
"#########.OOo.                      .Ooo.#########",
"#########.OOo.                      .Ooo.#########",
"#########.OOo.                      .Ooo.#########",
"#########.OOo.                      .Ooo.#########",
"#########.OOo.                      .Ooo.#########",
"#########.OOo.                      .Ooo.#########",
"#########.OOo.                      .Ooo.#########",
"#########.OOo.                      .Ooo.#########",
"#########.OOo.                      .Ooo.#########",
"#########.OOo.                      .Ooo.#########",
"#########.OOo.                      .Ooo.#########",
"#########.OOo.                      .Ooo.#########",
"#########.OOo.                      .Ooo.#########",
"#########.OOo.                      .Ooo.#########",
"#########.OOo.                      .Ooo.#########",
"#########.OOo.                      .Ooo.#########",
"#########.OOo.                      .Ooo.#########",
"#########.OOo.                      .Ooo.#########",
"#########.OOo.                      .Ooo.#########",
"########.++Oo.                      .OoOO.########",
"#######.+++Oo.                      .OoOOO.#######",
"#######.++OOo.                      .OooOO.#######",
"#######.OOOOo.                      .Ooooo.#######",
"#######.OOOOo.                      .Ooooo.#######",
"#######.OOOOo.                      .Ooooo.#######",
"#######.OOOOo.                      .Ooooo.#######",
"#######.ooooX.                      .oXXXX.#######"
};
