/* XPM */
static char *closed_door[] = {
/* columns rows colors chars-per-pixel */
"50 50 9 1 ",
"  c #3F0000",
". c #721D02",
"X c #A84E00",
"o c #8B6464",
"O c #EBAA00",
"+ c #FFE900",
"@ c #FDFF00",
"# c #FCFBFF",
"$ c None",
/* pixels */
"$$$$$$$$$$$$$$$$$$$$$$$$$$$$$$$$$$$$$$$$$$$$$$$$$$",
"$$$$$$$$$$$$$$$$$$$$$$$$$$$$$$$$$$$$$$$$$$$$$$$$$$",
"$$$$$$$$$$$$$$$$$$$$$$$$$$$$$$$$$$$$$$$$$$$$$$$$$$",
"$$$$$$$$$$$$$$$$$$$$$$$#  #$$$$$$$$$$$$$$$$$$$$$$$",
"$$$$$$$$$$$$$$$$$$$$$$  @@  $$$$$$$$$$$$$$$$$$$$$$",
"$$$$$$$$$$$$$$$$$$$$  @@@@XX  $$$$$$$$$$$$$$$$$$$$",
"$$$$$$$$$$$$$$$$$$$ @@@@OOXXXX.$$$$$$$$$$$$$$$$$$$",
"$$$$$$$$$$$$$$$$$$$ +@@OOOOXXX $$$$$$$$$$$$$$$$$$$",
"$$$$$$$$$$$$$$      ++OOOOOOXX      $$$$$$$$$$$$$$",
"$$$$$$$$$$$$  XOOOO ++OOOOOOXX OOOOO  $$$$$$$$$$$$",
"$$$$$$$$$$# +++OOOO ++OOOOOOXX OOOOOOO $$$$$$$$$$$",
"$$$$$$$$$$ ++++OXXX ++XOOOO..X XXXOOOXX $$$$$$$$$$",
"$$$$$$$$$$ ++++X    +XXXOO....    XXXXX $$$$$$$$$$",
"$$$$$$$$$ O+++  ++++  XXX...  ++++  OXXX $$$$$$$$$",
"$$$$$$$$$ OOOX +++++XX  X.  +++++XX OXXX $$$$$$$$$",
"$$$$$$$$$ OOX +++OOOXXXX  ++++OOOXXX OXX $$$$$$$$$",
"$$$$$$$$$ OOX ++OOOOOOXXX+++OOOOOOXX OXX $$$$$$$$$",
"$$$$$$$$$ OOX ++OOOOOOOOX+OOOOOOOOXX OXX $$$$$$$$$",
"$$$$$$$$$ OOX ++OOOOOOOOX+OOOOOOOOXX OXX $$$$$$$$$",
"$$$$$$$$$ OOX ++OOOOOOOOX+OOOOOOOOXX OXX $$$$$$$$$",
"$$$$$$$$$ OOX ++OOOOOOOOX+OOOOOOOOXX OXX $$$$$$$$$",
"$$$$$$$$$ OOX ++OOOOOOOOX+OOOOOOOOXX OXX $$$$$$$$$",
"$$$$$$$$$ OOX ++OOOOOOOOX+OOOOOOOOXX OXX $$$$$$$$$",
"$$$$$$$$$ OOX ++OOOOOOOOX+OOOOOOOOXX OXX $$$$$$$$$",
"$$$$$$$$$ OOX ++OOOOOOOOX+OOOOOOOOXX OXX $$$$$$$$$",
"$$$$$$$$$ OOX ++OOOOOOOOX+OOOOOOOOXX OXX $$$$$$$$$",
"$$$$$$$$$ OOX ++OOOOOOOOX+OOOOOOOOXX OXX $$$$$$$$$",
"$$$$$$$$$ OOX ++OOOOOOOOX+OOOOOOOOXX OXX $$$$$$$$$",
"$$$$$$$$$ OOX ++OOOOOOOOX+OOOOOOOOXX OXX $$$$$$$$$",
"$$$$$$$$$ OOX ++OOOOOOOOX+OOOOOOOOXX OXX $$$$$$$$$",
"$$$$$$$$$ OOX ++OOOOOOOOX+OOOOOOOOXX OXX $$$$$$$$$",
"$$$$$$$$$ OOX ++OOOOOOOOX+OOOOOOOOXX OXX $$$$$$$$$",
"$$$$$$$$$ OOX ++OOOO..OOX+OO..OOOOXX OXX $$$$$$$$$",
"$$$$$$$$$ OOX ++OOOO..OOX+OO..OOOOXX OXX $$$$$$$$$",
"$$$$$$$$$ OOX ++OOOO..OOX+OO..OOOOXX OXX $$$$$$$$$",
"$$$$$$$$$ OOX ++OOOOOOOOX+OOOOOOOOXX OXX $$$$$$$$$",
"$$$$$$$$$ OOX ++OOOOOOOOX+OOOOOOOOXX OXX $$$$$$$$$",
"$$$$$$$$$ OOX ++OOOOOOOOX+OOOOOOOOXX OXX $$$$$$$$$",
"$$$$$$$$$ OOX ++OOOOOOOOX+OOOOOOOOXX OXX $$$$$$$$$",
"$$$$$$$$$ OOX ++OOOOOOOOX+OOOOOOOOXX OXX $$$$$$$$$",
"$$$$$$$$$ OOX ++OOOOOOOOX+OOOOOOOOXX OXX $$$$$$$$$",
"$$$$$$$$$ OOX ++OOOOOOOOX+OOOOOOOOXX OXX $$$$$$$$$",
"$$$$$$$$ ++OX ++OOOOOOOOX+OOOOOOOOXX OXOO $$$$$$$$",
"$$$$$$$o+++OX ++OOOOOOOOX+OOOOOOOOXX OXOOO $$$$$$$",
"$$$$$$$ ++OOX ++OOOOOOOOX+OOOOOOOOXX OXXOO $$$$$$$",
"$$$$$$$ OOOOX ++OOOOOOOOX+OOOOOOOOXX OXXXX $$$$$$$",
"$$$$$$$ OOOOX ++OOOOOOOOX+OOOOOOOOXX OXXXX $$$$$$$",
"$$$$$$$ OOOOX ++OOOOOOOOX+OOOOOOOOXX OXXXX $$$$$$$",
"$$$$$$$ OOOOX ++OOOOOOOOX+OOOOOOOOXX OXXXX $$$$$$$",
"$$$$$$$ XXXX. OOXXXXXXXXXOXXXXXXXX.. X.... $$$$$$$"
};
