/* XPM */
static char *p_exit[] = {
/* columns rows colors chars-per-pixel */
"50 50 51 1 ",
"  c #ED0155",
". c #ED0158",
"X c #EE0158",
"o c #EF015B",
"O c #F0015E",
"+ c #F1015E",
"@ c #F9017C",
"# c #FA0182",
"$ c #FB0088",
"% c #FC008E",
"& c #FC0091",
"* c #FC0094",
"= c #FC0097",
"- c #FD009A",
"; c #FD009D",
": c #FD00A0",
"> c #FD00A2",
", c #FD00A5",
"< c #FE00A5",
"1 c #FE00A7",
"2 c #FE00AA",
"3 c #FE00AC",
"4 c #FE00AF",
"5 c #FE00B1",
"6 c #FE00B3",
"7 c #FE00B6",
"8 c #FE00B8",
"9 c #FF3ED0",
"0 c #FF43D1",
"q c #FF50D1",
"w c #FF63D8",
"e c #FF61DA",
"r c #FF6CDB",
"t c #FF7CDE",
"y c #FF82DE",
"u c #FF85DE",
"i c #FF88DB",
"p c #FF8EDC",
"a c #FF94DF",
"s c #FF9ADF",
"d c #FFAADF",
"f c #FFA5E0",
"g c #FFA0E4",
"h c #FFAFE3",
"j c #FFB3E4",
"k c #FFBCE1",
"l c #FFBCE5",
"z c #FFC5E4",
"x c #FFD4EB",
"c c white",
"v c None",
/* pixels */
"vvvvvvvvvvvvvvvvvvvvvvvvvvvvvvvvvvvvvvvvvvvvvvvvvv",
"vvvvvvvvvvvvvvvvvvvvvvvvvvvvvvvvvvvvvvvvvvvvvvvvvv",
"vvvvvvvvvvvvvvvvvvvvvvvvvvvvvvvvvvvvvvvvvvvvvvvvvv",
"vvvvvvvvvvvvvvvvvvvvvvvvvvvvvvvvvvvvvvvvvvvvvvvvvv",
"vvvvvvvvvvvvvvvvvvvvvvvvvvvvvvvvvvvvvvvvvvvvvvvvvv",
"vvvvvvvvvvvvvvvvvvvvvvvvvvvvvvvvvvvvvvvvvvvvvvvvvv",
"vvvvvvvvvvvvvvvvvvvvvvvvvvvvvvvvvvvvvvvvvvvvvvvvvv",
"vvvvvvvvvvvvvvvvvvvvvvvvvvvvvvvvvvvvvvvvvvvvvvvvvv",
"vvvvvvvvvvvvvvvvvvvvvvvvvvvvvvvvvvvvvvvvvvvvvvvvvv",
"vvvvvvvvvvvvvvvvvvvvvvureeruvvvvvvvvvvvvvvvvvvvvvv",
"vvvvvvvvvvvvvvvvvvvvvfccccccfvvvvvvvvvvvvvvvvvvvvv",
"vvvvvvvvvvvvvvvvvvvvuc888887cuvvvvvvvvvvvvvvvvvvvv",
"vvvvvvvvvvvvvvvvvvvvwc888887cwvvvvvvvvvvvvvvvvvvvv",
"vvvvvvvvvvvvvvvvvvvvqc777777cqvvvvvvvvvvvvvvvvvvvv",
"vvvvvvvvvvvvvvvvvvvv0c777777c0vvvvvvvvvvvvvvvvvvvv",
"vvvvvvvvvvvvvvvvvvvv9c777677c9vvvvvvvvvvvvvvvvvvvv",
"vvvvvvvvvvvvvvvvvvvv9c666666c9vvvvvvvvvvvvvvvvvvvv",
"vvvvvvvvvvvvvvvvvvvv9c556566c9vvvvvvvvvvvvvvvvvvvv",
"vvvvvvvvvvvvvvvvvvvv9c555555c9vvvvvvvvvvvvvvvvvvvv",
"vvvvvvvvvvvvvvvvvvvv9c444444c9vvvvvvvvvvvvvvvvvvvv",
"vvvvvvvvvvvvvvvvvvvv9c333322c9vvvvvvvvvvvvvvvvvvvv",
"vvvvvvvvvvvvvvvvvvvv9c212122c9vvvvvvvvvvvvvvvvvvvv",
"vvvvvvvvvvvvvvvvvvvv9c,,<,,,c9vvvvvvvvvvvvvvvvvvvv",
"vvvvvvvvvvvvvvvvvvvv9c::>:::c9vvvvvvvvvvvvvvvvvvvv",
"vvvvvvvvvvvvvvvvvvvv9c;;;;-;c9vvvvvvvvvvvvvvvvvvvv",
"vvvvvvvvvvvvvvvvvvvv9c=*===*c9vvvvvvvvvvvvvvvvvvvv",
"vvvvvvvvvvvvvvvvvvvv0c%%&&%%c0vvvvvvvvvvvvvvvvvvvv",
"vvvvvvvvvvvvvvvvvvvvqc$$$$$$cqvvvvvvvvvvvvvvvvvvvv",
"vvvvvvvvvvvvvvvvvvvvwc######cwvvvvvvvvvvvvvvvvvvvv",
"vvvvvvvvvvvvvvvvvvvvpc@@@@@@cpvvvvvvvvvvvvvvvvvvvv",
"vvvvvvvvvvvvvvvvvvvvkhcccccchkvvvvvvvvvvvvvvvvvvvv",
"vvvvvvvvvvvvvvvvvvvvvzgyttygzvvvvvvvvvvvvvvvvvvvvv",
"vvvvvvvvvvvvvvvvvvvvvxjfaafjxvvvvvvvvvvvvvvvvvvvvv",
"vvvvvvvvvvvvvvvvvvvvvzgyttygzvvvvvvvvvvvvvvvvvvvvv",
"vvvvvvvvvvvvvvvvvvvvlhcccccchlvvvvvvvvvvvvvvvvvvvv",
"vvvvvvvvvvvvvvvvvvvvscOO+OOOcsvvvvvvvvvvvvvvvvvvvv",
"vvvvvvvvvvvvvvvvvvvvicoooooocivvvvvvvvvvvvvvvvvvvv",
"vvvvvvvvvvvvvvvvvvvvicXXXXXXcivvvvvvvvvvvvvvvvvvvv",
"vvvvvvvvvvvvvvvvvvvvic. ... civvvvvvvvvvvvvvvvvvvv",
"vvvvvvvvvvvvvvvvvvvvvdccccccdvvvvvvvvvvvvvvvvvvvvv",
"vvvvvvvvvvvvvvvvvvvvvvureeruvvvvvvvvvvvvvvvvvvvvvv",
"vvvvvvvvvvvvvvvvvvvvvvvvvvvvvvvvvvvvvvvvvvvvvvvvvv",
"vvvvvvvvvvvvvvvvvvvvvvvvvvvvvvvvvvvvvvvvvvvvvvvvvv",
"vvvvvvvvvvvvvvvvvvvvvvvvvvvvvvvvvvvvvvvvvvvvvvvvvv",
"vvvvvvvvvvvvvvvvvvvvvvvvvvvvvvvvvvvvvvvvvvvvvvvvvv",
"vvvvvvvvvvvvvvvvvvvvvvvvvvvvvvvvvvvvvvvvvvvvvvvvvv",
"vvvvvvvvvvvvvvvvvvvvvvvvvvvvvvvvvvvvvvvvvvvvvvvvvv",
"vvvvvvvvvvvvvvvvvvvvvvvvvvvvvvvvvvvvvvvvvvvvvvvvvv",
"vvvvvvvvvvvvvvvvvvvvvvvvvvvvvvvvvvvvvvvvvvvvvvvvvv",
"vvvvvvvvvvvvvvvvvvvvvvvvvvvvvvvvvvvvvvvvvvvvvvvvvv"
};
