/* XPM */
static char *p_op_exit[] = {
/* columns rows colors chars-per-pixel */
"50 50 222 2 ",
"   c #6D0D6D",
".  c #680468",
"X  c #760671",
"o  c #7B0674",
"O  c #790B74",
"+  c #721271",
"@  c #761975",
"#  c #7C1678",
"$  c #7D237B",
"%  c #840B7A",
"&  c #8A087D",
"*  c #84167D",
"=  c #85277F",
"-  c #8C0E80",
";  c #960D85",
":  c #8A1881",
">  c #941385",
",  c #9D1C8D",
"<  c #971889",
"1  c #A50E8E",
"2  c #A2138E",
"3  c #A11A8F",
"4  c #AC0F92",
"5  c #AC1493",
"6  c #A51B91",
"7  c #AB1B95",
"8  c #A91893",
"9  c #B21396",
"0  c #B61499",
"q  c #BC149C",
"w  c #B4199A",
"e  c #BB199D",
"r  c #8A2282",
"t  c #8B2A85",
"y  c #842781",
"u  c #9D228E",
"i  c #96288B",
"p  c #8D3388",
"a  c #94338C",
"s  c #96398E",
"d  c #9D2B91",
"f  c #9D3492",
"g  c #9D3C94",
"h  c #953E90",
"j  c #A32392",
"k  c #AA2396",
"l  c #A32B94",
"z  c #AC2598",
"x  c #AB2D9A",
"c  c #B3279C",
"v  c #AB359B",
"b  c #AC3B9D",
"n  c #A33897",
"m  c #B2309C",
"M  c #BF1AA0",
"N  c #BF23A1",
"B  c #AC35A3",
"V  c #C0149F",
"C  c #C416A2",
"Z  c #C917A5",
"A  c #C31AA2",
"S  c #CB1BA6",
"D  c #CF1AA8",
"F  c #D31CAB",
"G  c #D91EAE",
"H  c #DC1FB0",
"J  c #CE23AA",
"K  c #C827A7",
"L  c #D422AC",
"P  c #D428AE",
"I  c #DC22B1",
"U  c #DB2CB3",
"Y  c #D62AB0",
"T  c #D532B1",
"R  c #DB38B6",
"E  c #C133BA",
"W  c #E224B5",
"Q  c #E32AB7",
"!  c #EA2CBA",
"~  c #E62BB8",
"^  c #ED33BC",
"/  c #E339BB",
"(  c #F23ABE",
")  c #F136BD",
"_  c #944592",
"`  c #9C4395",
"'  c #994A97",
"]  c #9E579C",
"[  c #A4449A",
"{  c #A54B9C",
"}  c #A9469D",
"|  c #A3519E",
" . c #B3409F",
".. c #AC4BA2",
"X. c #AD41A0",
"o. c #B24BA4",
"O. c #B74AA5",
"+. c #A35EA1",
"@. c #AB5CA5",
"#. c #A855A2",
"$. c #B357A7",
"%. c #A462A2",
"&. c #AB67A8",
"*. c #BB61AA",
"=. c #B666AD",
"-. c #AC73AB",
";. c #AF79AF",
":. c #B174AF",
">. c #B96BB1",
",. c #B878B4",
"<. c #C646AA",
"1. c #DD43BB",
"2. c #D74AB5",
"3. c #C351B7",
"4. c #E443BE",
"5. c #E645BE",
"6. c #E356BD",
"7. c #C97BB9",
"8. c #D27DBB",
"9. c #CA6AB5",
"0. c #D232D0",
"q. c #ED3EC0",
"w. c #F13EC0",
"e. c #F13CEB",
"r. c #ED3EED",
"t. c #E749C1",
"y. c #F443C0",
"u. c #F44BC3",
"i. c #EB52C5",
"p. c #E858C5",
"a. c #F653C4",
"s. c #F85CC3",
"d. c #F55AC8",
"f. c #E059D5",
"g. c #DB7DC4",
"h. c #D963C8",
"j. c #EA64CA",
"k. c #E96BC8",
"l. c #F864C6",
"z. c #F365CC",
"x. c #F66BCE",
"c. c #F96DCB",
"v. c #F866C7",
"b. c #EA76CE",
"n. c #F972CA",
"m. c #EC75D1",
"M. c #F37BD3",
"N. c #F97BD1",
"B. c #F676D3",
"V. c #EE6CD6",
"C. c #F74AEA",
"Z. c #F95BE6",
"A. c #F341F3",
"S. c #FF46FF",
"D. c #FF4BFD",
"F. c #F94BF3",
"G. c #FD5BF4",
"H. c #FF53FA",
"J. c #FE58F7",
"K. c #FB6DE9",
"L. c #FD75EE",
"P. c #FD7DE3",
"I. c #FE69F3",
"U. c #B685B6",
"Y. c #BC8CBB",
"T. c #B886B7",
"R. c #BE91BE",
"E. c #C487BF",
"W. c #DC85C3",
"Q. c #DF8DC4",
"!. c #C994C5",
"~. c #C49DC4",
"^. c #C699C4",
"/. c #C78EC2",
"(. c #E08DC6",
"). c #E689C9",
"_. c #F684CD",
"`. c #EB9BCF",
"'. c #E793CA",
"]. c #EA86D3",
"[. c #F484D6",
"{. c #F986D3",
"}. c #F58CD5",
"|. c #F98CD5",
" X c #F58CD9",
".X c #FA89DB",
"XX c #EE9DD1",
"oX c #F49CD4",
"OX c #FA9BD6",
"+X c #F592DB",
"@X c #FA92D9",
"#X c #FA9BDC",
"$X c #F797D8",
"%X c #CBA4CA",
"&X c #CDACCD",
"*X c #C7A3C7",
"=X c #D2A8CE",
"-X c #D3B4D3",
";X c #D7BCD7",
":X c #D4ABD1",
">X c #EFA1D1",
",X c #F3A2D4",
"<X c #FAA1D6",
"1X c #FBA4DB",
"2X c #FBABDA",
"3X c #F6A6D8",
"4X c #FCB1DB",
"5X c #FD83EA",
"6X c #FB8AE5",
"7X c #FD9EE2",
"8X c #FD93E5",
"9X c #FBA4E0",
"0X c #F8A6E2",
"qX c #F9B2E5",
"wX c #D9C0D9",
"eX c #DFCBDF",
"rX c #E0CCE0",
"tX c #E5D5E5",
"yX c #EADCEA",
"uX c #EEE4EE",
"iX c #F2E9F2",
"pX c None",
/* pixels */
"pXpXpXpXpXpXpXpXpXpXpXpXpXpXpXpXpXpXpXpXpXpXpXpXpXpXpXpXpXpXpXpXpXpXpXpXpXpXpXpXpXpXpXpXpXpXpXpXpXpX",
"pXpXpXpXpXpXpXpXpXpXpXpXpXpXpXpXpXpXpXpXpXpXpXpXpXpXpXpXpXpXpXpXpXpXpXpXpXpXpXpXpXpXpXpXpXpXpXpXpXpX",
"pXpXpXpXpXpXpXpXpXpXpXpXpXpXpXpXpXpXpXpXpXpXpXpXpXpXpXpXpXpXpXpXpXpXpXpXpXpXpXpXpXpXpXpXpXpXpXpXpXpX",
"pXpXpXpXpXpXpXpXpXpXpXpXpXpXpXpXpXpXpXpXpXpXpXpXpXpXpXpXpXpXpXpXpXpXpXpXpXpXpXpXpXpXpXpXpXpXpXpXpXpX",
"pXpXpXpXpXpXpXpXpXpXpXpXpXpXpXpXpXpXpXpXpXpXpXpXpXpXpXpXpXpXpXpXpXpXpXpXpXpXpXpXpXpXpXpXpXpXpXpXpXpX",
"pXpXpXpXpXpXpXpXpXpXpXpXS.D.D.H.J.D.D.F.S.pXpXpXpXpXpXpXpXD.D.D.J.D.D.D.S.pXpXpXpXpXpXpXpXpXpXpXpXpX",
"pXpXpXpXpXpXpXpXpXpXpX0.B $.E.(.(.E.8.3.0.e.S.pXpXpXS.S.r.h.W.).(.(.g.9.E 0.S.pXpXpXpXpXpXpXpXpXpXpX",
"pXpXpXpXpXpXpXpXpXS.H.].,X(.*.p a ` 8.XXE.3.e.S.S.S.S.f.).`.8.[ a a 9.'.oX).0.A.pXpXpXpXpXpXpXpXpXpX",
"pXpXpXpXpXpXpXpXS.L.3X'.$ $ @ @ @ @ $ y >.3Xg.A.D.D.].3X>.= % X X o % : d '.`.h.r.S.pXpXpXpXpXpXpXpX",
"pXpXpXpXpXpXpXpX8X3X$.+ ;.wXuXuXtXwXU._ $ y `.g.A.].3Xr O h ,.!.%X!.>.{ < < <.oXb.S.pXpXpXpXpXpXpXpX",
"pXpXpXpXpXpXpX5X2Xa   &XuXiXuXuXtXwX&XU.' @ t Q.oX,Xr X :.:X-X=X^.E.,.*..., ; B 3Xb.S.pXpXpXpXpXpXpX",
"pXpXpXpXpXpXI.3Xg   &XiXuXuXtXeXwX*XR.;.%.y @ ..,Xo.X &.-X:X!./.g.>.*.$.X.B 3 ; <.,XZ.S.pXpXpXpXpXpX",
"pXpXpXpXpXpX7XW.. -.tXuXtXeXwX-X*XY.;.%.h y @ O O o f ^.%X!.E.7.=.$.o.b x j 1 4 4 ).}.S.pXpXpXpXpXpX",
"pXpXpXpXpXH.2Xr + &XtXeXwX-X&X~.U.;.%._ p $ # # # o @.!.E.7.>.$.$.o.v x 7 4 4 4 4 K ,XC.S.pXpXpXpXpX",
"pXpXpXpXpX5XXX. = wXeX;X&X*XR.U.;.%._ p y y * # - o #.=.=.=.$.o.b v k 7 5 5 9 9 q q XXV.S.pXpXpXpXpX",
"pXpXpXpXpX7X8.  ' wX-X&X~.R.U.;.%.' _ p t : : * - - g X.o.o.b v x k 7 4 4 9 9 0 q V ).].S.pXpXpXpXpX",
"pXpXpXpXpX9X*.  +.&X&X~.R.U.-.&.] _ h p t r < : - - d l B v x z 9 9 4 9 9 0 q V V C p.OXS.pXpXpXpXpX",
"pXpXpXpXS.2X{   -.*X~.R.U.:.&.+.' _ a a i r : < > > 3 u j z z 7 9 4 9 0 0 V V C C Z 6.OXS.pXpXpXpXpX",
"pXpXpXpXS.2Xh + -.*XY.T.,.&.+.' ` g a a i < < > ; ; 2 3 6 k 7 9 4 9 q V V C C C S D 2.<XS.pXpXpXpXpX",
"pXpXpXpXS.9X[ + &.~.T.,.-.&.#.' ` g f d i u , < < 1 2 6 7 9 9 9 9 q q V C C D D F G 6.<XS.pXpXpXpXpX",
"pXpXpXpXpX9X*.+ %.R.U.:.&.#.' [ g f d d d , 3 3 2 1 4 4 9 9 0 0 V V V C Z D D F F G k.OXS.pXpXpXpXpX",
"pXpXpXpXpX7X8.O ' Y.:.&.+.{ [ g f d d d d 6 6 6 8 4 4 4 0 0 q q V C Z D D F F G G H _.|.S.pXpXpXpXpX",
"pXpXpXpXpX5X`.X g :.&.@.#.[ n f d d j j 6 6 7 8 5 9 9 0 q q C C C Z D D F G H H W W $XM.S.pXpXpXpXpX",
"pXpXpXpXpXI.3Xo t &.=.#.{ n f d u u 6 6 7 7 7 w w 0 q q q C C Z D D F F G H H W W W <XZ.S.pXpXpXpXpX",
"pXpXpXpXpXD.2Xo.: { @...[ n l , , 6 6 8 7 9 w w w q q C C Z Z D F F G G I I W W W j.2XS.S.pXpXpXpXpX",
"pXpXpXpXpXH.7X`.% f ....v l d 6 6 8 5 5 9 0 w e M M C Z S S D F G G G I W W W W ! 1XOXS.pXpXpXpXpXpX",
"pXpXpXpXpXpXL.2X& < } b x l j 7 8 7 9 w w w q M A A S D D D F G H H W W W W ~ ! ! 2XL.S.pXpXpXpXpXpX",
"pXpXpXpXpXpXD.2XX.; l v l z 7 7 7 w w e q q A A S S D J F G I I H W W ~ W ! ! ) s.2XD.S.pXpXpXpXpXpX",
"pXpXpXpXpXpXS.].`.; 6 x x z z w w w q q M A Z S D F L I I I I W W W ~ ! ! ! ) ) OX.XD.pXpXpXpXpXpXpX",
"pXpXpXpXpXpXpXF.2Xm 2 z c c w w e e M A A S J J P Y P I I U W Q Q ! ~ ! ) ) ) s.4XC.S.pXpXpXpXpXpXpX",
"pXpXpXpXpXpXpXS.+X).5 5 N c e e M M A Z J J Y I U U U Q U Q ~ ~ ! ! ) ) ) ( 5.@X@XS.pXpXpXpXpXpXpXpX",
"pXpXpXpXpXpXpXS.J.,X<.9 w N N N A S J J P Y U U R R R ~ q.! ! q.) ) ( ( ( y.c.2XG.S.pXpXpXpXpXpXpXpX",
"pXpXpXpXpXpXpXpXS.b.oXq q A K K K K P T T R / 1.4.4.4.4.t.q.q.q.w.w.w.y.y.u.2X6XS.pXpXpXpXpXpXpXpXpX",
"pXpXpXpXpXpXpXpXD.F.@X8.q C K K P T R R 1.t.t.t.i.i.i.i.i.u.u.u.y.u.u.u.u.{.1XH.S.pXpXpXpXpXpXpXpXpX",
"pXpXpXpXpXpXpXpXpXS.K.4X2.Z L T R 1.1.6.p.p.h.j.V.z.z.z.z.z.d.d.d.d.a.u.n.4XL.S.pXpXpXpXpXpXpXpXpXpX",
"pXpXpXpXpXpXpXpXpXpXS.j.4XT F T 1.6.p.p.j.V.m.m.M.M.M.M.B.B.x.x.v.s.s.v.qXN.S.pXpXpXpXpXpXpXpXpXpXpX",
"pXpXpXpXpXpXpXpXpXpXS.e.}.}.T L / p.m.m.m.M.[. X X+X X X.X[.N.n.x.l.l.<XOXD.S.pXpXpXpXpXpXpXpXpXpXpX",
"pXpXpXpXpXpXpXpXpXpXpXS.C.}.oXQ W / j.[.+X+X+X#X7X$X#X#X#X|.{.n.l.v.<X@XG.S.pXpXpXpXpXpXpXpXpXpXpXpX",
"pXpXpXpXpXpXpXpXpXpXpXpXS.J.#X@Xt.~ q.i.m.+X0X0XqXqX0X#X|.N.c.l.c.OX<XZ.S.pXpXpXpXpXpXpXpXpXpXpXpXpX",
"pXpXpXpXpXpXpXpXpXpXpXpXpXpXJ.8X1XV.~ t.d.M.|.7X0X3X#X XN.c.l.{.2X@XK.S.pXpXpXpXpXpXpXpXpXpXpXpXpXpX",
"pXpXpXpXpXpXpXpXpXpXpXpXpXpXpXH.L.2X|.u.( ( x..X@X@X{.n.6.n.OX2XP.H.S.pXpXpXpXpXpXpXpXpXpXpXpXpXpXpX",
"pXpXpXpXpXpXpXpXpXpXpXpXpXpXpXpXD.I.8X<X|.u.u.a.l.v.6.l.|.1XOXK.S.S.pXpXpXpXpXpXpXpXpXpXpXpXpXpXpXpX",
"pXpXpXpXpXpXpXpXpXpXpXpXpXpXpXpXpXpXH.L.1X2X.Xa.s.s.{.1X2XP.H.S.pXpXpXpXpXpXpXpXpXpXpXpXpXpXpXpXpXpX",
"pXpXpXpXpXpXpXpXpXpXpXpXpXpXpXpXpXpXpXpXJ.5X1X9X7X#X8X5XI.D.pXpXpXpXpXpXpXpXpXpXpXpXpXpXpXpXpXpXpXpX",
"pXpXpXpXpXpXpXpXpXpXpXpXpXpXpXpXpXpXpXpXpXpXpXL.7X5XI.pXpXpXpXpXpXpXpXpXpXpXpXpXpXpXpXpXpXpXpXpXpXpX",
"pXpXpXpXpXpXpXpXpXpXpXpXpXpXpXpXpXpXpXpXpXpXpXpXpXpXpXpXpXpXpXpXpXpXpXpXpXpXpXpXpXpXpXpXpXpXpXpXpXpX",
"pXpXpXpXpXpXpXpXpXpXpXpXpXpXpXpXpXpXpXpXpXpXpXpXpXpXpXpXpXpXpXpXpXpXpXpXpXpXpXpXpXpXpXpXpXpXpXpXpXpX",
"pXpXpXpXpXpXpXpXpXpXpXpXpXpXpXpXpXpXpXpXpXpXpXpXpXpXpXpXpXpXpXpXpXpXpXpXpXpXpXpXpXpXpXpXpXpXpXpXpXpX",
"pXpXpXpXpXpXpXpXpXpXpXpXpXpXpXpXpXpXpXpXpXpXpXpXpXpXpXpXpXpXpXpXpXpXpXpXpXpXpXpXpXpXpXpXpXpXpXpXpXpX",
"pXpXpXpXpXpXpXpXpXpXpXpXpXpXpXpXpXpXpXpXpXpXpXpXpXpXpXpXpXpXpXpXpXpXpXpXpXpXpXpXpXpXpXpXpXpXpXpXpXpX"
};
