/* XPM */
static char *p_down1[] = {
/* columns rows colors chars-per-pixel */
"50 50 73 1 ",
"  c #A98301",
". c #AE8A03",
"X c #AB8609",
"o c #AD890C",
"O c #B08E04",
"+ c #B49306",
"@ c #B79807",
"# c #B79908",
"$ c #B99C09",
"% c #AE8B12",
"& c #B08D17",
"* c #B2911D",
"= c #BEA20B",
"- c #B49322",
"; c #B6972A",
": c #B8992F",
"> c #BA9B34",
", c #BC9F3A",
"< c #BDA13F",
"1 c #C1A60C",
"2 c #C4AB0E",
"3 c #C6B00F",
"4 c #C8B10F",
"5 c #DEB709",
"6 c #DEBE0D",
"7 c #C5AF10",
"8 c #C7B010",
"9 c #CAB511",
"0 c #CEBB14",
"q c #D0BD14",
"w c #E5B604",
"e c #EBB702",
"r c #EBB904",
"t c #E1BC0A",
"y c #DFC20F",
"u c #D3C316",
"i c #D8C214",
"p c #D5C718",
"a c #D6C819",
"s c #DACD1A",
"d c #DED41C",
"f c #E5C10C",
"g c #E9C50D",
"h c #E9C80F",
"j c #E2CA14",
"k c #E8CD13",
"l c #E1CF18",
"z c #E6D116",
"x c #E8D216",
"c c #E3D61C",
"v c #E8D418",
"b c #E5DB1E",
"n c #E5DE20",
"m c #E6E021",
"M c #BFA344",
"N c #C0A446",
"B c #C1A649",
"V c #C3A84E",
"C c #C5AB54",
"Z c #C7AF5B",
"A c #C8B15F",
"S c #CAB464",
"D c #CDB76D",
"F c #D0BC76",
"G c #D2BE7B",
"H c #D3C07F",
"J c #D4C180",
"K c #DECF9C",
"L c #DED09F",
"P c #E4D8B0",
"I c #E8DFBD",
"U c #EAE1C1",
"Y c None",
/* pixels */
"YYYYYYYYYYYYYYYYYYYYYYYYYYYYYYYYYYYYYYYYYYYYYYYYYY",
"YYYYYYYYYYYYYYYYYYYYYYYYYYYYYYYYYYYYYYYYYYYYYYYYYY",
"YYYYYYYYYYYYYYYYYYYYYYYYYYYYYYYYYYYYYYYYYYYYYYYYYY",
"YYYYYYYYYYYYYYYYYYYYYYYYYYYYYYYYYYYYYYYYYYYYYYYYYY",
"YYYYYYYYYYYYYYYYYYYYYYYYYYYYYYYYYYYYYYYYYYYYYYYYYY",
"YYYYYYYYYYYYYYYYYYYYYYYYYYYYYYYYYYYYYYYYYYYYYYYYYY",
"YYYYYYYYYYYYYYYYYYYYYeeeeereeeYYYYYYYYYYYYYYYYYYYY",
"YYYYYYYYYYYYYYYYYYerlccbnnccsi5eeYYYYYYYYYYYYYYYYY",
"YYYYYYYYYYYYYYYYwgcnd07$..@10sdnjeYYYYYYYYYYYYYYYY",
"YYYYYYYYYYYYYYYgcnqO >DKUUKD> O9bbgeYYYYYYYYYYYYYY",
"YYYYYYYYYYYYYYhnp+ &SPIIIIIIPS&  0mzeYYYYYYYYYYYYY",
"YYYYYYYYYYYYYln1  %SLLLKKKKKLLS%  #dcwYYYYYYYYYYYY",
"YYYYYYYYYYYYxb@   ,HHGHFFFFGGHH,   OdvwYYYYYYYYYYY",
"YYYYYYYYYYYkn@    MAZZCVMMMVZZSB    .cleYYYYYYYYYY",
"YYYYYYYYYYgb2     <<,>;--*-;:,,M     =djeYYYYYYYYY",
"YYYYYYYYYYba      *--%XXXXXo%&-*  . ..0beYYYYYYYYY",
"YYYYYYYYYhc+       XX  .$X XXOoX ... OObjeYYYYYYYY",
"YYYYYYYYYnu            7n0   . ....OOOO9ceYYYYYYYY",
"YYYYYYYYen            7bvbqO..OOOOOOO+OOb6eYYYYYYY",
"YYYYYYYYkb          O2bkehnqO.OOO+O+O+@@saeYYYYYYY",
"YYYYYYYYbp    .    .2nkeeehbu+O+O+@+@@@@0ceYYYYYYY",
"YYYYYYYYn8     . XO8nkeYYYehbu#+@@@$$$$$=nwYYYYYYY",
"YYYYYYYYm$ . . ...1nxYYYYYYYhbp#@@$$$==1=n5eYYYYYY",
"YYYYYYYYm+...OOOO7nkYYYYYYYYYhba1==$11112n6eYYYYYY",
"YYYYYYYYnOOOOOO+4bxYYYYYYYYYYYhba11111212nfeYYYYYY",
"YYYYYYYYn=O++O+1bxYYYYYYYYYYYYYhbs2224447nteYYYYYY",
"YYYYYYYYn9+++@4bxYYYYYYYYYYYYYYYgbs444449nwYYYYYYY",
"YYYYYYYYbq+@@1bxYYYYYYYYYYYYYYYYYgbd44q9uneYYYYYYY",
"YYYYYYYYvb@$9nvYYYYYYYYYYYYYYYYYYYgbdq00dbeYYYYYYY",
"YYYYYYYYgm$9bxYYYYYYYYYYYYYYYYYYYYYgbcupbseYYYYYYY",
"YYYYYYYYYmanvYYYYYYYYYYYYYYYYYYYYYYYgbdnnfYYYYYYYY",
"YYYYYYYYYkmvYYYYYYYYYYYYYYYYYYYYYYYYYgvncYYYYYYYYY",
"YYYYYYYYYYYYYYYYYYYYYYYYYYYYYYYYYYYYYYYYfYYYYYYYYY",
"YYYYYYYYYYYYYYYYYYYYYYYYYYYYYYYYYYYYYYYYYYYYYYYYYY",
"YYYYYYYYYYYYYYYYYYYYYYYYYYYYYYYYYYYYYYYYYYYYYYYYYY",
"YYYYYYYYYYYYYYYYYYYYYYYYYYYYYYYYYYYYYYYYYYYYYYYYYY",
"YYYYYYYYYYYYYYYYYYYYYYYYYYYYYYYYYYYYYYYYYYYYYYYYYY",
"YYYYYYYYYYYYYYYYYYYYYYYYYYYYYYYYYYYYYYYYYYYYYYYYYY",
"YYYYYYYYYYYYYYYYYYYYYYYYYYYYYYYYYYYYYYYYYYYYYYYYYY",
"YYYYYYYYYYYYYYYYYYYYYYYYYYYYYYYYYYYYYYYYYYYYYYYYYY",
"YYYYYYYYYYYYYYYYYYYYYYYYYYYYYYYYYYYYYYYYYYYYYYYYYY",
"YYYYYYYYYYYYYYYYYYYYYYYYYYYYYYYYYYYYYYYYYYYYYYYYYY",
"YYYYYYYYYYYYYYYYYYYYYYYYYYYYYYYYYYYYYYYYYYYYYYYYYY",
"YYYYYYYYYYYYYYYYYYYYYYYYYYYYYYYYYYYYYYYYYYYYYYYYYY",
"YYYYYYYYYYYYYYYYYYYYYYYYYYYYYYYYYYYYYYYYYYYYYYYYYY",
"YYYYYYYYYYYYYYYYYYYYYYYYYYYYYYYYYYYYYYYYYYYYYYYYYY",
"YYYYYYYYYYYYYYYYYYYYYYYYYYYYYYYYYYYYYYYYYYYYYYYYYY",
"YYYYYYYYYYYYYYYYYYYYYYYYYYYYYYYYYYYYYYYYYYYYYYYYYY",
"YYYYYYYYYYYYYYYYYYYYYYYYYYYYYYYYYYYYYYYYYYYYYYYYYY",
"YYYYYYYYYYYYYYYYYYYYYYYYYYYYYYYYYYYYYYYYYYYYYYYYYY"
};
