/* XPM */
static char *p_down[] = {
/* columns rows colors chars-per-pixel */
"50 50 72 1 ",
"  c #A98301",
". c #AD8A03",
"X c #AB8709",
"o c #AD890C",
"O c #B08E04",
"+ c #B49306",
"@ c #B79807",
"# c #B79908",
"$ c #BA9C09",
"% c #AE8B12",
"& c #B08D17",
"* c #B2911D",
"= c #BEA20B",
"- c #B49322",
"; c #B6972A",
": c #B8992F",
"> c #BA9B34",
", c #BC9F3A",
"< c #BDA13F",
"1 c #C1A60C",
"2 c #C4AC0E",
"3 c #C7B00F",
"4 c #C8B10F",
"5 c #DEB709",
"6 c #DEBE0D",
"7 c #C7B110",
"8 c #CAB411",
"9 c #CEBA13",
"0 c #D1BD14",
"q c #E5B604",
"w c #EBB702",
"e c #EABC06",
"r c #E1BC0A",
"t c #DFC20F",
"y c #D4C316",
"u c #D8C214",
"i c #D9C917",
"p c #D5C718",
"a c #D6C818",
"s c #DACC19",
"d c #DED31C",
"f c #E4C10C",
"g c #EAC40C",
"h c #E9C80F",
"j c #E2CA14",
"k c #E8CC12",
"l c #E1CF18",
"z c #E6D116",
"x c #E8D116",
"c c #E4D61B",
"v c #E5DB1E",
"b c #E6DE20",
"n c #E6E021",
"m c #BFA344",
"M c #C0A446",
"N c #C1A649",
"B c #C3A84E",
"V c #C5AB54",
"C c #C7AF5B",
"Z c #C8B15F",
"A c #CAB464",
"S c #CDB76D",
"D c #D0BC76",
"F c #D2BE7B",
"G c #D3C07F",
"H c #D4C180",
"J c #DECF9C",
"K c #DED09F",
"L c #E4D8B0",
"P c #E8DFBD",
"I c #EAE1C1",
"U c None",
/* pixels */
"UUUUUUUUUUUUUUUUUUUUUUUUUUUUUUUUUUUUUUUUUUUUUUUUUU",
"UUUUUUUUUUUUUUUUUUUUUUUUUUUUUUUUUUUUUUUUUUUUUUUUUU",
"UUUUUUUUUUUUUUUUUUUUUUUUUUUUUUUUUUUUUUUUUUUUUUUUUU",
"UUUUUUUUUUUUUUUUUUUUUUUUUUUUUUUUUUUUUUUUUUUUUUUUUU",
"UUUUUUUUUUUUUUUUUUUUUUUUUUUUUUUUUUUUUUUUUUUUUUUUUU",
"UUUUUUUUUUUUUUUUUUUUUUUUUUUUUUUUUUUUUUUUUUUUUUUUUU",
"UUUUUUUUUUUUUUUUUUUUUwwwwwqwwwUUUUUUUUUUUUUUUUUUUU",
"UUUUUUUUUUUUUUUUUUwejcvvbvbcsu5wwUUUUUUUUUUUUUUUUU",
"UUUUUUUUUUUUUUUUwkdbd02$..#19sdbjwUUUUUUUUUUUUUUUU",
"UUUUUUUUUUUUUUUgcdy. >SJIIJS> .9bvgwUUUUUUUUUUUUUU",
"UUUUUUUUUUUUUUhbp+ &ALPPPPPPLA&  9nzwUUUUUUUUUUUUU",
"UUUUUUUUUUUUUlb1  %AKKKJJJJJKKA%  #dcqUUUUUUUUUUUU",
"UUUUUUUUUUUUxv@   ,HHHFDDDDFHHH,   OdvqUUUUUUUUUUU",
"UUUUUUUUUUUkb#    mZCCVBmmmBVCAm    .dkwUUUUUUUUUU",
"UUUUUUUUUUgv2     m<,>;--*-;;,m<     =djwUUUUUUUUU",
"UUUUUUUUUUvi      *-*%oXXXXo%*-*  . ..9vwUUUUUUUUU",
"UUUUUUUUUhc+       XX. .d  .XX%X  O O OvjwUUUUUUUU",
"UUUUUUUUUby            pb=   . ...OOOOO8dwUUUUUUUU",
"UUUUUUUUwb            Onvd....OOOOOOOO++b6wUUUUUUU",
"UUUUUUUUkb            8vgb$O..OOO+O++@+@siwUUUUUUU",
"UUUUUUUUvp        .. .vxwvsOO+O+++++@@$@9dwUUUUUUU",
"UUUUUUUUb2  . . X ...2vewgn=++++@@@$@$$$=bqUUUUUUU",
"UUUUUUUUn$ .  O ....+scwwwvi@@@##$$$$1$1=b5wUUUUUU",
"UUUUUUUUn+..O.OO.O++$bgwwwgb1@$$=$$1$1112b6wUUUUUU",
"UUUUUUUUnOOOOOO+O+++sveUUUwvs===1=1111127dfwUUUUUU",
"UUUUUUUUn$O++O++@+@@vkUUUUUkv111111222447bfwUUUUUU",
"UUUUUUUUb8++++@@@@$0veUUUUUwvi11224444448bqUUUUUUU",
"UUUUUUUUb0+@@@##$$=bxUUUUUUUkv2244444880ybwUUUUUUU",
"UUUUUUUUxv#$$$$$$12beUUUUUUUebi849449999ddwUUUUUUU",
"UUUUUUUUgn=$$=1111svUUUUUUUUUxv8490099yyvdwUUUUUUU",
"UUUUUUUUUv01111114bhUUUUUUUUUebs900yyypsvgwUUUUUUU",
"UUUUUUUUUxv211124svUUUUUUUUUUUxvyyyupiavvwUUUUUUUU",
"UUUUUUUUUwvi22448vxUUUUUUUUUUUgnsiiissdngwUUUUUUUU",
"UUUUUUUUUUkv8888ineUUUUUUUUUUUUxvssssdvvwUUUUUUUUU",
"UUUUUUUUUUUvv989nxUUUUUUUUUUUUUgvdcccbnewUUUUUUUUU",
"UUUUUUUUUUUevs0ingUUUUUUUUUUUUUUcvccbngwUUUUUUUUUU",
"UUUUUUUUUUUUUnsvvUUUUUUUUUUUUUUUgvvnnxwUUUUUUUUUUU",
"UUUUUUUUUUUUUUbvUUUUUUUUUUUUUUUUUxnnhwUUUUUUUUUUUU",
"UUUUUUUUUUUUUUUxUUUUUUUUUUUUUUUUUUhgUUUUUUUUUUUUUU",
"UUUUUUUUUUUUUUUUUUUUUUUUUUUUUUUUUUUUUUUUUUUUUUUUUU",
"UUUUUUUUUUUUUUUUUUUUUUUUUUUUUUUUUUUUUUUUUUUUUUUUUU",
"UUUUUUUUUUUUUUUUUUUUUUUUUUUUUUUUUUUUUUUUUUUUUUUUUU",
"UUUUUUUUUUUUUUUUUUUUUUUUUUUUUUUUUUUUUUUUUUUUUUUUUU",
"UUUUUUUUUUUUUUUUUUUUUUUUUUUUUUUUUUUUUUUUUUUUUUUUUU",
"UUUUUUUUUUUUUUUUUUUUUUUUUUUUUUUUUUUUUUUUUUUUUUUUUU",
"UUUUUUUUUUUUUUUUUUUUUUUUUUUUUUUUUUUUUUUUUUUUUUUUUU",
"UUUUUUUUUUUUUUUUUUUUUUUUUUUUUUUUUUUUUUUUUUUUUUUUUU",
"UUUUUUUUUUUUUUUUUUUUUUUUUUUUUUUUUUUUUUUUUUUUUUUUUU",
"UUUUUUUUUUUUUUUUUUUUUUUUUUUUUUUUUUUUUUUUUUUUUUUUUU",
"UUUUUUUUUUUUUUUUUUUUUUUUUUUUUUUUUUUUUUUUUUUUUUUUUU"
};
