/* XPM */
static char *p_left[] = {
/* columns rows colors chars-per-pixel */
"50 50 76 1 ",
"  c #A98301",
". c #AD8A03",
"X c #AB870A",
"o c #AC880D",
"O c #B08E04",
"+ c #B49306",
"@ c #B79807",
"# c #B89907",
"$ c #B79908",
"% c #BA9D09",
"& c #AE8B12",
"* c #B08D17",
"= c #B18F1A",
"- c #B3911F",
"; c #BEA30B",
": c #B49323",
"> c #B69629",
", c #B7982D",
"< c #B8992E",
"1 c #BA9C35",
"2 c #BC9F3C",
"3 c #BDA13F",
"4 c #C0A60C",
"5 c #C4AC0E",
"6 c #C7B00F",
"7 c #C8B00F",
"8 c #C6AF10",
"9 c #CAB411",
"0 c #CEBA13",
"q c #D1BE14",
"w c #E7B302",
"e c #EBB702",
"r c #E4B806",
"t c #EABB05",
"y c #E3BC09",
"u c #EABF08",
"i c #D4C316",
"p c #D8C817",
"a c #D5C718",
"s c #D7C919",
"d c #DBCC19",
"f c #DED21B",
"g c #EAC30B",
"h c #E9C80F",
"j c #E0C612",
"k c #E4CB13",
"l c #E8CC12",
"z c #E6D117",
"x c #E8D116",
"c c #E3D51B",
"v c #E8D518",
"b c #E5DB1E",
"n c #E6DE20",
"m c #E6E021",
"M c #C0A445",
"N c #C1A64A",
"B c #C5AC55",
"V c #C6AD58",
"C c #C8B15E",
"Z c #CAB364",
"A c #CDB76D",
"S c #CFB971",
"D c #D1BC77",
"F c #D2BF7C",
"G c #D3C07F",
"H c #D4C281",
"J c #D6C588",
"K c #D9C88F",
"L c #DBCB95",
"P c #DECE9C",
"I c #DED09F",
"U c #E1D3A6",
"Y c #E3D7AE",
"T c #E5DAB3",
"R c #E8DEBB",
"E c None",
/* pixels */
"EEEEEEEEEEEEEEEEEEEEEEEEEEEEEEEEEEEEEEEEEEEEEEEEEE",
"EEEEEEEEEEEEEEEEEEEEEEEEEEEEEEEEEEEEEEEEEEEEEEEEEE",
"EEEEEEEEEEEEEEEEEEEEEEEEEEEEEEEEEEEEEEEEEEEEEEEEEE",
"EEEEEEEEEEEEEEEEEEEEEEEEEEEEEEEEEEEEEEEEEEEEEEEEEE",
"EEEEEEEEEEEEEEEEEEEEEEEEEEEEEEEEEEEEEEEEEEEEEEEEEE",
"EEEEEEEEEEEEEEEEEEEEEEEEEEEEEEEEEEEEEEEEEEEEEEEEEE",
"EEEEEEEEEEEEEEEEEEEEeeeeeeweeEEEEEEEEEEEEEEEEEEEEE",
"EEEEEEEEEEEEEEEEEeegxffcnnnnckeeEEEEEEEEEEEEEEEEEE",
"EEEEEEEEEEEEEEEEekcff0;+..$50fncheEEEEEEEEEEEEEEEE",
"EEEEEEEEEEEEEEegnn9.          .iccgEEEEEEEEEEEEEEE",
"EEEEEEEEEEEEEedn0     :BHYRPA1  +anhEEEEEEEEEEEEEE",
"EEEEEEEEEEEErvf+    X:NZDKUYRYZ=  4nvEEEEEEEEEEEEE",
"EEEEEEEEEEEwbf+     X&-,3VAJLIIZo  $bxEEEEEEEEEEEE",
"EEEEEEEEEEEzf.       XXo-,MZSFGH2   $mlEEEEEEEEEEE",
"EEEEEEEEEElb;           X&:1NVVZN    5bgEEEEEEEEEE",
"EEEEEEEEEEEvc8.          Xo=>1232     sbEEEEEEEEEE",
"EEEEEEEEEEEEgcni.          Xo*-:=     +bhEEEEEEEEE",
"EEEEEEEEEEEEEEgvns;          XXo.    ..pbEEEEEEEEE",
"EEEEEEEEEEEEEEEEuvnn5           .  ... +neEEEEEEEE",
"EEEEEEEEEEEEEEEEEEuknn9       . .. .X.O.bxEEEEEEEE",
"EEEEEEEEEEEEEEEEEEEEulbn0+... ....OOOOO+sbEEEEEEEE",
"EEEEEEEEEEEEEEEEEEEEEEelbbi%X..OOOOO++++0bEEEEEEEE",
"EEEEEEEEEEEEEEEEEEEEEEEEegbmd;+O++++++##5mEEEEEEEE",
"EEEEEEEEEEEEEEEEEEEEEEEEEtegbmf5+@+###$%4mEEEEEEEE",
"EEEEEEEEEEEEEEEEEEEEEEEEEeeeegvmf$$#%%%;4mEEEEEEEE",
"EEEEEEEEEEEEEEEEEEEEEEEEEeetxbnf4%;;;4;49mEEEEEEEE",
"EEEEEEEEEEEEEEEEEEEEEEEEegvnfi;%;;;44445inEEEEEEEE",
"EEEEEEEEEEEEEEEEEEEEEEelbbc9;;;;44455555sbEEEEEEEE",
"EEEEEEEEEEEEEEEEEEEervbms5;;;;5555558799nvEEEEEEEE",
"EEEEEEEEEEEEEEEEEegbnnq4;;;5855577799990ngEEEEEEEE",
"EEEEEEEEEEEEEEEtkbmd5;;55555776799999q0dbEEEEEEEEE",
"EEEEEEEEEEEEEgvnbi5555556777999990qqqqinxEEEEEEEEE",
"EEEEEEEEEEEElbf055555667779990000qiiipfbeEEEEEEEEE",
"EEEEEEEEEEEvcq5555567907000q00iiiiiipdblEEEEEEEEEE",
"EEEEEEEEEEEbc579999900000qiqiiippppddmvEEEEEEEEEEE",
"EEEEEEEEEEEyns9990900qqqiiipppppdddfnntEEEEEEEEEEE",
"EEEEEEEEEEEEpnf000iqqiipipppddfffzcmbeEEEEEEEEEEEE",
"EEEEEEEEEEEEewnnsiiipppppddffccffcmbgEEEEEEEEEEEEE",
"EEEEEEEEEEEEEeybnfsspddfcdffcccbmnxeEEEEEEEEEEEEEE",
"EEEEEEEEEEEEEEeelbnbccffcccbcmmmbgeEEEEEEEEEEEEEEE",
"EEEEEEEEEEEEEEEEeelbmmmnnnmmmmveeEEEEEEEEEEEEEEEEE",
"EEEEEEEEEEEEEEEEEEeeeglvvvxleeeEEEEEEEEEEEEEEEEEEE",
"EEEEEEEEEEEEEEEEEEEEEEeeeeeEEEEEEEEEEEEEEEEEEEEEEE",
"EEEEEEEEEEEEEEEEEEEEEEEEEEEEEEEEEEEEEEEEEEEEEEEEEE",
"EEEEEEEEEEEEEEEEEEEEEEEEEEEEEEEEEEEEEEEEEEEEEEEEEE",
"EEEEEEEEEEEEEEEEEEEEEEEEEEEEEEEEEEEEEEEEEEEEEEEEEE",
"EEEEEEEEEEEEEEEEEEEEEEEEEEEEEEEEEEEEEEEEEEEEEEEEEE",
"EEEEEEEEEEEEEEEEEEEEEEEEEEEEEEEEEEEEEEEEEEEEEEEEEE",
"EEEEEEEEEEEEEEEEEEEEEEEEEEEEEEEEEEEEEEEEEEEEEEEEEE",
"EEEEEEEEEEEEEEEEEEEEEEEEEEEEEEEEEEEEEEEEEEEEEEEEEE"
};
