/* XPM */
static char *p_left1[] = {
/* columns rows colors chars-per-pixel */
"50 50 72 1 ",
"  c #A98301",
". c #AD8A03",
"X c #AB870A",
"o c #AC880D",
"O c #B08E04",
"+ c #B18E0A",
"@ c #B49406",
"# c #B79807",
"$ c #B89907",
"% c #B79908",
"& c #BA9D09",
"* c #AE8B12",
"= c #B08D17",
"- c #B18F1A",
"; c #B39116",
": c #B3911F",
"> c #BEA20B",
", c #B49323",
"< c #B69629",
"1 c #B7982D",
"2 c #B8992E",
"3 c #BA9C35",
"4 c #BC9F3C",
"5 c #BDA13F",
"6 c #C1A60C",
"7 c #C4AC0E",
"8 c #C7B10F",
"9 c #C8B10F",
"0 c #C7B110",
"q c #CBB511",
"w c #CEBA13",
"e c #D1BE14",
"r c #EBB702",
"t c #EBBC05",
"y c #D4C316",
"u c #D8C817",
"i c #D3C31A",
"p c #DACC19",
"a c #DED21B",
"s c #E9C50D",
"d c #E9C80F",
"f c #E4CB13",
"g c #E8CD13",
"h c #E7D116",
"j c #E8D216",
"k c #E3D61B",
"l c #E8D418",
"z c #E6DB1E",
"x c #E6DE20",
"c c #E6E021",
"v c #C0A445",
"b c #C1A64A",
"n c #C5AC55",
"m c #C6AD58",
"M c #C8B15E",
"N c #CAB364",
"B c #CDB76D",
"V c #CFB971",
"C c #D1BC77",
"Z c #D2BF7C",
"A c #D3C07F",
"S c #D4C281",
"D c #D6C588",
"F c #D9C88F",
"G c #DBCB95",
"H c #DECE9C",
"J c #DED09F",
"K c #E1D3A6",
"L c #E3D7AE",
"P c #E5DAB3",
"I c #E8DEBB",
"U c None",
/* pixels */
"UUUUUUUUUUUUUUUUUUUUUUUUUUUUUUUUUUUUUUUUUUUUUUUUUU",
"UUUUUUUUUUUUUUUUUUUUUUUUUUUUUUUUUUUUUUUUUUUUUUUUUU",
"UUUUUUUUUUUUUUUUUUUUUUUUUUUUUUUUUUUUUUUUUUUUUUUUUU",
"UUUUUUUUUUUUUUUUUUUUUUUUUUUUUUUUUUUUUUUUUUUUUUUUUU",
"UUUUUUUUUUUUUUUUUUUUUUUUUUUUUUUUUUUUUUUUUUUUUUUUUU",
"UUUUUUUUUUUUUUUUUUUUUUUUUUUUUUUUUUUUUUUUUUUUUUUUUU",
"UUUUUUUUUUUUUUUUUUUUrrrrrrrrrUUUUUUUUUUUUUUUUUUUUU",
"UUUUUUUUUUUUUUUUUUrsjpkxxxxkkftrUUUUUUUUUUUUUUUUUU",
"UUUUUUUUUUUUUUUUUgkxpw6@..%7waxagrUUUUUUUUUUUUUUUU",
"UUUUUUUUUUUUUUUUUxpO          @ikksUUUUUUUUUUUUUUU",
"UUUUUUUUUUUUUUUUdzw   <nSLPHB3  @ixgUUUUUUUUUUUUUU",
"UUUUUUUUUUUUUUUUUsze+:bNCFKPIPN*  6xjUUUUUUUUUUUUU",
"UUUUUUUUUUUUUUUUUUsze;,25mVDGHJNo  @kjUUUUUUUUUUUU",
"UUUUUUUUUUUUUUUUUUUszi+*:1vMVZSS4   %xgUUUUUUUUUUU",
"UUUUUUUUUUUUUUUUUUUUsxwXo*,3bmmMv    7zsUUUUUUUUUU",
"UUUUUUUUUUUUUUUUUUUUUsxi Xo-<3454     pzUUUUUUUUUU",
"UUUUUUUUUUUUUUUUUUUUUUszw. X*=:,,     @zdUUUUUUUUU",
"UUUUUUUUUUUUUUUUUUUUUUUdxe   XX*       yzUUUUUUUUU",
"UUUUUUUUUUUUUUUUUUUUUUUUdxe.          .@crUUUUUUUU",
"UUUUUUUUUUUUUUUUUUUUUUUUUdzw      .. ...xgUUUUUUUU",
"UUUUUUUUUUUUUUUUUUUUUUUUUUsze  .....OOOOuzUUUUUUUU",
"UUUUUUUUUUUUUUUUUUUUUUUUUUUdzwO..O.OOOOOqzUUUUUUUU",
"UUUUUUUUUUUUUUUUUUUUUUUUUUUrdze.OOOO@@@#7cUUUUUUUU",
"UUUUUUUUUUUUUUUUUUUUUUUUUUUUrszi#@@#@@$$>cUUUUUUUU",
"UUUUUUUUUUUUUUUUUUUUUUUUUUUUrrlx6$$$$%&&>cUUUUUUUU",
"UUUUUUUUUUUUUUUUUUUUUUUUUUUUrgxq&&&&&>&&0cUUUUUUUU",
"UUUUUUUUUUUUUUUUUUUUUUUUUUUrgzw&&&&>6666exUUUUUUUU",
"UUUUUUUUUUUUUUUUUUUUUUUUUUUjzw>>&6666667pzUUUUUUUU",
"UUUUUUUUUUUUUUUUUUUUUUUUUUjzw>>766767770klUUUUUUUU",
"UUUUUUUUUUUUUUUUUUUUUUUUUjze7>67777900qqcsUUUUUUUU",
"UUUUUUUUUUUUUUUUUUUUUUUUjzw7777799qqqqqpxUUUUUUUUU",
"UUUUUUUUUUUUUUUUUUUUUUUgzi78780qqqqqweezjUUUUUUUUU",
"UUUUUUUUUUUUUUUUUUUUUUjxy89q9wqwwwweeeazrUUUUUUUUU",
"UUUUUUUUUUUUUUUUUUUUUjzy999w9wwweyyyypzgUUUUUUUUUU",
"UUUUUUUUUUUUUUUUUUUUlzu9wwwywyyyyyyuuxlUUUUUUUUUUU",
"UUUUUUUUUUUUUUUUUUUlciwweweyyyyuuuufxxtUUUUUUUUUUU",
"UUUUUUUUUUUUUUUUUUlzueeiyyyuuuupppaxxrUUUUUUUUUUUU",
"UUUUUUUUUUUUUUUUUlcuyyyuyuuupaaaakxzsUUUUUUUUUUUUU",
"UUUUUUUUUUUUUUUUUzuuyupppppaaakkxxjrUUUUUUUUUUUUUU",
"UUUUUUUUUUUUUUUUUzzzkppaakkkkzxxztrUUUUUUUUUUUUUUU",
"UUUUUUUUUUUUUUUUUUfzzxxzzcccczltrUUUUUUUUUUUUUUUUU",
"UUUUUUUUUUUUUUUUUUUrrsflzljdtrrUUUUUUUUUUUUUUUUUUU",
"UUUUUUUUUUUUUUUUUUUUUUrrrrrUUUUUUUUUUUUUUUUUUUUUUU",
"UUUUUUUUUUUUUUUUUUUUUUUUUUUUUUUUUUUUUUUUUUUUUUUUUU",
"UUUUUUUUUUUUUUUUUUUUUUUUUUUUUUUUUUUUUUUUUUUUUUUUUU",
"UUUUUUUUUUUUUUUUUUUUUUUUUUUUUUUUUUUUUUUUUUUUUUUUUU",
"UUUUUUUUUUUUUUUUUUUUUUUUUUUUUUUUUUUUUUUUUUUUUUUUUU",
"UUUUUUUUUUUUUUUUUUUUUUUUUUUUUUUUUUUUUUUUUUUUUUUUUU",
"UUUUUUUUUUUUUUUUUUUUUUUUUUUUUUUUUUUUUUUUUUUUUUUUUU",
"UUUUUUUUUUUUUUUUUUUUUUUUUUUUUUUUUUUUUUUUUUUUUUUUUU"
};
