/* XPM */
static char *p_right1[] = {
/* columns rows colors chars-per-pixel */
"50 50 73 1 ",
"  c #A98301",
". c #AD8A03",
"X c #AB870A",
"o c #AC880D",
"O c #B08E04",
"+ c #B18E0A",
"@ c #B39306",
"# c #B79807",
"$ c #B79908",
"% c #BA9D09",
"& c #AE8B12",
"* c #B08D17",
"= c #B18F1A",
"- c #B39116",
"; c #B3911F",
": c #BEA20B",
"> c #B49323",
", c #B69629",
"< c #B7982D",
"1 c #B8992E",
"2 c #BA9C35",
"3 c #BC9F3C",
"4 c #BDA13F",
"5 c #C1A60C",
"6 c #C4AC0E",
"7 c #C7B00F",
"8 c #C8B10F",
"9 c #CAB411",
"0 c #CEBB13",
"q c #D1BE14",
"w c #EBB702",
"e c #EBBC05",
"r c #D4C316",
"t c #D8C817",
"y c #D4C419",
"u c #DACC19",
"i c #DED21B",
"p c #E9C50D",
"a c #E9C80F",
"s c #E3CB14",
"d c #E8CD13",
"f c #E7D116",
"g c #E8D216",
"h c #E2D61C",
"j c #E8D518",
"k c #E5DB1E",
"l c #E8DC1D",
"z c #E8E01F",
"x c #E6DF20",
"c c #E6E021",
"v c #E8E120",
"b c #C0A445",
"n c #C1A64A",
"m c #C5AC55",
"M c #C6AD58",
"N c #C8B15E",
"B c #CAB364",
"V c #CDB76D",
"C c #CFB971",
"Z c #D1BC77",
"A c #D2BF7C",
"S c #D3C07F",
"D c #D4C281",
"F c #D6C588",
"G c #D9C88F",
"H c #DBCB95",
"J c #DECE9C",
"K c #DED09F",
"L c #E1D3A6",
"P c #E3D7AE",
"I c #E5DAB3",
"U c #E8DEBB",
"Y c None",
/* pixels */
"YYYYYYYYYYYYYYYYYYYYYYYYYYYYYYYYYYYYYYYYYYYYYYYYYY",
"YYYYYYYYYYYYYYYYYYYYYYYYYYYYYYYYYYYYYYYYYYYYYYYYYY",
"YYYYYYYYYYYYYYYYYYYYYYYYYYYYYYYYYYYYYYYYYYYYYYYYYY",
"YYYYYYYYYYYYYYYYYYYYYYYYYYYYYYYYYYYYYYYYYYYYYYYYYY",
"YYYYYYYYYYYYYYYYYYYYYYYYYYYYYYYYYYYYYYYYYYYYYYYYYY",
"YYYYYYYYYYYYYYYYYYYYYYYYYYYYYYYYYYYYYYYYYYYYYYYYYY",
"YYYYYYYYYYYYYYYYYYYYYwwwwwwwwwYYYYYYYYYYYYYYYYYYYY",
"YYYYYYYYYYYYYYYYYYweshhxxxhhugpwYYYYYYYYYYYYYYYYYY",
"YYYYYYYYYYYYYYYYwahxi06%..@50uhxdYYYYYYYYYYYYYYYYY",
"YYYYYYYYYYYYYYYphx0O          .uxYYYYYYYYYYYYYYYYY",
"YYYYYYYYYYYYYYdhy@  2VJIPDm>  X0lpYYYYYYYYYYYYYYYY",
"YYYYYYYYYYYYYfx6  *BIUILGZBn>.rkpYYYYYYYYYYYYYYYYY",
"YYYYYYYYYYYYgh$  oBKJHFCM41>-qxpYYYYYYYYYYYYYYYYYY",
"YYYYYYYYYYYdc$   3DSACNb1=&+yxpYYYYYYYYYYYYYYYYYYY",
"YYYYYYYYYYpk6    nMBMn2>&ooqxpYYYYYYYYYYYYYYYYYYYY",
"YYYYYYYYYYkt     4432,=XXXqxpYYYYYYYYYYYYYYYYYYYYY",
"YYYYYYYYYah+     ;>;&oXX.0kaYYYYYYYYYYYYYYYYYYYYYY",
"YYYYYYYYYkr       ooXX  qkpYYYYYYYYYYYYYYYYYYYYYYY",
"YYYYYYYYwc            .qkpYYYYYYYYYYYYYYYYYYYYYYYY",
"YYYYYYYYgh            0kaYYYYYYYYYYYYYYYYYYYYYYYYY",
"YYYYYYYYkr         . rkpYYYYYYYYYYYYYYYYYYYYYYYYYY",
"YYYYYYYYz7         .0kaYYYYYYYYYYYYYYYYYYYYYYYYYYY",
"YYYYYYYYk%   . .  .rkpwYYYYYYYYYYYYYYYYYYYYYYYYYYY",
"YYYYYYYYc@ . ....@0kdwYYYYYYYYYYYYYYYYYYYYYYYYYYYY",
"YYYYYYYYcO......O:cjwwYYYYYYYYYYYYYYYYYYYYYYYYYYYY",
"YYYYYYYYv%...O@@@$9kdwYYYYYYYYYYYYYYYYYYYYYYYYYYYY",
"YYYYYYYYx6O@@@@@@@#9kdwYYYYYYYYYYYYYYYYYYYYYYYYYYY",
"YYYYYYYYkq@@@@@$#%%%0xdYYYYYYYYYYYYYYYYYYYYYYYYYYY",
"YYYYYYYYjh@$$$$$%%:::0cfYYYYYYYYYYYYYYYYYYYYYYYYYY",
"YYYYYYYYpc%%%%:::::::6rkdYYYYYYYYYYYYYYYYYYYYYYYYY",
"YYYYYYYYYkr%:::55566666qcgYYYYYYYYYYYYYYYYYYYYYYYY",
"YYYYYYYYYgh5555566666799rkgYYYYYYYYYYYYYYYYYYYYYYY",
"YYYYYYYYYwkr6666888899800rlgYYYYYYYYYYYYYYYYYYYYYY",
"YYYYYYYYYYdk988989099qqqqruljYYYYYYYYYYYYYYYYYYYYY",
"YYYYYYYYYYYkk9909900rqrrrrrikjYYYYYYYYYYYYYYYYYYYY",
"YYYYYYYYYYYekh00qqrrrrrrttuuikjYYYYYYYYYYYYYYYYYYY",
"YYYYYYYYYYYYwkkrrrrrtutuuiiiihkjYYYYYYYYYYYYYYYYYY",
"YYYYYYYYYYYYYpkkutuuuuiiihihhhkkgYYYYYYYYYYYYYYYYY",
"YYYYYYYYYYYYYYwfzkiiiihhhhhlzzzzkYYYYYYYYYYYYYYYYY",
"YYYYYYYYYYYYYYYwekcckhhkkkzzzzzzvYYYYYYYYYYYYYYYYY",
"YYYYYYYYYYYYYYYYYwejkcccxvcvcvlgYYYYYYYYYYYYYYYYYY",
"YYYYYYYYYYYYYYYYYYYwwepgjljdpwwYYYYYYYYYYYYYYYYYYY",
"YYYYYYYYYYYYYYYYYYYYYYYwwwwwYYYYYYYYYYYYYYYYYYYYYY",
"YYYYYYYYYYYYYYYYYYYYYYYYYYYYYYYYYYYYYYYYYYYYYYYYYY",
"YYYYYYYYYYYYYYYYYYYYYYYYYYYYYYYYYYYYYYYYYYYYYYYYYY",
"YYYYYYYYYYYYYYYYYYYYYYYYYYYYYYYYYYYYYYYYYYYYYYYYYY",
"YYYYYYYYYYYYYYYYYYYYYYYYYYYYYYYYYYYYYYYYYYYYYYYYYY",
"YYYYYYYYYYYYYYYYYYYYYYYYYYYYYYYYYYYYYYYYYYYYYYYYYY",
"YYYYYYYYYYYYYYYYYYYYYYYYYYYYYYYYYYYYYYYYYYYYYYYYYY",
"YYYYYYYYYYYYYYYYYYYYYYYYYYYYYYYYYYYYYYYYYYYYYYYYYY"
};
