/* XPM */
static char *p_right[] = {
/* columns rows colors chars-per-pixel */
"50 50 73 1 ",
"  c #A88301",
". c #AD8A03",
"X c #AB870A",
"o c #AC880D",
"O c #B08F04",
"+ c #B49406",
"@ c #B79807",
"# c #B89907",
"$ c #B79908",
"% c #BA9D09",
"& c #AE8B12",
"* c #B08D17",
"= c #B18F1A",
"- c #B3911F",
"; c #BEA20B",
": c #B49323",
"> c #B69629",
", c #B7982D",
"< c #B8992E",
"1 c #BA9C35",
"2 c #BC9F3C",
"3 c #BDA13F",
"4 c #C1A60C",
"5 c #C4AC0E",
"6 c #C7B00F",
"7 c #C8B10F",
"8 c #C6AF10",
"9 c #CAB411",
"0 c #CEBA13",
"q c #D1BE14",
"w c #E7B302",
"e c #EBB702",
"r c #E4B806",
"t c #EABB05",
"y c #D4C316",
"u c #D8C817",
"i c #D5C718",
"p c #DBCD19",
"a c #DED21B",
"s c #EAC30B",
"d c #E9C80F",
"f c #E2CB15",
"g c #E9CC12",
"h c #E6D116",
"j c #E8D115",
"k c #E3D51B",
"l c #E8D619",
"z c #E5DB1E",
"x c #E8DD1E",
"c c #E6DF20",
"v c #E6E021",
"b c #C0A445",
"n c #C1A64A",
"m c #C5AC55",
"M c #C6AD58",
"N c #C8B15E",
"B c #CAB364",
"V c #CDB76D",
"C c #CFB971",
"Z c #D1BC77",
"A c #D2BF7C",
"S c #D3C07F",
"D c #D4C281",
"F c #D6C588",
"G c #D9C88F",
"H c #DBCB95",
"J c #DECE9C",
"K c #DED09F",
"L c #E1D3A6",
"P c #E3D7AE",
"I c #E5DAB3",
"U c #E8DEBB",
"Y c None",
/* pixels */
"YYYYYYYYYYYYYYYYYYYYYYYYYYYYYYYYYYYYYYYYYYYYYYYYYY",
"YYYYYYYYYYYYYYYYYYYYYYYYYYYYYYYYYYYYYYYYYYYYYYYYYY",
"YYYYYYYYYYYYYYYYYYYYYYYYYYYYYYYYYYYYYYYYYYYYYYYYYY",
"YYYYYYYYYYYYYYYYYYYYYYYYYYYYYYYYYYYYYYYYYYYYYYYYYY",
"YYYYYYYYYYYYYYYYYYYYYYYYYYYYYYYYYYYYYYYYYYYYYYYYYY",
"YYYYYYYYYYYYYYYYYYYYYYYYYYYYYYYYYYYYYYYYYYYYYYYYYY",
"YYYYYYYYYYYYYYYYYYYYYeeeeeteeeYYYYYYYYYYYYYYYYYYYY",
"YYYYYYYYYYYYYYYYYYetfkzccckkpjseeYYYYYYYYYYYYYYYYY",
"YYYYYYYYYYYYYYYYwgaca08$..+40pkcgeYYYYYYYYYYYYYYYY",
"YYYYYYYYYYYYYYYskkyX          .9zzseYYYYYYYYYYYYYY",
"YYYYYYYYYYYYYYgzi+  1VJIPDm>     0cpeYYYYYYYYYYYYY",
"YYYYYYYYYYYYYfc5  *BIUILGCBn:X    $akrYYYYYYYYYYYY",
"YYYYYYYYYYYYjz$  &BJJHFCM3,-&X     .azwYYYYYYYYYYY",
"YYYYYYYYYYYgc$   2DSACNb,-&X        .ahYYYYYYYYYYY",
"YYYYYYYYYYsz5    nBMmn1:&X           ;zgYYYYYYYYYY",
"YYYYYYYYYYzu     3321>-oX          .8klYYYYYYYYYYY",
"YYYYYYYYYdz+     ->-&&X          +icksYYYYYYYYYYYY",
"YYYYYYYYYzy       oXX          ;aclsYYYYYYYYYYYYYY",
"YYYYYYYYec.                  8ccltYYYYYYYYYYYYYYYY",
"YYYYYYYYfz                .0cvhrYYYYYYYYYYYYYYYYYY",
"YYYYYYYYxy              +qxxftYYYYYYYYYYYYYYYYYYYY",
"YYYYYYYYz9        .  .%yxzgtYYYYYYYYYYYYYYYYYYYYYY",
"YYYYYYYYc%        . ;pvzstYYYYYYYYYYYYYYYYYYYYYYYY",
"YYYYYYYYv+    .. .5avzseeYYYYYYYYYYYYYYYYYYYYYYYYY",
"YYYYYYYYv.. .....avlsteeeYYYYYYYYYYYYYYYYYYYYYYYYY",
"YYYYYYYYc%....OO.%pvzgteeYYYYYYYYYYYYYYYYYYYYYYYYY",
"YYYYYYYYc8O.+OO++++%qkzlstYYYYYYYYYYYYYYYYYYYYYYYY",
"YYYYYYYYc0++++++$$$$%%9azzgeYYYYYYYYYYYYYYYYYYYYYY",
"YYYYYYYYlk+++@@$$$%%%%4;5uczltYYYYYYYYYYYYYYYYYYYY",
"YYYYYYYYsv#$##%%;;;;4444555yzvzsYYYYYYYYYYYYYYYYYY",
"YYYYYYYYYc0%;%;;;;;54555586790kczjtYYYYYYYYYYYYYYY",
"YYYYYYYYYhz5;;;55;5556568999900qazclsYYYYYYYYYYYYY",
"YYYYYYYYYezi45555576777707q00qqyyypzzhYYYYYYYYYYYY",
"YYYYYYYYYYgz95557770900qqqqqyyyyyuupallYYYYYYYYYYY",
"YYYYYYYYYYYzc8997000qqqqqyyyyuipppppazzYYYYYYYYYYY",
"YYYYYYYYYYYtzk0000qqqyqyuuuupppapaahzvdYYYYYYYYYYY",
"YYYYYYYYYYYYeccqyyyyuyuuupppaaaakkkvvhYYYYYYYYYYYY",
"YYYYYYYYYYYYYtzcpiyyupppkpaakkkzzxvxdeYYYYYYYYYYYY",
"YYYYYYYYYYYYYYehvzppaaaakakzkzzzxvxseYYYYYYYYYYYYY",
"YYYYYYYYYYYYYYYetzvzzkkzkzzzzvvvxhteYYYYYYYYYYYYYY",
"YYYYYYYYYYYYYYYYYetlzvvvvcvvvvxjeeYYYYYYYYYYYYYYYY",
"YYYYYYYYYYYYYYYYYYYeetsjlxlgseeeYYYYYYYYYYYYYYYYYY",
"YYYYYYYYYYYYYYYYYYYYYYYeeeeeYYYYYYYYYYYYYYYYYYYYYY",
"YYYYYYYYYYYYYYYYYYYYYYYYYYYYYYYYYYYYYYYYYYYYYYYYYY",
"YYYYYYYYYYYYYYYYYYYYYYYYYYYYYYYYYYYYYYYYYYYYYYYYYY",
"YYYYYYYYYYYYYYYYYYYYYYYYYYYYYYYYYYYYYYYYYYYYYYYYYY",
"YYYYYYYYYYYYYYYYYYYYYYYYYYYYYYYYYYYYYYYYYYYYYYYYYY",
"YYYYYYYYYYYYYYYYYYYYYYYYYYYYYYYYYYYYYYYYYYYYYYYYYY",
"YYYYYYYYYYYYYYYYYYYYYYYYYYYYYYYYYYYYYYYYYYYYYYYYYY",
"YYYYYYYYYYYYYYYYYYYYYYYYYYYYYYYYYYYYYYYYYYYYYYYYYY"
};
