/* XPM */
static char *p_start[] = {
/* columns rows colors chars-per-pixel */
"50 50 77 1 ",
"  c #A98301",
". c #AE8A03",
"X c #AB870A",
"o c #AC880D",
"O c #B08E04",
"+ c #B49306",
"@ c #B79807",
"# c #B89907",
"$ c #B79908",
"% c #BA9C09",
"& c #AE8B12",
"* c #B08D17",
"= c #B18F1A",
"- c #B3911F",
"; c #BEA20B",
": c #B49323",
"> c #B69629",
", c #B7982D",
"< c #B8992E",
"1 c #BA9C35",
"2 c #BC9F3C",
"3 c #BDA13F",
"4 c #C1A60C",
"5 c #C4AC0E",
"6 c #C7B00F",
"7 c #C8B00F",
"8 c #DEB709",
"9 c #DDBC0D",
"0 c #C5AF10",
"q c #CAB411",
"w c #CEBA13",
"e c #D1BD14",
"r c #E5B604",
"t c #EBB702",
"y c #EABB05",
"u c #E3BD0A",
"i c #DEC00F",
"p c #D4C316",
"a c #DCC514",
"s c #D9C917",
"d c #D5C718",
"f c #DBCC19",
"g c #DED21B",
"h c #E4C20E",
"j c #E9C40C",
"k c #E9C80F",
"l c #E5CD15",
"z c #E9CC12",
"x c #E6D116",
"c c #E8D115",
"v c #E2D51C",
"b c #E8D619",
"n c #E4DB1E",
"m c #E5DE20",
"M c #E6E021",
"N c #C0A445",
"B c #C1A64A",
"V c #C5AC55",
"C c #C6AD58",
"Z c #C8B15E",
"A c #CAB364",
"S c #CDB76D",
"D c #CFB971",
"F c #D1BC77",
"G c #D2BF7C",
"H c #D3C07F",
"J c #D4C281",
"K c #D6C588",
"L c #D9C88F",
"P c #DBCB95",
"I c #DECE9C",
"U c #DED09F",
"Y c #E1D3A6",
"T c #E3D7AE",
"R c #E5DAB3",
"E c #E8DEBB",
"W c None",
/* pixels */
"WWWWWWWWWWWWWWWWWWWWWWWWWWWWWWWWWWWWWWWWWWWWWWWWWW",
"WWWWWWWWWWWWWWWWWWWWWWWWWWWWWWWWWWWWWWWWWWWWWWWWWW",
"WWWWWWWWWWWWWWWWWWWWWWWWWWWWWWWWWWWWWWWWWWWWWWWWWW",
"WWWWWWWWWWWWWWWWWWWWWWWWWWWWWWWWWWWWWWWWWWWWWWWWWW",
"WWWWWWWWWWWWWWWWWWWWWWWWWWWWWWWWWWWWWWWWWWWWWWWWWW",
"WWWWWWWWWWWWWWWWWWWWWWWWWWWWWWWWWWWWWWWWWWWWWWWWWW",
"WWWWWWWWWWWWWWWWWWWWWtttttttttWWWWWWWWWWWWWWWWWWWW",
"WWWWWWWWWWWWWWWWWWtylvvmmmvvfp8ttWWWWWWWWWWWWWWWWW",
"WWWWWWWWWWWWWWWWrkvmge4+..$4wfgmkrWWWWWWWWWWWWWWWW",
"WWWWWWWWWWWWWWWjvmwX          .qmmjtWWWWWWWWWWWWWW",
"WWWWWWWWWWWWWWzmd+  1DIETJV:     wmxtWWWWWWWWWWWWW",
"WWWWWWWWWWWWWlm4  *ARERYLFAB-X    $gnrWWWWWWWWWWWW",
"WWWWWWWWWWWWcn$  oAUIPKSC3,-&X     .gnrWWWWWWWWWWW",
"WWWWWWWWWWWzm$   2JHHSZN,-&X         nltWWWWWWWWWW",
"WWWWWWWWWWjn5    BZZCB1-*X           ;nitWWWWWWWWW",
"WWWWWWWWWWns     3221,=oX             wnrWWWWWWWWW",
"WWWWWWWWWkmO     ->-&&X                natWWWWWWWW",
"WWWWWWWWWne       oXX                ..0vyWWWWWWWW",
"WWWWWWWWrm                       . .....m9tWWWWWWW",
"WWWWWWWWzn                      .......OdstWWWWWWW",
"WWWWWWWWnp              .  ......O.OOOO+qgtWWWWWWW",
"WWWWWWWWMq             ........OOOO+++@+%mrWWWWWWW",
"WWWWWWWWm#         ..........O+++++#@+##%n8tWWWWWW",
"WWWWWWWWmO    .   ......+.O++++++$@###%%;n9tWWWWWW",
"WWWWWWWWM. . .......O.OO++++@@@@##%#%;%4;nitWWWWWW",
"WWWWWWWWM#.....O..+O+++@++@@$#%#%%;;;444;nutWWWWWW",
"WWWWWWWWm0...OOO+++++@$#@#%#%;;;444444557mrWWWWWWW",
"WWWWWWWWmeO.O++++@@@@$##%%;;;;;;44455507pmtWWWWWWW",
"WWWWWWWWbv+++@$$@##%%%;;;;;4445455577q77fgyWWWWWWW",
"WWWWWWWWjM@@@$$##%%;;;;44445405q77qqqqwwnftWWWWWWW",
"WWWWWWWWWMw%#%;;;4;;4445555577qqqqqwwewdnhtWWWWWWW",
"WWWWWWWWWcn;%;;;4444555567qqqqqqweeeeepnntWWWWWWWW",
"WWWWWWWWWtmp4444555557q7q7qeqqeeepppddfnjtWWWWWWWW",
"WWWWWWWWWWznq555577qqqqqweweepppppspsfnntWWWWWWWWW",
"WWWWWWWWWWWnmq7qqqqqwweeeeeppppssssffnMytWWWWWWWWW",
"WWWWWWWWWWWynvqqqwwweeeepppsssfsffggnMjtWWWWWWWWWW",
"WWWWWWWWWWWWtmmwweppppddsssffgggvvvnMctWWWWWWWWWWW",
"WWWWWWWWWWWWWynmsppddsssfffggvvvvvMMjtWWWWWWWWWWWW",
"WWWWWWWWWWWWWWtxMmfsffflvvgvvnnnMMnjtWWWWWWWWWWWWW",
"WWWWWWWWWWWWWWWtynMmvvvnvvvnnnnMMcttWWWWWWWWWWWWWW",
"WWWWWWWWWWWWWWWWWtybmMMmMMMMMMncytWWWWWWWWWWWWWWWW",
"WWWWWWWWWWWWWWWWWWWtttkcbbbzjtttWWWWWWWWWWWWWWWWWW",
"WWWWWWWWWWWWWWWWWWWWWWWtttttWWWWWWWWWWWWWWWWWWWWWW",
"WWWWWWWWWWWWWWWWWWWWWWWWWWWWWWWWWWWWWWWWWWWWWWWWWW",
"WWWWWWWWWWWWWWWWWWWWWWWWWWWWWWWWWWWWWWWWWWWWWWWWWW",
"WWWWWWWWWWWWWWWWWWWWWWWWWWWWWWWWWWWWWWWWWWWWWWWWWW",
"WWWWWWWWWWWWWWWWWWWWWWWWWWWWWWWWWWWWWWWWWWWWWWWWWW",
"WWWWWWWWWWWWWWWWWWWWWWWWWWWWWWWWWWWWWWWWWWWWWWWWWW",
"WWWWWWWWWWWWWWWWWWWWWWWWWWWWWWWWWWWWWWWWWWWWWWWWWW",
"WWWWWWWWWWWWWWWWWWWWWWWWWWWWWWWWWWWWWWWWWWWWWWWWWW"
};
