/* XPM */
static char *p_up1[] = {
/* columns rows colors chars-per-pixel */
"50 50 91 1 ",
"  c #A98300",
". c #AD8A03",
"X c #B08E04",
"o c #B49306",
"O c #B79807",
"+ c #B69808",
"@ c #BA9C09",
"# c #BEA20B",
"$ c #C1A60C",
"% c #C4AB0E",
"& c #C7B00F",
"* c #C8B10F",
"= c #DEBE0D",
"- c #C6AF10",
"; c #C7B110",
": c #CAB411",
"> c #CEBA13",
", c #CBB41A",
"< c #D1BD14",
"1 c #D1BE1B",
"2 c #E6B604",
"3 c #EBB702",
"4 c #E4B806",
"5 c #EABC05",
"6 c #E1BC0A",
"7 c #EABF08",
"8 c #D0BD25",
"9 c #D1BD2B",
"0 c #D2BF30",
"q c #DFC20F",
"w c #D4C316",
"e c #D8C917",
"r c #D3C21C",
"t c #DACC19",
"y c #DED31B",
"u c #E4C10C",
"i c #EAC40C",
"p c #E9C90F",
"a c #E0C914",
"s c #E9CD12",
"d c #E1CF18",
"f c #E5D016",
"g c #E8D116",
"h c #E4D51A",
"j c #E8D619",
"k c #E5DB1E",
"l c #E8DD1E",
"z c #E8E01F",
"x c #D4C322",
"c c #DACA26",
"v c #D9C82F",
"b c #DED12E",
"n c #D7C731",
"m c #DBCB33",
"M c #DACB3B",
"N c #E5DE20",
"B c #E4DA2A",
"V c #E6DD31",
"C c #E6E021",
"Z c #E8E120",
"A c #D9C942",
"S c #DBCB4B",
"D c #DED041",
"F c #DDD057",
"G c #E1D54D",
"H c #E6DC49",
"J c #E2D554",
"K c #E6DC50",
"L c #E2D65A",
"P c #E5DB5D",
"I c #EBE34C",
"U c #E2D764",
"Y c #E6DC65",
"T c #E3D76C",
"R c #E7DE6B",
"E c #E7DD71",
"W c #E8E06F",
"Q c #ECE474",
"! c #EFE877",
"~ c #EEE77C",
"^ c #F0EA7E",
"/ c #ECE384",
"( c #ECE38A",
") c #EFE88D",
"_ c #F2ECA6",
"` c #F2EDA8",
"' c #F5F0A8",
"] c #F5F2B9",
"[ c #F7F4C4",
"{ c #F8F6C8",
"} c None",
/* pixels */
"}}}}}}}}}}}}}}}}}}}}}}}}}}}}}}}}}}}}}}}}}}}}}}}}}}",
"}}}}}}}}}}}}}}}}}}}}}}}}}}}}}}}}}}}}}}}}}}}}}}}}}}",
"}}}}}}}}}}}}}}}}}}}}}}}}}}}}}}}}}}}}}}}}}}}}}}}}}}",
"}}}}}}}}}}}}}}}}}}}}}}}}}}}}}}}}}}}}}}}}}}}}}}}}}}",
"}}}}}}}}}}}}}}}}}}}}}}}}}}}}}}}}}}}}}}}}}}}}}}}}}}",
"}}}}}}}}}}}}}}}}}}}}}}}}}}}}}}}}}}}}}}}}}}}}}}}}}}",
"}}}}}}}}}}}}}}}}}}}}}}}}}}}}}}}}}}}}}}}}}}}}}}}}}}",
"}}}}}}}}}}}}}}}}}}}}}}}}}}}}}}}}}}}}}}}}}}}}}}}}}}",
"}}}}}}}}}}}}}}}}}}}}}}}}}}}}}}}}}}}}}}}}}}}}}}}}}}",
"}}}}}}}}}}}}}}}}}}}}}}}}}}}}}}}}}}s}}}}}}}}}}}}}}}",
"}}}}}}}}}}}}}}sN}}}}}}}}}}}}}}}}}jyf3}}}}}}}}}}}}}",
"}}}}}}}}}}}}}hNhk}}}}}}}}}}}}}}}iy#yj4}}}}}}}}}}}}",
"}}}}}}}}}}}}gk+#Ci}}}}}}}}}}}}}}h; oyl2}}}}}}}}}}}",
"}}}}}}}}}}}sN+  Nj}}}}}}}}}}}}}iN.  .ys3}}}}}}}}}}",
"}}}}}}}}}}ik%   $N5}}}}}}}}}}}3jr    #kq3}}}}}}}}}",
"}}}}}}}}}}ke    .yg}}}}}}}}}}}7N@   ..>k2}}}}}}}}}",
"}}}}}}}}}iNX     -k3}}}}}}}}}}jt.. ...Xka3}}}}}}}}",
"}}}}}}}}}N<      .Ni}}}}}}}}}5C%..X.XXX;h2}}}}}}}}",
"}}}}}}}}3N        wk3}}}}}}}}gN.XXXXXoXoN=3}}}}}}}",
"}}}}}}}}sN        +C5}}}}}}}5C:.XXooXoOote3}}}}}}}",
"}}}}}}}}Nw       . kj}}}}}}}sNooooOoOOOO>N3}}}}}}}",
"}}}}}}}}N%    .. ..%k5}}}}}3N>ooOOOO@@@@#N3}}}}}}}",
"}}}}}}}}N#. .....X.XNs}}}}}sNO+OOO@@@#@$#N=3}}}}}}",
"}}}}}}}}Co....X.XXoowk3}}}3kw@@@@$@##$$$#N=3}}}}}}",
"}}}}}}}}CX..XXoXXooo#ki333pN$@###$#$$$%%%kq3}}}}}}",
"}}}}}}}}N#oXooooooOOOyj333le#$#$$%$%%%**-N63}}}}}}",
"}}}}}}}}N;oooo++O@@@@:z53iZ;$$$%%%******:N5}}}}}}}",
"}}}}}}}}N<++oO@O@@@###kf3jy%%%%%%****:<:wN3}}}}}}}",
"}}}}}}}}jh++@@#######$ekiN<%-**;*<**:>>>yk3}}}}}}}",
"}}}}}}}}iC#@#######%$%&zjh*;;:::*<<<<<wwNt3}}}}}}}",
"}}}}}}}}}lw#####%%%&%&&yCw::*><<<<w<wwwtlu3}}}}}}}",
"}}}}}}}}}sk%$%%%%&;,,,::B><<w18w<wwweeekk3}}}}}}}}",
"}}}}}}}}}3Ne%***;;9098811<rxcvmveeetetyNi3}}}}}}}}",
"}}}}}}}}}}sk:;;;:>SSSAMnnnmMDSJJttttyyzk3}}}}}}}}}",
"}}}}}}}}}}}kk<>:>>FTTUUFJJLPYYQPtyyhyCN53}}}}}}}}}",
"}}}}}}}}}}}5kk<<<wS((((/////)))HyyhhNCi3}}}}}}}}}}",
"}}}}}}}}}}}}3lNwwwcW```____``'QBkkkzCf3}}}}}}}}}}}",
"}}}}}}}}}}}}}5kNtetbE][[[[[[]^Vkkzzzp3}}}}}}}}}}}}",
"}}}}}}}}}}}}}}3fNkyyyH~`{{'^Ilzzzzzi3}}}}}}}}}}}}}",
"}}}}}}}}}}}}}}}35kNNNhklkklzzzzCzf33}}}}}}}}}}}}}}",
"}}}}}}}}}}}}}}}}}35jlCCCZNCZNZlg33}}}}}}}}}}}}}}}}",
"}}}}}}}}}}}}}}}}}}}335igjljsi333}}}}}}}}}}}}}}}}}}",
"}}}}}}}}}}}}}}}}}}}}}}}33333}}}}}}}}}}}}}}}}}}}}}}",
"}}}}}}}}}}}}}}}}}}}}}}}}}}}}}}}}}}}}}}}}}}}}}}}}}}",
"}}}}}}}}}}}}}}}}}}}}}}}}}}}}}}}}}}}}}}}}}}}}}}}}}}",
"}}}}}}}}}}}}}}}}}}}}}}}}}}}}}}}}}}}}}}}}}}}}}}}}}}",
"}}}}}}}}}}}}}}}}}}}}}}}}}}}}}}}}}}}}}}}}}}}}}}}}}}",
"}}}}}}}}}}}}}}}}}}}}}}}}}}}}}}}}}}}}}}}}}}}}}}}}}}",
"}}}}}}}}}}}}}}}}}}}}}}}}}}}}}}}}}}}}}}}}}}}}}}}}}}",
"}}}}}}}}}}}}}}}}}}}}}}}}}}}}}}}}}}}}}}}}}}}}}}}}}}"
};
