/* XPM */
static char *p_up[] = {
/* columns rows colors chars-per-pixel */
"50 50 88 1 ",
"  c #AA8501",
". c #AE8A03",
"X c #B18F04",
"o c #B49406",
"O c #B79807",
"+ c #B69708",
"@ c #BA9C09",
"# c #BDA20B",
"$ c #C1A60C",
"% c #C4AC0E",
"& c #C7B00F",
"* c #C8B10F",
"= c #DDBD0D",
"- c #C6AF10",
"; c #C7B110",
": c #CAB411",
"> c #CEBA13",
", c #CBB41A",
"< c #D1BD14",
"1 c #D1BE1B",
"2 c #E5B704",
"3 c #EBB702",
"4 c #EABB05",
"5 c #E1BC0A",
"6 c #D0BD25",
"7 c #D1BD2B",
"8 c #D2BF30",
"9 c #DFC20F",
"0 c #D4C316",
"q c #D8C917",
"w c #D4C419",
"e c #D7C919",
"r c #DACC19",
"t c #DED21B",
"y c #E7C00A",
"u c #E9C50D",
"i c #E9C80F",
"p c #E8CE13",
"a c #E1CF18",
"s c #E8D116",
"d c #E3D51B",
"f c #E8D518",
"g c #E5DC1E",
"h c #E8DD1E",
"j c #E8E01F",
"k c #D4C322",
"l c #DACA26",
"z c #D9C82F",
"x c #DED12E",
"c c #D7C731",
"v c #DBCB33",
"b c #DACB3B",
"n c #E5DE20",
"m c #E4DA2A",
"M c #E6DD31",
"N c #E6E021",
"B c #E8E120",
"V c #D9C942",
"C c #DBCB4B",
"Z c #DED041",
"A c #DDD057",
"S c #E1D54D",
"D c #E6DC49",
"F c #E2D554",
"G c #E6DC50",
"H c #E2D65A",
"J c #E5DB5D",
"K c #EBE34C",
"L c #E2D764",
"P c #E6DC65",
"I c #E3D76C",
"U c #E7DE6B",
"Y c #E7DD71",
"T c #E8E06F",
"R c #ECE474",
"E c #EFE877",
"W c #EEE77C",
"Q c #F0EA7E",
"! c #ECE384",
"~ c #ECE38A",
"^ c #EFE88D",
"/ c #F2ECA6",
"( c #F2EDA8",
") c #F5F0A8",
"_ c #F5F2B9",
"` c #F7F4C4",
"' c #F8F6C8",
"] c None",
/* pixels */
"]]]]]]]]]]]]]]]]]]]]]]]]]]]]]]]]]]]]]]]]]]]]]]]]]]",
"]]]]]]]]]]]]]]]]]]]]]]]]]]]]]]]]]]]]]]]]]]]]]]]]]]",
"]]]]]]]]]]]]]]]]]]]]]]]]]]]]]]]]]]]]]]]]]]]]]]]]]]",
"]]]]]]]]]]]]]]]]]]]]]]]]]]]]]]]]]]]]]]]]]]]]]]]]]]",
"]]]]]]]]]]]]]]]]]]]]]]]]]]]]]]]]]]]]]]]]]]]]]]]]]]",
"]]]]]]]]]]]]]]]]]]]]]]]]]]]]]]]]]]]]]]]]]]]]]]]]]]",
"]]]]]]]]]]]]]]]]]]]]]]]]]]]]]]]]]]]]]]]]]]]]]]]]]]",
"]]]]]]]]]]]]]]]]]]]]]]]]]]]]]]]]]]]]]]]]]]]]]]]]]]",
"]]]]]]]]]]]]]]]]]]]]]]]]]]]]]]]]]]]]]]]]]]]]]]]]]]",
"]]]]]]]]]]]]]]]]]]]]]]]]]]]]]]]]]]]]]]]]]]]]]]]]]]",
"]]]]]]]]]]]]]]]]]]]]]]]]]]]]]]]]]]]]]]]]]]]]]]]]]]",
"]]]]]]]]]]]]]]]]]]]]]]]]]]]]]]]]]]]]]]]]]]]]]]]]]]",
"]]]]]]]]]]]]]]]]]]]]]]]]]]]]]]]]]]]]]]]]]]]]]]]]]]",
"]]]]]]]]]]]]]]]]]]]]]]]]]]]]]]]]]]]]]]]]]]]]]]]]]]",
"]]]]]]]]]]]]]]]]]]]]]]]]]]]]]]]]]]]]]]]]]]]]]]]]]]",
"]]]]]]]]]]]]]]]]]]]]]]]]]]]]]]]]]]]]]]]]]]]]]]]]]]",
"]]]]]]]]]pNf]]]]]]]]]]]]]]]]]]]]]]]]]ygn=]]]]]]]]]",
"]]]]]]]]]n0nf]]]]]]]]]]]]]]]]]]]]]]]uhwd02]]]]]]]]",
"]]]]]]]]]n @gs]]]]]]]]]]]]]]]]]]]]]uh0o@g=3]]]]]]]",
"]]]]]]]]sg  @Nf]]]]]]]]]]]]]]]]]]]uhe@ootq3]]]]]]]",
"]]]]]]]]g0   +ns]]]]]]]]]]]]]]]]]uhe@OO@>t3]]]]]]]",
"]]]]]]]]g&    #ns]]]]]]]]]]]]]]]uh0@@@@@#n2]]]]]]]",
"]]]]]]]]n#  ...#Ns]]]]]]]]]]]]]uhq$@@@###x23]]]]]]",
"]]]]]]]]no......%gs]]]]]]]]]]]ug0@#@$$$$-n93]]]]]]",
"]]]]]]]]nX..X.Xoo%gs]]]]]]]]]phq$$$$$$$%%ny3]]]]]]",
"]]]]]]]]n#oXooooo+;gs]]]]]]]ugq$$$$%%%&*-n=3]]]]]]",
"]]]]]]]]n:ooooOo+@@>gs3]]]3phq%%%%%&&***:n2]]]]]]]",
"]]]]]]]]g<o+oO@@@@@#>gp333igr%%%&*****>>0n3]]]]]]]",
"]]]]]]]]fgO@@@@#####$<gp3ine-%::*>>>>>>>tg3]]]]]]]",
"]]]]]]]]yN#@#####$$$%%0gsnq:::::*>>>>>00xa3]]]]]]]",
"]]]]]]]]]g0##$#$%%%%%%*wnr:>>>><<<00000rgu3]]]]]]]",
"]]]]]]]]]sg$$%%%%%:,,,:>w<><>1w1<000qqegg3]]]]]]]]",
"]]]]]]]]]3g0%%%***7876,1111kzzvv0qqqqrtNu3]]]]]]]]",
"]]]]]]]]]]pg>:*>*>CCCVbcccvbZZSFrrrtttNg3]]]]]]]]]",
"]]]]]]]]]]]gg>>><<AIILLHFFHJPURJttadtNN43]]]]]]]]]",
"]]]]]]]]]]]4gd<<<<C~~~~!!!!~^^^DttddnNu3]]]]]]]]]]",
"]]]]]]]]]]]]3nn0qelY//(////)()RmgggjNa3]]]]]]]]]]]",
"]]]]]]]]]]]]]4gnrqqxY_``````_EMgggNju3]]]]]]]]]]]]",
"]]]]]]]]]]]]]]3snnrrtDW(''(QKgjjjNju3]]]]]]]]]]]]]",
"]]]]]]]]]]]]]]]34gNnnngghhhjjjjNjs33]]]]]]]]]]]]]]",
"]]]]]]]]]]]]]]]]]34fgNNNNBNBBnhs33]]]]]]]]]]]]]]]]",
"]]]]]]]]]]]]]]]]]]]334usfffpu333]]]]]]]]]]]]]]]]]]",
"]]]]]]]]]]]]]]]]]]]]]]]34333]]]]]]]]]]]]]]]]]]]]]]",
"]]]]]]]]]]]]]]]]]]]]]]]]]]]]]]]]]]]]]]]]]]]]]]]]]]",
"]]]]]]]]]]]]]]]]]]]]]]]]]]]]]]]]]]]]]]]]]]]]]]]]]]",
"]]]]]]]]]]]]]]]]]]]]]]]]]]]]]]]]]]]]]]]]]]]]]]]]]]",
"]]]]]]]]]]]]]]]]]]]]]]]]]]]]]]]]]]]]]]]]]]]]]]]]]]",
"]]]]]]]]]]]]]]]]]]]]]]]]]]]]]]]]]]]]]]]]]]]]]]]]]]",
"]]]]]]]]]]]]]]]]]]]]]]]]]]]]]]]]]]]]]]]]]]]]]]]]]]",
"]]]]]]]]]]]]]]]]]]]]]]]]]]]]]]]]]]]]]]]]]]]]]]]]]]"
};
