/* XPM */
static char *p_wall[] = {
/* columns rows colors chars-per-pixel */
"50 50 180 2 ",
"   c #2C1301",
".  c #341601",
"X  c #351A04",
"o  c #3B1B03",
"O  c #3E2107",
"+  c #3C2309",
"@  c #431E03",
"#  c #462205",
"$  c #4B2304",
"%  c #4E2907",
"&  c #432509",
"*  c #4B2B0A",
"=  c #462D0D",
"-  c #522704",
";  c #552A05",
":  c #5B2B05",
">  c #542C09",
",  c #5D2F09",
"<  c #5F3107",
"1  c #55320D",
"2  c #5C340C",
"3  c #5F390F",
"4  c #5C3C13",
"5  c #612E04",
"6  c #653105",
"7  c #6B3406",
"8  c #64360A",
"9  c #6D3609",
"0  c #63380F",
"q  c #6E3B0A",
"w  c #703706",
"e  c #743A07",
"r  c #703708",
"t  c #753C0B",
"y  c #793E0C",
"u  c #75410D",
"i  c #7D410E",
"p  c #7F490F",
"a  c #654114",
"s  c #6B4010",
"d  c #6B4917",
"f  c #744412",
"g  c #7E4411",
"h  c #744A15",
"j  c #7C4A15",
"k  c #734C18",
"l  c #794D1A",
"z  c #74511B",
"x  c #7B531B",
"c  c #7F581D",
"v  c #804109",
"b  c #814A0F",
"n  c #814512",
"m  c #834A15",
"M  c #894D16",
"N  c #874E1B",
"B  c #884F1A",
"V  c #855316",
"C  c #8C5413",
"Z  c #835518",
"A  c #8B521C",
"S  c #8E5C19",
"D  c #83591C",
"F  c #915210",
"G  c #935B16",
"H  c #9D5F16",
"J  c #93551B",
"K  c #935D1C",
"L  c #995B1D",
"P  c #93621D",
"I  c #9C631C",
"U  c #9F681D",
"Y  c #A66516",
"T  c #A2661A",
"R  c #A86718",
"E  c #A56B1C",
"W  c #AD6D1B",
"Q  c #B2731E",
"!  c #B8761F",
"~  c #8C5521",
"^  c #8F5923",
"/  c #915B24",
"(  c #9A5C20",
")  c #945E2B",
"_  c #846021",
"`  c #8A6424",
"'  c #8B6926",
"]  c #936522",
"[  c #9B6226",
"{  c #936B25",
"}  c #9F6924",
"|  c #96612C",
" . c #99642F",
".. c #97732B",
"X. c #9B752A",
"o. c #966132",
"O. c #9A6532",
"+. c #9C6834",
"@. c #9E6B3C",
"#. c #A36524",
"$. c #A46D21",
"%. c #A86927",
"&. c #A06729",
"*. c #A46929",
"=. c #A27124",
"-. c #AC7624",
";. c #AF722E",
":. c #A47C2E",
">. c #B47520",
",. c #BB7A22",
"<. c #B3742E",
"1. c #A06E3A",
"2. c #A4723E",
"3. c #BC7C33",
"4. c #C57E20",
"5. c #A57543",
"6. c #A87847",
"7. c #A57548",
"8. c #AA7C4D",
"9. c #B78029",
"0. c #BC832B",
"q. c #BE882C",
"w. c #AE8834",
"e. c #B18530",
"r. c #B28934",
"t. c #B9963B",
"y. c #C38325",
"u. c #CA8524",
"i. c #CC8927",
"p. c #C78828",
"a. c #CC8D2A",
"s. c #D38D27",
"d. c #D28E2A",
"f. c #D5932C",
"g. c #D9952C",
"h. c #DB992F",
"j. c #C48337",
"k. c #C18D34",
"l. c #C68639",
"z. c #CC8B3C",
"x. c #C49235",
"c. c #CF9632",
"v. c #CC9936",
"b. c #C29B3C",
"n. c #C89D3C",
"m. c #D79E36",
"M. c #D99B32",
"N. c #D09B3D",
"B. c #DDA237",
"V. c #D7A73E",
"C. c #DEA53A",
"Z. c #E0A033",
"A. c #E5AC3D",
"S. c #E9B03F",
"D. c #AF8252",
"F. c #B18556",
"G. c #B28658",
"H. c #DB9A45",
"J. c #E09E47",
"K. c #CFA842",
"L. c #D6AC43",
"P. c #DCAF43",
"I. c #DEB043",
"U. c #DCB549",
"Y. c #E3A049",
"T. c #EEAB4F",
"R. c #E9A64C",
"E. c #E3B243",
"W. c #EAB442",
"Q. c #E2B84A",
"!. c #F1AE51",
"~. c #F5B253",
"^. c #FAB756",
"/. c #FFBB59",
"(. c #EEC24D",
"). c #F2C44D",
"_. c #F5C84F",
"`. c #F5CA51",
"'. c #F8CE54",
"]. c None",
/* pixels */
"].].].].].].].].].].].].].].].].].].].].].].].].].].].].].].].].].].].].].].].].].].].].].].].].].].",
"].].].].].].].].].].].].].].].].].].].].].].].].].].].].].].].].].].].].].].].].].].].].].].].].].].",
"].].].].].].].].].].].].].].].].].].].].].].].].].].].].].].].].].].].].].].].].].].].].].].].].].].",
"].].].].].].].].].].].].].].].].].].].].].].].].].].].].].].].].].].].].].].].].].].].].].].].].].].",
"].].].].].].].].].].].].].].].].].].].].].].].].].].].].].].].].].].].].].].].].].].].].].].].].].].",
"].].].].].].].].].].].].].].].].].].].].].].].].].].].].].].].].].].].].].].].].].].].].].].].].].].",
"].].].].].].].].].].].].].].].].].].].].].].].].].].].].].].].].].].].].].].].].].].].].].].].].].].",
"].].].].].].].].].].].].].].].].].].].].].].].].].].].].<.i y ].].].].].].].].].].].].].].].].].].].",
"].].].].].].].].].].].].].].].].].].].].].].].].].].].m y } m N ].].].].].].].].].].].].].].].].].].",
"].].].].].].].].].].].].].].].].].].].].].].].].].*.y t r.U.x.y ].].].].].].].].].].].].].].].].].].",
"].].].].].].].].].].].].].].].].].].].].].].].H.n y l t._.'.'.y } ].].].].].].].].].].].].].].].].].",
"].].].].].].].].].].].].].].].].].].].].].].].J g ' U.`.'.'.'.~ g /.].].].].].].].].].].].].].].].].",
"].].].].].].].].].].].].].].].].].].].].].].~.g ] Q.`.`.'.`.`.n.g !.].].].].].].].].].].].].].].].].",
"].].].].].].].].].].].].].].].].].].].]././.3.i K._.`._._.).(.^.g A /.].].].].].].].].].].].].].].].",
"].].].].].].].].].].].].].].].].].]././././.A j t.)._._.n.b.X.w./ t | /.].].].].].].].].].].].].].].",
"].].].].].].].].].].].].].].].;.m y m Y./.!.p x X.Q.(.U...4 + = ' 2 y *.].].].].].].].].].].].].].].",
"].].].].].].].].].].].].].#.u t y & j y N [ y z ..U.Q.E.r.4     o X & t *.].].].].].].].].].].].].].",
"].].].].].].].].].].].].g n >   & X :.d q t m a :.P.L.{ a X           @ t 3.].].].].].].].].].].].].",
"].].].].].].].].].].].].y x.d   = ^ r.4 + 0 1 & :.n.z X                 , n ].].].].].].].].].].].].",
"].].].].].].].].].].].R.y V.z o ..W.e.@ X o o o 3 c * .   X X + .     . % n /.].].].].].].].].].].].",
"].].].].].].].].].].].<.n v.d c E.E.t.2 # o . . . 4 k .   X * * . . . . # i /.].].].].].].].].].].].",
"].].].].].].].].].]./.( C V.^ { W.W.E.X.1 o . . . o D o . # h * . . . . @ i /./.].].].].].].].].].].",
"].].].].].].].].].]./.M &.A.v.m.S.S.A.p.2 o o o o o s 1 # 3 ] o . o o o o y /././.].].].].].].].].].",
"].].].].].].].].]././.i ,.A.A.A.A.A.m.P % o o o o o 2 x h h =.# @ @ o o o t t A H.].].].].].].].].].",
"].].].].].].].].]./.3.t Z.B.C.B.m.c.q.s $ @ @ o @ @ $ P Z P $.@ $ $ # o # % q g g m #.].].].].].].].",
"].].].].].].].]./.j.n [ q.-.9.9.V P =.2 % @ # # @ @ > $.P -.P @ # $ $ # - 8 P d.d.[ y ].].].].].].].",
"].].].].].].].].J.y $.Z f x Z j - 2 S 8 - # $ $ @ - 0.h.c.a.U < # $ $ 8 U p.f.h.h.,.n ].].].].].].].",
"].].].].].].].z.b #.Z.$.8 q u 8 % : T f 6 $ $ $ : y.h.h.h.g.f.y.S < ; I f.g.g.g.d.t M ].].].].].].].",
"].].].].].].T.g T M.h.g.E p 8 : - : V G u < 8 C 0.f.f.f.f.i.g.s.G : 5 T s.g.i.u.y t / ].].].].].].].",
"].].].].].].n J f.a.g.h.f.0.u ; - : C W E I E ! ! ! T C i.s.u.E 9 - : i 4.j 7 t ; t #.].].].].].].].",
"].].].].].].n L P ! s.g.g.u.b 6 : , G u.W G p u u 7 : 6 ! W u , : : : : , ; ; : ; t z.].].].].].].].",
"].].].].].].v t 7 R u.y.W Q b 5 : q 4.s.u.F u w < : : 7 i 6 : : : : : : : : : : 5 y ~.].].].].].].].",
"].].].].].].i 9 6 p H F 7 y w 5 5 i R u.u.4.R 6 5 5 5 5 5 , 5 5 5 5 5 5 5 5 5 , 9 y /.].].].].].].].",
"].].].].].].y r 5 5 w 7 5 5 6 6 7 5 6 F R Y v 5 6 6 6 5 6 6 6 6 6 7 7 5 6 6 6 6 i n /.].].].].].].].",
"].].].].].].g r 7 6 7 6 6 7 7 7 7 7 7 q e e w 7 7 7 7 9 7 9 7 q 9 9 9 7 9 7 7 w n J ].].].].].].].].",
"].].].].].].n y 7 7 7 7 7 7 7 7 9 q r r w e r 9 9 r r r t u t t y f t t t r r v b %.].].].].].].].].",
"].].].].].].B i w 9 w 9 w e e t y y t t t t y y y u i g j m m N N m j j j g y y y j.].].].].].].].].",
"].].].].].].~.y i e e t t y i n j m m m n n n m m m N A A A S / ^ ^ ^ ^ ~ ~ y t y ].].].].].].].].].",
"].].].].].].].%.y y i v n n B A ~ ~ ~ A N A ~ A ~ / | |  .O.O.+.+.+.O.O.O.N t n j.].].].].].].].].].",
"].].].].].].].].v y v m A / | o.O.O.| ) ) )  .O.+.1.1.1.2.2.5.5.5.6.6.5.~ y i z.].].].].].].].].].].",
"].].].].].].].].4.y y n ~ &.5.7.5.5.5.o.~ o.5.7.7.7.8.8.8.D.F.F.G.F.1.N y n /.].].].].].].].].].].].",
"].].].].].].].].].~ y v y n / O.o.~ y n m y y m ) 5.7.8.8.7.@.o.~ m y y m ~.].].].].].].].].].].].].",
"].].].].].].].].].].B n n y y g m ( j.!.^.T.*.n y y g g n g n g y g v J ].].].].].].].].].].].].].].",
"].].].].].].].].].].].].].].]./././././././././.!.!.~./././././.].].].].].].].].].].].].].].].].].].",
"].].].].].].].].].].].].].].].].].].].].].].].].].].].].].].].].].].].].].].].].].].].].].].].].].].",
"].].].].].].].].].].].].].].].].].].].].].].].].].].].].].].].].].].].].].].].].].].].].].].].].].].",
"].].].].].].].].].].].].].].].].].].].].].].].].].].].].].].].].].].].].].].].].].].].].].].].].].].",
"].].].].].].].].].].].].].].].].].].].].].].].].].].].].].].].].].].].].].].].].].].].].].].].].].].",
"].].].].].].].].].].].].].].].].].].].].].].].].].].].].].].].].].].].].].].].].].].].].].].].].].].",
"].].].].].].].].].].].].].].].].].].].].].].].].].].].].].].].].].].].].].].].].].].].].].].].].].]."
};
